<?xml version="1.0" encoding="utf-8"?>
<svg xmlns="http://www.w3.org/2000/svg" xmlns:xlink="http://www.w3.org/1999/xlink" width="600" height="300" viewBox="0 0 2400 1200">
<defs>
  <clipPath id="clip510">
    <rect x="0" y="0" width="2400" height="1200"/>
  </clipPath>
</defs>
<path clip-path="url(#clip510)" d="
M0 1200 L2400 1200 L2400 0 L0 0  Z
  " fill="#f3f6f9" fill-rule="evenodd" fill-opacity="1"/>
<defs>
  <clipPath id="clip511">
    <rect x="480" y="0" width="1681" height="1200"/>
  </clipPath>
</defs>
<path clip-path="url(#clip510)" d="
M506.582 867.833 L2319.69 867.833 L2319.69 80.315 L506.582 80.315  Z
  " fill="#f3f6f9" fill-rule="evenodd" fill-opacity="1"/>
<defs>
  <clipPath id="clip512">
    <rect x="506" y="80" width="1814" height="789"/>
  </clipPath>
</defs>
<polyline clip-path="url(#clip510)" style="stroke:#000000; stroke-width:6.8; stroke-opacity:1; fill:none" points="
  506.582,867.833 2319.69,867.833 
  "/>
<polyline clip-path="url(#clip510)" style="stroke:#000000; stroke-width:6.8; stroke-opacity:1; fill:none" points="
  614.294,867.833 614.294,858.383 
  "/>
<polyline clip-path="url(#clip510)" style="stroke:#000000; stroke-width:6.8; stroke-opacity:1; fill:none" points="
  1013.71,867.833 1013.71,858.383 
  "/>
<polyline clip-path="url(#clip510)" style="stroke:#000000; stroke-width:6.8; stroke-opacity:1; fill:none" points="
  1413.13,867.833 1413.13,858.383 
  "/>
<polyline clip-path="url(#clip510)" style="stroke:#000000; stroke-width:6.8; stroke-opacity:1; fill:none" points="
  1812.55,867.833 1812.55,858.383 
  "/>
<polyline clip-path="url(#clip510)" style="stroke:#000000; stroke-width:6.8; stroke-opacity:1; fill:none" points="
  2211.97,867.833 2211.97,858.383 
  "/>
<path clip-path="url(#clip510)" d="M 0 0 M535.729 928.927 L586.178 928.927 L586.178 935.617 L535.729 935.617 L535.729 928.927 Z" fill="#000000" fill-rule="evenodd" fill-opacity="1" /><path clip-path="url(#clip510)" d="M 0 0 M596.173 950.846 L609.159 950.846 L609.159 906.024 L595.032 908.858 L595.032 901.617 L609.08 898.784 L617.029 898.784 L617.029 950.846 L630.015 950.846 L630.015 957.536 L596.173 957.536 L596.173 950.846 Z" fill="#000000" fill-rule="evenodd" fill-opacity="1" /><path clip-path="url(#clip510)" d="M 0 0 M638.633 947.54 L646.937 947.54 L646.937 957.536 L638.633 957.536 L638.633 947.54 Z" fill="#000000" fill-rule="evenodd" fill-opacity="1" /><path clip-path="url(#clip510)" d="M 0 0 M672.554 904.018 Q666.416 904.018 663.307 910.078 Q660.237 916.098 660.237 928.219 Q660.237 940.3 663.307 946.36 Q666.416 952.381 672.554 952.381 Q678.733 952.381 681.802 946.36 Q684.911 940.3 684.911 928.219 Q684.911 916.098 681.802 910.078 Q678.733 904.018 672.554 904.018 M672.554 897.721 Q682.432 897.721 687.626 905.552 Q692.86 913.344 692.86 928.219 Q692.86 943.054 687.626 950.885 Q682.432 958.677 672.554 958.677 Q662.677 958.677 657.443 950.885 Q652.249 943.054 652.249 928.219 Q652.249 913.344 657.443 905.552 Q662.677 897.721 672.554 897.721 Z" fill="#000000" fill-rule="evenodd" fill-opacity="1" /><path clip-path="url(#clip510)" d="M 0 0 M934.952 928.927 L985.4 928.927 L985.4 935.617 L934.952 935.617 L934.952 928.927 Z" fill="#000000" fill-rule="evenodd" fill-opacity="1" /><path clip-path="url(#clip510)" d="M 0 0 M1011.02 904.018 Q1004.88 904.018 1001.77 910.078 Q998.701 916.098 998.701 928.219 Q998.701 940.3 1001.77 946.36 Q1004.88 952.381 1011.02 952.381 Q1017.2 952.381 1020.27 946.36 Q1023.37 940.3 1023.37 928.219 Q1023.37 916.098 1020.27 910.078 Q1017.2 904.018 1011.02 904.018 M1011.02 897.721 Q1020.9 897.721 1026.09 905.552 Q1031.32 913.344 1031.32 928.219 Q1031.32 943.054 1026.09 950.885 Q1020.9 958.677 1011.02 958.677 Q1001.14 958.677 995.907 950.885 Q990.713 943.054 990.713 928.219 Q990.713 913.344 995.907 905.552 Q1001.14 897.721 1011.02 897.721 Z" fill="#000000" fill-rule="evenodd" fill-opacity="1" /><path clip-path="url(#clip510)" d="M 0 0 M1039.94 947.54 L1048.25 947.54 L1048.25 957.536 L1039.94 957.536 L1039.94 947.54 Z" fill="#000000" fill-rule="evenodd" fill-opacity="1" /><path clip-path="url(#clip510)" d="M 0 0 M1056.94 898.784 L1088.15 898.784 L1088.15 905.474 L1064.22 905.474 L1064.22 919.876 Q1065.95 919.286 1067.68 919.01 Q1069.42 918.696 1071.15 918.696 Q1080.99 918.696 1086.73 924.087 Q1092.48 929.478 1092.48 938.686 Q1092.48 948.17 1086.57 953.443 Q1080.67 958.677 1069.93 958.677 Q1066.23 958.677 1062.37 958.047 Q1058.56 957.418 1054.46 956.158 L1054.46 948.17 Q1058 950.098 1061.78 951.043 Q1065.56 951.987 1069.77 951.987 Q1076.58 951.987 1080.55 948.406 Q1084.53 944.825 1084.53 938.686 Q1084.53 932.547 1080.55 928.966 Q1076.58 925.385 1069.77 925.385 Q1066.58 925.385 1063.4 926.094 Q1060.25 926.802 1056.94 928.297 L1056.94 898.784 Z" fill="#000000" fill-rule="evenodd" fill-opacity="1" /><path clip-path="url(#clip510)" d="M 0 0 M1381.71 904.018 Q1375.57 904.018 1372.46 910.078 Q1369.39 916.098 1369.39 928.219 Q1369.39 940.3 1372.46 946.36 Q1375.57 952.381 1381.71 952.381 Q1387.89 952.381 1390.96 946.36 Q1394.07 940.3 1394.07 928.219 Q1394.07 916.098 1390.96 910.078 Q1387.89 904.018 1381.71 904.018 M1381.71 897.721 Q1391.59 897.721 1396.78 905.552 Q1402.02 913.344 1402.02 928.219 Q1402.02 943.054 1396.78 950.885 Q1391.59 958.677 1381.71 958.677 Q1371.83 958.677 1366.6 950.885 Q1361.41 943.054 1361.41 928.219 Q1361.41 913.344 1366.6 905.552 Q1371.83 897.721 1381.71 897.721 Z" fill="#000000" fill-rule="evenodd" fill-opacity="1" /><path clip-path="url(#clip510)" d="M 0 0 M1410.63 947.54 L1418.94 947.54 L1418.94 957.536 L1410.63 957.536 L1410.63 947.54 Z" fill="#000000" fill-rule="evenodd" fill-opacity="1" /><path clip-path="url(#clip510)" d="M 0 0 M1444.56 904.018 Q1438.42 904.018 1435.31 910.078 Q1432.24 916.098 1432.24 928.219 Q1432.24 940.3 1435.31 946.36 Q1438.42 952.381 1444.56 952.381 Q1450.73 952.381 1453.8 946.36 Q1456.91 940.3 1456.91 928.219 Q1456.91 916.098 1453.8 910.078 Q1450.73 904.018 1444.56 904.018 M1444.56 897.721 Q1454.43 897.721 1459.63 905.552 Q1464.86 913.344 1464.86 928.219 Q1464.86 943.054 1459.63 950.885 Q1454.43 958.677 1444.56 958.677 Q1434.68 958.677 1429.44 950.885 Q1424.25 943.054 1424.25 928.219 Q1424.25 913.344 1429.44 905.552 Q1434.68 897.721 1444.56 897.721 Z" fill="#000000" fill-rule="evenodd" fill-opacity="1" /><path clip-path="url(#clip510)" d="M 0 0 M1781.98 904.018 Q1775.84 904.018 1772.73 910.078 Q1769.66 916.098 1769.66 928.219 Q1769.66 940.3 1772.73 946.36 Q1775.84 952.381 1781.98 952.381 Q1788.16 952.381 1791.22 946.36 Q1794.33 940.3 1794.33 928.219 Q1794.33 916.098 1791.22 910.078 Q1788.16 904.018 1781.98 904.018 M1781.98 897.721 Q1791.85 897.721 1797.05 905.552 Q1802.28 913.344 1802.28 928.219 Q1802.28 943.054 1797.05 950.885 Q1791.85 958.677 1781.98 958.677 Q1772.1 958.677 1766.87 950.885 Q1761.67 943.054 1761.67 928.219 Q1761.67 913.344 1766.87 905.552 Q1772.1 897.721 1781.98 897.721 Z" fill="#000000" fill-rule="evenodd" fill-opacity="1" /><path clip-path="url(#clip510)" d="M 0 0 M1810.9 947.54 L1819.2 947.54 L1819.2 957.536 L1810.9 957.536 L1810.9 947.54 Z" fill="#000000" fill-rule="evenodd" fill-opacity="1" /><path clip-path="url(#clip510)" d="M 0 0 M1827.9 898.784 L1859.11 898.784 L1859.11 905.474 L1835.18 905.474 L1835.18 919.876 Q1836.91 919.286 1838.64 919.01 Q1840.37 918.696 1842.11 918.696 Q1851.94 918.696 1857.69 924.087 Q1863.43 929.478 1863.43 938.686 Q1863.43 948.17 1857.53 953.443 Q1851.63 958.677 1840.89 958.677 Q1837.19 958.677 1833.33 958.047 Q1829.51 957.418 1825.42 956.158 L1825.42 948.17 Q1828.96 950.098 1832.74 951.043 Q1836.52 951.987 1840.73 951.987 Q1847.54 951.987 1851.51 948.406 Q1855.49 944.825 1855.49 938.686 Q1855.49 932.547 1851.51 928.966 Q1847.54 925.385 1840.73 925.385 Q1837.54 925.385 1834.35 926.094 Q1831.21 926.802 1827.9 928.297 L1827.9 898.784 Z" fill="#000000" fill-rule="evenodd" fill-opacity="1" /><path clip-path="url(#clip510)" d="M 0 0 M2164.2 950.846 L2177.19 950.846 L2177.19 906.024 L2163.06 908.858 L2163.06 901.617 L2177.11 898.784 L2185.06 898.784 L2185.06 950.846 L2198.04 950.846 L2198.04 957.536 L2164.2 957.536 L2164.2 950.846 Z" fill="#000000" fill-rule="evenodd" fill-opacity="1" /><path clip-path="url(#clip510)" d="M 0 0 M2206.66 947.54 L2214.96 947.54 L2214.96 957.536 L2206.66 957.536 L2206.66 947.54 Z" fill="#000000" fill-rule="evenodd" fill-opacity="1" /><path clip-path="url(#clip510)" d="M 0 0 M2240.58 904.018 Q2234.44 904.018 2231.33 910.078 Q2228.26 916.098 2228.26 928.219 Q2228.26 940.3 2231.33 946.36 Q2234.44 952.381 2240.58 952.381 Q2246.76 952.381 2249.83 946.36 Q2252.94 940.3 2252.94 928.219 Q2252.94 916.098 2249.83 910.078 Q2246.76 904.018 2240.58 904.018 M2240.58 897.721 Q2250.46 897.721 2255.65 905.552 Q2260.89 913.344 2260.89 928.219 Q2260.89 943.054 2255.65 950.885 Q2250.46 958.677 2240.58 958.677 Q2230.7 958.677 2225.47 950.885 Q2220.28 943.054 2220.28 928.219 Q2220.28 913.344 2225.47 905.552 Q2230.7 897.721 2240.58 897.721 Z" fill="#000000" fill-rule="evenodd" fill-opacity="1" /><path clip-path="url(#clip510)" d="M 0 0 M1047.77 1039.03 Q1051.28 1040.22 1054.58 1044.11 Q1057.94 1048.01 1061.29 1054.83 L1072.39 1076.9 L1060.64 1076.9 L1050.31 1056.18 Q1046.3 1048.06 1042.52 1045.41 Q1038.78 1042.76 1032.29 1042.76 L1020.39 1042.76 L1020.39 1076.9 L1009.46 1076.9 L1009.46 996.118 L1034.13 996.118 Q1047.98 996.118 1054.8 1001.91 Q1061.62 1007.7 1061.62 1019.38 Q1061.62 1027.01 1058.05 1032.05 Q1054.53 1037.08 1047.77 1039.03 M1020.39 1005.1 L1020.39 1033.78 L1034.13 1033.78 Q1042.03 1033.78 1046.03 1030.15 Q1050.09 1026.47 1050.09 1019.38 Q1050.09 1012.3 1046.03 1008.73 Q1042.03 1005.1 1034.13 1005.1 L1020.39 1005.1 Z" fill="#000000" fill-rule="evenodd" fill-opacity="1" /><path clip-path="url(#clip510)" d="M 0 0 M1076.82 1052.99 L1076.82 1016.3 L1086.78 1016.3 L1086.78 1052.61 Q1086.78 1061.21 1090.13 1065.54 Q1093.49 1069.81 1100.2 1069.81 Q1108.26 1069.81 1112.91 1064.67 Q1117.62 1059.53 1117.62 1050.66 L1117.62 1016.3 L1127.58 1016.3 L1127.58 1076.9 L1117.62 1076.9 L1117.62 1067.6 Q1113.99 1073.11 1109.18 1075.82 Q1104.42 1078.47 1098.09 1078.47 Q1087.64 1078.47 1082.23 1071.98 Q1076.82 1065.49 1076.82 1052.99 M1101.87 1014.84 L1101.87 1014.84 Z" fill="#000000" fill-rule="evenodd" fill-opacity="1" /><path clip-path="url(#clip510)" d="M 0 0 M1188.39 1040.32 L1188.39 1076.9 L1178.44 1076.9 L1178.44 1040.65 Q1178.44 1032.05 1175.08 1027.77 Q1171.73 1023.5 1165.02 1023.5 Q1156.96 1023.5 1152.3 1028.64 Q1147.65 1033.78 1147.65 1042.65 L1147.65 1076.9 L1137.64 1076.9 L1137.64 1016.3 L1147.65 1016.3 L1147.65 1025.72 Q1151.22 1020.25 1156.04 1017.55 Q1160.91 1014.84 1167.24 1014.84 Q1177.68 1014.84 1183.04 1021.33 Q1188.39 1027.77 1188.39 1040.32 Z" fill="#000000" fill-rule="evenodd" fill-opacity="1" /><path clip-path="url(#clip510)" d="M 0 0 M1249.21 1040.32 L1249.21 1076.9 L1239.26 1076.9 L1239.26 1040.65 Q1239.26 1032.05 1235.9 1027.77 Q1232.55 1023.5 1225.84 1023.5 Q1217.77 1023.5 1213.12 1028.64 Q1208.47 1033.78 1208.47 1042.65 L1208.47 1076.9 L1198.46 1076.9 L1198.46 1016.3 L1208.47 1016.3 L1208.47 1025.72 Q1212.04 1020.25 1216.85 1017.55 Q1221.72 1014.84 1228.06 1014.84 Q1238.5 1014.84 1243.86 1021.33 Q1249.21 1027.77 1249.21 1040.32 Z" fill="#000000" fill-rule="evenodd" fill-opacity="1" /><path clip-path="url(#clip510)" d="M 0 0 M1259.65 1016.3 L1269.61 1016.3 L1269.61 1076.9 L1259.65 1076.9 L1259.65 1016.3 M1259.65 992.709 L1269.61 992.709 L1269.61 1005.32 L1259.65 1005.32 L1259.65 992.709 Z" fill="#000000" fill-rule="evenodd" fill-opacity="1" /><path clip-path="url(#clip510)" d="M 0 0 M1330.43 1040.32 L1330.43 1076.9 L1320.47 1076.9 L1320.47 1040.65 Q1320.47 1032.05 1317.12 1027.77 Q1313.76 1023.5 1307.05 1023.5 Q1298.99 1023.5 1294.34 1028.64 Q1289.69 1033.78 1289.69 1042.65 L1289.69 1076.9 L1279.67 1076.9 L1279.67 1016.3 L1289.69 1016.3 L1289.69 1025.72 Q1293.26 1020.25 1298.07 1017.55 Q1302.94 1014.84 1309.27 1014.84 Q1319.72 1014.84 1325.07 1021.33 Q1330.43 1027.77 1330.43 1040.32 Z" fill="#000000" fill-rule="evenodd" fill-opacity="1" /><path clip-path="url(#clip510)" d="M 0 0 M1380.75 1045.9 Q1380.75 1035.08 1376.26 1029.12 Q1371.82 1023.17 1363.76 1023.17 Q1355.75 1023.17 1351.26 1029.12 Q1346.82 1035.08 1346.82 1045.9 Q1346.82 1056.67 1351.26 1062.62 Q1355.75 1068.57 1363.76 1068.57 Q1371.82 1068.57 1376.26 1062.62 Q1380.75 1056.67 1380.75 1045.9 M1390.71 1069.38 Q1390.71 1084.86 1383.83 1092.38 Q1376.96 1099.95 1362.79 1099.95 Q1357.54 1099.95 1352.88 1099.14 Q1348.23 1098.38 1343.85 1096.76 L1343.85 1087.07 Q1348.23 1089.46 1352.5 1090.59 Q1356.78 1091.73 1361.22 1091.73 Q1371.01 1091.73 1375.88 1086.59 Q1380.75 1081.5 1380.75 1071.17 L1380.75 1066.24 Q1377.67 1071.6 1372.85 1074.25 Q1368.03 1076.9 1361.32 1076.9 Q1350.18 1076.9 1343.36 1068.41 Q1336.54 1059.91 1336.54 1045.9 Q1336.54 1031.83 1343.36 1023.33 Q1350.18 1014.84 1361.32 1014.84 Q1368.03 1014.84 1372.85 1017.49 Q1377.67 1020.14 1380.75 1025.5 L1380.75 1016.3 L1390.71 1016.3 L1390.71 1069.38 Z" fill="#000000" fill-rule="evenodd" fill-opacity="1" /><path clip-path="url(#clip510)" d="M 0 0 M1429.23 1016.3 L1439.78 1016.3 L1458.72 1067.16 L1477.66 1016.3 L1488.21 1016.3 L1465.48 1076.9 L1451.96 1076.9 L1429.23 1016.3 Z" fill="#000000" fill-rule="evenodd" fill-opacity="1" /><path clip-path="url(#clip510)" d="M 0 0 M1526.19 1046.44 Q1514.13 1046.44 1509.47 1049.2 Q1504.82 1051.96 1504.82 1058.61 Q1504.82 1063.92 1508.28 1067.05 Q1511.8 1070.14 1517.81 1070.14 Q1526.09 1070.14 1531.06 1064.29 Q1536.1 1058.4 1536.1 1048.66 L1536.1 1046.44 L1526.19 1046.44 M1546.05 1042.33 L1546.05 1076.9 L1536.1 1076.9 L1536.1 1067.7 Q1532.69 1073.22 1527.6 1075.87 Q1522.51 1078.47 1515.16 1078.47 Q1505.85 1078.47 1500.33 1073.28 Q1494.86 1068.03 1494.86 1059.26 Q1494.86 1049.04 1501.68 1043.84 Q1508.55 1038.65 1522.14 1038.65 L1536.1 1038.65 L1536.1 1037.67 Q1536.1 1030.8 1531.55 1027.07 Q1527.06 1023.28 1518.89 1023.28 Q1513.69 1023.28 1508.77 1024.53 Q1503.85 1025.77 1499.3 1028.26 L1499.3 1019.06 Q1504.77 1016.95 1509.91 1015.92 Q1515.05 1014.84 1519.92 1014.84 Q1533.07 1014.84 1539.56 1021.66 Q1546.05 1028.48 1546.05 1042.33 Z" fill="#000000" fill-rule="evenodd" fill-opacity="1" /><path clip-path="url(#clip510)" d="M 0 0 M1591.61 1025.61 Q1589.93 1024.63 1587.93 1024.2 Q1585.98 1023.71 1583.6 1023.71 Q1575.16 1023.71 1570.62 1029.23 Q1566.13 1034.7 1566.13 1044.98 L1566.13 1076.9 L1556.12 1076.9 L1556.12 1016.3 L1566.13 1016.3 L1566.13 1025.72 Q1569.26 1020.2 1574.3 1017.55 Q1579.33 1014.84 1586.52 1014.84 Q1587.55 1014.84 1588.8 1015 Q1590.04 1015.11 1591.56 1015.38 L1591.61 1025.61 Z" fill="#000000" fill-rule="evenodd" fill-opacity="1" /><path clip-path="url(#clip510)" d="M 0 0 M1602.05 1016.3 L1612.01 1016.3 L1612.01 1076.9 L1602.05 1076.9 L1602.05 1016.3 M1602.05 992.709 L1612.01 992.709 L1612.01 1005.32 L1602.05 1005.32 L1602.05 992.709 Z" fill="#000000" fill-rule="evenodd" fill-opacity="1" /><path clip-path="url(#clip510)" d="M 0 0 M1649.99 1046.44 Q1637.93 1046.44 1633.27 1049.2 Q1628.62 1051.96 1628.62 1058.61 Q1628.62 1063.92 1632.08 1067.05 Q1635.6 1070.14 1641.61 1070.14 Q1649.89 1070.14 1654.86 1064.29 Q1659.9 1058.4 1659.9 1048.66 L1659.9 1046.44 L1649.99 1046.44 M1669.85 1042.33 L1669.85 1076.9 L1659.9 1076.9 L1659.9 1067.7 Q1656.49 1073.22 1651.4 1075.87 Q1646.31 1078.47 1638.96 1078.47 Q1629.65 1078.47 1624.13 1073.28 Q1618.66 1068.03 1618.66 1059.26 Q1618.66 1049.04 1625.48 1043.84 Q1632.35 1038.65 1645.94 1038.65 L1659.9 1038.65 L1659.9 1037.67 Q1659.9 1030.8 1655.35 1027.07 Q1650.86 1023.28 1642.69 1023.28 Q1637.49 1023.28 1632.57 1024.53 Q1627.65 1025.77 1623.1 1028.26 L1623.1 1019.06 Q1628.57 1016.95 1633.71 1015.92 Q1638.85 1014.84 1643.72 1014.84 Q1656.87 1014.84 1663.36 1021.66 Q1669.85 1028.48 1669.85 1042.33 Z" fill="#000000" fill-rule="evenodd" fill-opacity="1" /><path clip-path="url(#clip510)" d="M 0 0 M1723.8 1046.66 Q1723.8 1035.67 1719.25 1029.45 Q1714.76 1023.17 1706.86 1023.17 Q1698.96 1023.17 1694.42 1029.45 Q1689.93 1035.67 1689.93 1046.66 Q1689.93 1057.64 1694.42 1063.92 Q1698.96 1070.14 1706.86 1070.14 Q1714.76 1070.14 1719.25 1063.92 Q1723.8 1057.64 1723.8 1046.66 M1689.93 1025.5 Q1693.06 1020.09 1697.83 1017.49 Q1702.64 1014.84 1709.3 1014.84 Q1720.33 1014.84 1727.21 1023.61 Q1734.13 1032.37 1734.13 1046.66 Q1734.13 1060.94 1727.21 1069.71 Q1720.33 1078.47 1709.3 1078.47 Q1702.64 1078.47 1697.83 1075.87 Q1693.06 1073.22 1689.93 1067.81 L1689.93 1076.9 L1679.92 1076.9 L1679.92 992.709 L1689.93 992.709 L1689.93 1025.5 Z" fill="#000000" fill-rule="evenodd" fill-opacity="1" /><path clip-path="url(#clip510)" d="M 0 0 M1744.58 992.709 L1754.53 992.709 L1754.53 1076.9 L1744.58 1076.9 L1744.58 992.709 Z" fill="#000000" fill-rule="evenodd" fill-opacity="1" /><path clip-path="url(#clip510)" d="M 0 0 M1816.81 1044.11 L1816.81 1048.98 L1771.03 1048.98 Q1771.68 1059.26 1777.2 1064.67 Q1782.78 1070.03 1792.68 1070.03 Q1798.41 1070.03 1803.77 1068.62 Q1809.18 1067.22 1814.48 1064.4 L1814.48 1073.82 Q1809.13 1076.09 1803.5 1077.28 Q1797.87 1078.47 1792.08 1078.47 Q1777.58 1078.47 1769.09 1070.03 Q1760.65 1061.59 1760.65 1047.2 Q1760.65 1032.32 1768.65 1023.61 Q1776.72 1014.84 1790.35 1014.84 Q1802.58 1014.84 1809.67 1022.74 Q1816.81 1030.59 1816.81 1044.11 M1806.85 1041.19 Q1806.75 1033.02 1802.25 1028.15 Q1797.82 1023.28 1790.46 1023.28 Q1782.13 1023.28 1777.09 1027.99 Q1772.12 1032.7 1771.36 1041.24 L1806.85 1041.19 Z" fill="#000000" fill-rule="evenodd" fill-opacity="1" /><polyline clip-path="url(#clip510)" style="stroke:#000000; stroke-width:6.8; stroke-opacity:1; fill:none" points="
  506.582,867.833 506.582,80.315 
  "/>
<polyline clip-path="url(#clip510)" style="stroke:#000000; stroke-width:6.8; stroke-opacity:1; fill:none" points="
  506.582,867.833 528.339,867.833 
  "/>
<polyline clip-path="url(#clip510)" style="stroke:#000000; stroke-width:6.8; stroke-opacity:1; fill:none" points="
  506.582,736.58 528.339,736.58 
  "/>
<polyline clip-path="url(#clip510)" style="stroke:#000000; stroke-width:6.8; stroke-opacity:1; fill:none" points="
  506.582,605.327 528.339,605.327 
  "/>
<polyline clip-path="url(#clip510)" style="stroke:#000000; stroke-width:6.8; stroke-opacity:1; fill:none" points="
  506.582,474.074 528.339,474.074 
  "/>
<polyline clip-path="url(#clip510)" style="stroke:#000000; stroke-width:6.8; stroke-opacity:1; fill:none" points="
  506.582,342.821 528.339,342.821 
  "/>
<polyline clip-path="url(#clip510)" style="stroke:#000000; stroke-width:6.8; stroke-opacity:1; fill:none" points="
  506.582,211.568 528.339,211.568 
  "/>
<polyline clip-path="url(#clip510)" style="stroke:#000000; stroke-width:6.8; stroke-opacity:1; fill:none" points="
  506.582,80.315 528.339,80.315 
  "/>
<path clip-path="url(#clip510)" d="M 0 0 M450.277 843.691 Q444.138 843.691 441.029 849.751 Q437.96 855.772 437.96 867.892 Q437.96 879.973 441.029 886.033 Q444.138 892.054 450.277 892.054 Q456.455 892.054 459.524 886.033 Q462.633 879.973 462.633 867.892 Q462.633 855.772 459.524 849.751 Q456.455 843.691 450.277 843.691 M450.277 837.395 Q460.154 837.395 465.348 845.226 Q470.582 853.017 470.582 867.892 Q470.582 882.728 465.348 890.559 Q460.154 898.351 450.277 898.351 Q440.399 898.351 435.166 890.559 Q429.971 882.728 429.971 867.892 Q429.971 853.017 435.166 845.226 Q440.399 837.395 450.277 837.395 Z" fill="#000000" fill-rule="evenodd" fill-opacity="1" /><path clip-path="url(#clip510)" d="M 0 0 M344.893 759.266 L357.879 759.266 L357.879 714.445 L343.752 717.278 L343.752 710.038 L357.8 707.204 L365.749 707.204 L365.749 759.266 L378.735 759.266 L378.735 765.956 L344.893 765.956 L344.893 759.266 Z" fill="#000000" fill-rule="evenodd" fill-opacity="1" /><path clip-path="url(#clip510)" d="M 0 0 M404.353 712.438 Q398.214 712.438 395.106 718.498 Q392.036 724.519 392.036 736.639 Q392.036 748.72 395.106 754.78 Q398.214 760.801 404.353 760.801 Q410.531 760.801 413.601 754.78 Q416.71 748.72 416.71 736.639 Q416.71 724.519 413.601 718.498 Q410.531 712.438 404.353 712.438 M404.353 706.142 Q414.231 706.142 419.425 713.973 Q424.659 721.764 424.659 736.639 Q424.659 751.475 419.425 759.306 Q414.231 767.097 404.353 767.097 Q394.476 767.097 389.242 759.306 Q384.048 751.475 384.048 736.639 Q384.048 721.764 389.242 713.973 Q394.476 706.142 404.353 706.142 Z" fill="#000000" fill-rule="evenodd" fill-opacity="1" /><path clip-path="url(#clip510)" d="M 0 0 M450.277 712.438 Q444.138 712.438 441.029 718.498 Q437.96 724.519 437.96 736.639 Q437.96 748.72 441.029 754.78 Q444.138 760.801 450.277 760.801 Q456.455 760.801 459.524 754.78 Q462.633 748.72 462.633 736.639 Q462.633 724.519 459.524 718.498 Q456.455 712.438 450.277 712.438 M450.277 706.142 Q460.154 706.142 465.348 713.973 Q470.582 721.764 470.582 736.639 Q470.582 751.475 465.348 759.306 Q460.154 767.097 450.277 767.097 Q440.399 767.097 435.166 759.306 Q429.971 751.475 429.971 736.639 Q429.971 721.764 435.166 713.973 Q440.399 706.142 450.277 706.142 Z" fill="#000000" fill-rule="evenodd" fill-opacity="1" /><path clip-path="url(#clip510)" d="M 0 0 M350.992 628.013 L378.735 628.013 L378.735 634.703 L341.43 634.703 L341.43 628.013 Q345.955 623.331 353.747 615.46 Q361.578 607.551 363.585 605.268 Q367.402 600.979 368.897 598.027 Q370.432 595.037 370.432 592.164 Q370.432 587.481 367.127 584.53 Q363.86 581.578 358.587 581.578 Q354.849 581.578 350.678 582.877 Q346.546 584.176 341.824 586.812 L341.824 578.785 Q346.624 576.856 350.796 575.873 Q354.967 574.889 358.43 574.889 Q367.56 574.889 372.99 579.454 Q378.421 584.018 378.421 591.653 Q378.421 595.273 377.043 598.539 Q375.705 601.766 372.124 606.173 Q371.141 607.314 365.867 612.784 Q360.594 618.215 350.992 628.013 Z" fill="#000000" fill-rule="evenodd" fill-opacity="1" /><path clip-path="url(#clip510)" d="M 0 0 M404.353 581.185 Q398.214 581.185 395.106 587.245 Q392.036 593.266 392.036 605.386 Q392.036 617.467 395.106 623.527 Q398.214 629.548 404.353 629.548 Q410.531 629.548 413.601 623.527 Q416.71 617.467 416.71 605.386 Q416.71 593.266 413.601 587.245 Q410.531 581.185 404.353 581.185 M404.353 574.889 Q414.231 574.889 419.425 582.72 Q424.659 590.511 424.659 605.386 Q424.659 620.222 419.425 628.053 Q414.231 635.844 404.353 635.844 Q394.476 635.844 389.242 628.053 Q384.048 620.222 384.048 605.386 Q384.048 590.511 389.242 582.72 Q394.476 574.889 404.353 574.889 Z" fill="#000000" fill-rule="evenodd" fill-opacity="1" /><path clip-path="url(#clip510)" d="M 0 0 M450.277 581.185 Q444.138 581.185 441.029 587.245 Q437.96 593.266 437.96 605.386 Q437.96 617.467 441.029 623.527 Q444.138 629.548 450.277 629.548 Q456.455 629.548 459.524 623.527 Q462.633 617.467 462.633 605.386 Q462.633 593.266 459.524 587.245 Q456.455 581.185 450.277 581.185 M450.277 574.889 Q460.154 574.889 465.348 582.72 Q470.582 590.511 470.582 605.386 Q470.582 620.222 465.348 628.053 Q460.154 635.844 450.277 635.844 Q440.399 635.844 435.166 628.053 Q429.971 620.222 429.971 605.386 Q429.971 590.511 435.166 582.72 Q440.399 574.889 450.277 574.889 Z" fill="#000000" fill-rule="evenodd" fill-opacity="1" /><path clip-path="url(#clip510)" d="M 0 0 M366.615 471.772 Q372.321 472.992 375.509 476.848 Q378.735 480.705 378.735 486.372 Q378.735 495.068 372.754 499.83 Q366.772 504.591 355.754 504.591 Q352.055 504.591 348.12 503.844 Q344.224 503.135 340.053 501.679 L340.053 494.006 Q343.358 495.934 347.293 496.918 Q351.229 497.902 355.518 497.902 Q362.995 497.902 366.891 494.95 Q370.826 491.999 370.826 486.372 Q370.826 481.177 367.166 478.265 Q363.546 475.314 357.053 475.314 L350.205 475.314 L350.205 468.781 L357.367 468.781 Q363.231 468.781 366.34 466.46 Q369.448 464.099 369.448 459.691 Q369.448 455.166 366.222 452.765 Q363.034 450.325 357.053 450.325 Q353.786 450.325 350.048 451.034 Q346.31 451.742 341.824 453.237 L341.824 446.154 Q346.349 444.895 350.284 444.265 Q354.259 443.636 357.761 443.636 Q366.812 443.636 372.085 447.768 Q377.358 451.86 377.358 458.865 Q377.358 463.744 374.564 467.129 Q371.77 470.473 366.615 471.772 Z" fill="#000000" fill-rule="evenodd" fill-opacity="1" /><path clip-path="url(#clip510)" d="M 0 0 M404.353 449.932 Q398.214 449.932 395.106 455.992 Q392.036 462.013 392.036 474.133 Q392.036 486.214 395.106 492.274 Q398.214 498.295 404.353 498.295 Q410.531 498.295 413.601 492.274 Q416.71 486.214 416.71 474.133 Q416.71 462.013 413.601 455.992 Q410.531 449.932 404.353 449.932 M404.353 443.636 Q414.231 443.636 419.425 451.467 Q424.659 459.258 424.659 474.133 Q424.659 488.969 419.425 496.8 Q414.231 504.591 404.353 504.591 Q394.476 504.591 389.242 496.8 Q384.048 488.969 384.048 474.133 Q384.048 459.258 389.242 451.467 Q394.476 443.636 404.353 443.636 Z" fill="#000000" fill-rule="evenodd" fill-opacity="1" /><path clip-path="url(#clip510)" d="M 0 0 M450.277 449.932 Q444.138 449.932 441.029 455.992 Q437.96 462.013 437.96 474.133 Q437.96 486.214 441.029 492.274 Q444.138 498.295 450.277 498.295 Q456.455 498.295 459.524 492.274 Q462.633 486.214 462.633 474.133 Q462.633 462.013 459.524 455.992 Q456.455 449.932 450.277 449.932 M450.277 443.636 Q460.154 443.636 465.348 451.467 Q470.582 459.258 470.582 474.133 Q470.582 488.969 465.348 496.8 Q460.154 504.591 450.277 504.591 Q440.399 504.591 435.166 496.8 Q429.971 488.969 429.971 474.133 Q429.971 459.258 435.166 451.467 Q440.399 443.636 450.277 443.636 Z" fill="#000000" fill-rule="evenodd" fill-opacity="1" /><path clip-path="url(#clip510)" d="M 0 0 M362.444 320.371 L342.374 351.734 L362.444 351.734 L362.444 320.371 M360.358 313.445 L370.353 313.445 L370.353 351.734 L378.735 351.734 L378.735 358.345 L370.353 358.345 L370.353 372.197 L362.444 372.197 L362.444 358.345 L335.921 358.345 L335.921 350.672 L360.358 313.445 Z" fill="#000000" fill-rule="evenodd" fill-opacity="1" /><path clip-path="url(#clip510)" d="M 0 0 M404.353 318.679 Q398.214 318.679 395.106 324.739 Q392.036 330.76 392.036 342.88 Q392.036 354.961 395.106 361.021 Q398.214 367.042 404.353 367.042 Q410.531 367.042 413.601 361.021 Q416.71 354.961 416.71 342.88 Q416.71 330.76 413.601 324.739 Q410.531 318.679 404.353 318.679 M404.353 312.383 Q414.231 312.383 419.425 320.214 Q424.659 328.005 424.659 342.88 Q424.659 357.716 419.425 365.547 Q414.231 373.338 404.353 373.338 Q394.476 373.338 389.242 365.547 Q384.048 357.716 384.048 342.88 Q384.048 328.005 389.242 320.214 Q394.476 312.383 404.353 312.383 Z" fill="#000000" fill-rule="evenodd" fill-opacity="1" /><path clip-path="url(#clip510)" d="M 0 0 M450.277 318.679 Q444.138 318.679 441.029 324.739 Q437.96 330.76 437.96 342.88 Q437.96 354.961 441.029 361.021 Q444.138 367.042 450.277 367.042 Q456.455 367.042 459.524 361.021 Q462.633 354.961 462.633 342.88 Q462.633 330.76 459.524 324.739 Q456.455 318.679 450.277 318.679 M450.277 312.383 Q460.154 312.383 465.348 320.214 Q470.582 328.005 470.582 342.88 Q470.582 357.716 465.348 365.547 Q460.154 373.338 450.277 373.338 Q440.399 373.338 435.166 365.547 Q429.971 357.716 429.971 342.88 Q429.971 328.005 435.166 320.214 Q440.399 312.383 450.277 312.383 Z" fill="#000000" fill-rule="evenodd" fill-opacity="1" /><path clip-path="url(#clip510)" d="M 0 0 M343.201 182.192 L374.407 182.192 L374.407 188.882 L350.481 188.882 L350.481 203.285 Q352.212 202.694 353.944 202.419 Q355.675 202.104 357.407 202.104 Q367.245 202.104 372.99 207.495 Q378.735 212.886 378.735 222.095 Q378.735 231.578 372.833 236.851 Q366.93 242.085 356.187 242.085 Q352.488 242.085 348.631 241.456 Q344.814 240.826 340.722 239.567 L340.722 231.578 Q344.263 233.507 348.041 234.451 Q351.819 235.395 356.029 235.395 Q362.837 235.395 366.812 231.814 Q370.786 228.233 370.786 222.095 Q370.786 215.956 366.812 212.375 Q362.837 208.794 356.029 208.794 Q352.842 208.794 349.655 209.502 Q346.506 210.21 343.201 211.706 L343.201 182.192 Z" fill="#000000" fill-rule="evenodd" fill-opacity="1" /><path clip-path="url(#clip510)" d="M 0 0 M404.353 187.426 Q398.214 187.426 395.106 193.486 Q392.036 199.507 392.036 211.627 Q392.036 223.708 395.106 229.768 Q398.214 235.789 404.353 235.789 Q410.531 235.789 413.601 229.768 Q416.71 223.708 416.71 211.627 Q416.71 199.507 413.601 193.486 Q410.531 187.426 404.353 187.426 M404.353 181.13 Q414.231 181.13 419.425 188.961 Q424.659 196.752 424.659 211.627 Q424.659 226.463 419.425 234.294 Q414.231 242.085 404.353 242.085 Q394.476 242.085 389.242 234.294 Q384.048 226.463 384.048 211.627 Q384.048 196.752 389.242 188.961 Q394.476 181.13 404.353 181.13 Z" fill="#000000" fill-rule="evenodd" fill-opacity="1" /><path clip-path="url(#clip510)" d="M 0 0 M450.277 187.426 Q444.138 187.426 441.029 193.486 Q437.96 199.507 437.96 211.627 Q437.96 223.708 441.029 229.768 Q444.138 235.789 450.277 235.789 Q456.455 235.789 459.524 229.768 Q462.633 223.708 462.633 211.627 Q462.633 199.507 459.524 193.486 Q456.455 187.426 450.277 187.426 M450.277 181.13 Q460.154 181.13 465.348 188.961 Q470.582 196.752 470.582 211.627 Q470.582 226.463 465.348 234.294 Q460.154 242.085 450.277 242.085 Q440.399 242.085 435.166 234.294 Q429.971 226.463 429.971 211.627 Q429.971 196.752 435.166 188.961 Q440.399 181.13 450.277 181.13 Z" fill="#000000" fill-rule="evenodd" fill-opacity="1" /><path clip-path="url(#clip510)" d="M 0 0 M359.138 77.1472 Q353.786 77.1472 350.638 80.8069 Q347.53 84.4666 347.53 90.8415 Q347.53 97.1771 350.638 100.876 Q353.786 104.536 359.138 104.536 Q364.49 104.536 367.599 100.876 Q370.747 97.1771 370.747 90.8415 Q370.747 84.4666 367.599 80.8069 Q364.49 77.1472 359.138 77.1472 M374.918 52.2376 L374.918 59.4783 Q371.928 58.0616 368.858 57.3139 Q365.828 56.5662 362.837 56.5662 Q354.967 56.5662 350.796 61.8787 Q346.664 67.1912 346.074 77.9342 Q348.395 74.5106 351.898 72.7004 Q355.4 70.8509 359.61 70.8509 Q368.465 70.8509 373.58 76.2421 Q378.735 81.5939 378.735 90.8415 Q378.735 99.8924 373.384 105.362 Q368.032 110.832 359.138 110.832 Q348.946 110.832 343.555 103.041 Q338.164 95.2096 338.164 80.374 Q338.164 66.4435 344.775 58.1797 Q351.386 49.8765 362.522 49.8765 Q365.513 49.8765 368.543 50.4667 Q371.613 51.057 374.918 52.2376 Z" fill="#000000" fill-rule="evenodd" fill-opacity="1" /><path clip-path="url(#clip510)" d="M 0 0 M404.353 56.1727 Q398.214 56.1727 395.106 62.2329 Q392.036 68.2537 392.036 80.374 Q392.036 92.4549 395.106 98.5151 Q398.214 104.536 404.353 104.536 Q410.531 104.536 413.601 98.5151 Q416.71 92.4549 416.71 80.374 Q416.71 68.2537 413.601 62.2329 Q410.531 56.1727 404.353 56.1727 M404.353 49.8765 Q414.231 49.8765 419.425 57.7074 Q424.659 65.4991 424.659 80.374 Q424.659 95.2096 419.425 103.041 Q414.231 110.832 404.353 110.832 Q394.476 110.832 389.242 103.041 Q384.048 95.2096 384.048 80.374 Q384.048 65.4991 389.242 57.7074 Q394.476 49.8765 404.353 49.8765 Z" fill="#000000" fill-rule="evenodd" fill-opacity="1" /><path clip-path="url(#clip510)" d="M 0 0 M450.277 56.1727 Q444.138 56.1727 441.029 62.2329 Q437.96 68.2537 437.96 80.374 Q437.96 92.4549 441.029 98.5151 Q444.138 104.536 450.277 104.536 Q456.455 104.536 459.524 98.5151 Q462.633 92.4549 462.633 80.374 Q462.633 68.2537 459.524 62.2329 Q456.455 56.1727 450.277 56.1727 M450.277 49.8765 Q460.154 49.8765 465.348 57.7074 Q470.582 65.4991 470.582 80.374 Q470.582 95.2096 465.348 103.041 Q460.154 110.832 450.277 110.832 Q440.399 110.832 435.166 103.041 Q429.971 95.2096 429.971 80.374 Q429.971 65.4991 435.166 57.7074 Q440.399 49.8765 450.277 49.8765 Z" fill="#000000" fill-rule="evenodd" fill-opacity="1" /><path clip-path="url(#clip510)" d="M 0 0 M218.902 725.895 L218.902 679.47 L228.1 679.47 L228.1 714.965 L251.908 714.965 L251.908 682.933 L261.106 682.933 L261.106 714.965 L299.686 714.965 L299.686 725.895 L218.902 725.895 Z" fill="#000000" fill-rule="evenodd" fill-opacity="1" /><path clip-path="url(#clip510)" d="M 0 0 M248.391 641.973 Q247.417 643.65 246.984 645.652 Q246.497 647.6 246.497 649.981 Q246.497 658.422 252.016 662.967 Q257.481 667.458 267.762 667.458 L299.686 667.458 L299.686 677.468 L239.084 677.468 L239.084 667.458 L248.499 667.458 Q242.98 664.32 240.329 659.288 Q237.623 654.255 237.623 647.059 Q237.623 646.031 237.785 644.786 Q237.894 643.542 238.164 642.027 L248.391 641.973 Z" fill="#000000" fill-rule="evenodd" fill-opacity="1" /><path clip-path="url(#clip510)" d="M 0 0 M266.896 582.129 L271.766 582.129 L271.766 627.905 Q282.046 627.255 287.457 621.736 Q292.814 616.163 292.814 606.261 Q292.814 600.526 291.407 595.169 Q290 589.758 287.187 584.455 L296.601 584.455 Q298.874 589.812 300.064 595.44 Q301.255 601.067 301.255 606.856 Q301.255 621.358 292.814 629.853 Q284.373 638.293 269.98 638.293 Q255.1 638.293 246.389 630.285 Q237.623 622.223 237.623 608.588 Q237.623 596.359 245.523 589.271 Q253.369 582.129 266.896 582.129 M263.974 592.085 Q255.804 592.193 250.934 596.684 Q246.064 601.121 246.064 608.48 Q246.064 616.812 250.771 621.844 Q255.479 626.822 264.028 627.58 L263.974 592.085 Z" fill="#000000" fill-rule="evenodd" fill-opacity="1" /><path clip-path="url(#clip510)" d="M 0 0 M269.439 565.734 Q280.423 565.734 286.7 561.243 Q292.922 556.698 292.922 548.798 Q292.922 540.898 286.7 536.353 Q280.423 531.808 269.439 531.808 Q258.455 531.808 252.232 536.353 Q245.956 540.898 245.956 548.798 Q245.956 556.698 252.232 561.243 Q258.455 565.734 269.439 565.734 M290.595 531.808 Q296.006 534.946 298.658 539.762 Q301.255 544.523 301.255 551.233 Q301.255 562.217 292.489 569.143 Q283.724 576.015 269.439 576.015 Q255.154 576.015 246.389 569.143 Q237.623 562.217 237.623 551.233 Q237.623 544.523 240.274 539.762 Q242.872 534.946 248.283 531.808 L239.084 531.808 L239.084 521.852 L322.736 521.852 L322.736 531.808 L290.595 531.808 Z" fill="#000000" fill-rule="evenodd" fill-opacity="1" /><path clip-path="url(#clip510)" d="M 0 0 M275.77 512.437 L239.084 512.437 L239.084 502.481 L275.391 502.481 Q283.994 502.481 288.323 499.126 Q292.597 495.772 292.597 489.062 Q292.597 481 287.457 476.347 Q282.317 471.639 273.443 471.639 L239.084 471.639 L239.084 461.683 L299.686 461.683 L299.686 471.639 L290.379 471.639 Q295.898 475.265 298.603 480.08 Q301.255 484.842 301.255 491.172 Q301.255 501.615 294.762 507.026 Q288.269 512.437 275.77 512.437 M237.623 487.385 L237.623 487.385 Z" fill="#000000" fill-rule="evenodd" fill-opacity="1" /><path clip-path="url(#clip510)" d="M 0 0 M266.896 399.404 L271.766 399.404 L271.766 445.18 Q282.046 444.531 287.457 439.012 Q292.814 433.439 292.814 423.537 Q292.814 417.801 291.407 412.445 Q290 407.034 287.187 401.731 L296.601 401.731 Q298.874 407.088 300.064 412.715 Q301.255 418.342 301.255 424.132 Q301.255 438.633 292.814 447.128 Q284.373 455.569 269.98 455.569 Q255.1 455.569 246.389 447.561 Q237.623 439.499 237.623 425.863 Q237.623 413.635 245.523 406.547 Q253.369 399.404 266.896 399.404 M263.974 409.36 Q255.804 409.469 250.934 413.96 Q246.064 418.396 246.064 425.755 Q246.064 434.088 250.771 439.12 Q255.479 444.098 264.028 444.856 L263.974 409.36 Z" fill="#000000" fill-rule="evenodd" fill-opacity="1" /><path clip-path="url(#clip510)" d="M 0 0 M263.108 338.586 L299.686 338.586 L299.686 348.542 L263.433 348.542 Q254.83 348.542 250.555 351.897 Q246.28 355.252 246.28 361.961 Q246.28 370.023 251.421 374.677 Q256.561 379.33 265.435 379.33 L299.686 379.33 L299.686 389.34 L239.084 389.34 L239.084 379.33 L248.499 379.33 Q243.034 375.759 240.329 370.943 Q237.623 366.074 237.623 359.743 Q237.623 349.3 244.116 343.943 Q250.555 338.586 263.108 338.586 Z" fill="#000000" fill-rule="evenodd" fill-opacity="1" /><path clip-path="url(#clip510)" d="M 0 0 M241.411 284.532 L250.717 284.532 Q248.391 288.753 247.254 293.027 Q246.064 297.248 246.064 301.576 Q246.064 311.262 252.232 316.618 Q258.347 321.975 269.439 321.975 Q280.531 321.975 286.7 316.618 Q292.814 311.262 292.814 301.576 Q292.814 297.248 291.678 293.027 Q290.487 288.753 288.16 284.532 L297.359 284.532 Q299.307 288.698 300.281 293.189 Q301.255 297.626 301.255 302.658 Q301.255 316.348 292.651 324.41 Q284.048 332.472 269.439 332.472 Q254.613 332.472 246.118 324.356 Q237.623 316.186 237.623 302.009 Q237.623 297.41 238.597 293.027 Q239.517 288.644 241.411 284.532 Z" fill="#000000" fill-rule="evenodd" fill-opacity="1" /><path clip-path="url(#clip510)" d="M 0 0 M305.313 248.875 Q316.135 253.095 319.435 257.099 Q322.736 261.103 322.736 267.813 L322.736 275.766 L314.403 275.766 L314.403 269.923 Q314.403 265.811 312.455 263.538 Q310.507 261.265 303.257 258.506 L298.712 256.72 L239.084 281.231 L239.084 270.68 L286.483 251.742 L239.084 232.804 L239.084 222.253 L305.313 248.875 Z" fill="#000000" fill-rule="evenodd" fill-opacity="1" /><path clip-path="url(#clip512)" d="
M606.306 727.393 L606.306 867.833 L646.647 867.833 L646.647 727.393 L606.306 727.393 L606.306 727.393  Z
  " fill="#d3d3d3" fill-rule="evenodd" fill-opacity="1"/>
<polyline clip-path="url(#clip512)" style="stroke:#000000; stroke-width:2.04; stroke-opacity:1; fill:none" points="
  606.306,727.393 606.306,867.833 646.647,867.833 646.647,727.393 606.306,727.393 
  "/>
<path clip-path="url(#clip512)" d="
M646.647 859.958 L646.647 867.833 L686.989 867.833 L686.989 859.958 L646.647 859.958 L646.647 859.958  Z
  " fill="#d3d3d3" fill-rule="evenodd" fill-opacity="1"/>
<polyline clip-path="url(#clip512)" style="stroke:#000000; stroke-width:2.04; stroke-opacity:1; fill:none" points="
  646.647,859.958 646.647,867.833 686.989,867.833 686.989,859.958 646.647,859.958 
  "/>
<path clip-path="url(#clip512)" d="
M686.989 850.77 L686.989 867.833 L727.33 867.833 L727.33 850.77 L686.989 850.77 L686.989 850.77  Z
  " fill="#d3d3d3" fill-rule="evenodd" fill-opacity="1"/>
<polyline clip-path="url(#clip512)" style="stroke:#000000; stroke-width:2.04; stroke-opacity:1; fill:none" points="
  686.989,850.77 686.989,867.833 727.33,867.833 727.33,850.77 686.989,850.77 
  "/>
<path clip-path="url(#clip512)" d="
M727.33 854.708 L727.33 867.833 L767.672 867.833 L767.672 854.708 L727.33 854.708 L727.33 854.708  Z
  " fill="#d3d3d3" fill-rule="evenodd" fill-opacity="1"/>
<polyline clip-path="url(#clip512)" style="stroke:#000000; stroke-width:2.04; stroke-opacity:1; fill:none" points="
  727.33,854.708 727.33,867.833 767.672,867.833 767.672,854.708 727.33,854.708 
  "/>
<path clip-path="url(#clip512)" d="
M767.672 861.271 L767.672 867.833 L808.013 867.833 L808.013 861.271 L767.672 861.271 L767.672 861.271  Z
  " fill="#d3d3d3" fill-rule="evenodd" fill-opacity="1"/>
<polyline clip-path="url(#clip512)" style="stroke:#000000; stroke-width:2.04; stroke-opacity:1; fill:none" points="
  767.672,861.271 767.672,867.833 808.013,867.833 808.013,861.271 767.672,861.271 
  "/>
<path clip-path="url(#clip512)" d="
M808.013 842.895 L808.013 867.833 L848.354 867.833 L848.354 842.895 L808.013 842.895 L808.013 842.895  Z
  " fill="#d3d3d3" fill-rule="evenodd" fill-opacity="1"/>
<polyline clip-path="url(#clip512)" style="stroke:#000000; stroke-width:2.04; stroke-opacity:1; fill:none" points="
  808.013,842.895 808.013,867.833 848.354,867.833 848.354,842.895 808.013,842.895 
  "/>
<path clip-path="url(#clip512)" d="
M848.354 833.708 L848.354 867.833 L888.696 867.833 L888.696 833.708 L848.354 833.708 L848.354 833.708  Z
  " fill="#d3d3d3" fill-rule="evenodd" fill-opacity="1"/>
<polyline clip-path="url(#clip512)" style="stroke:#000000; stroke-width:2.04; stroke-opacity:1; fill:none" points="
  848.354,833.708 848.354,867.833 888.696,867.833 888.696,833.708 848.354,833.708 
  "/>
<path clip-path="url(#clip512)" d="
M888.696 829.77 L888.696 867.833 L929.037 867.833 L929.037 829.77 L888.696 829.77 L888.696 829.77  Z
  " fill="#d3d3d3" fill-rule="evenodd" fill-opacity="1"/>
<polyline clip-path="url(#clip512)" style="stroke:#000000; stroke-width:2.04; stroke-opacity:1; fill:none" points="
  888.696,829.77 888.696,867.833 929.037,867.833 929.037,829.77 888.696,829.77 
  "/>
<path clip-path="url(#clip512)" d="
M929.037 773.331 L929.037 867.833 L969.378 867.833 L969.378 773.331 L929.037 773.331 L929.037 773.331  Z
  " fill="#d3d3d3" fill-rule="evenodd" fill-opacity="1"/>
<polyline clip-path="url(#clip512)" style="stroke:#000000; stroke-width:2.04; stroke-opacity:1; fill:none" points="
  929.037,773.331 929.037,867.833 969.378,867.833 969.378,773.331 929.037,773.331 
  "/>
<path clip-path="url(#clip512)" d="
M969.378 751.018 L969.378 867.833 L1009.72 867.833 L1009.72 751.018 L969.378 751.018 L969.378 751.018  Z
  " fill="#d3d3d3" fill-rule="evenodd" fill-opacity="1"/>
<polyline clip-path="url(#clip512)" style="stroke:#000000; stroke-width:2.04; stroke-opacity:1; fill:none" points="
  969.378,751.018 969.378,867.833 1009.72,867.833 1009.72,751.018 969.378,751.018 
  "/>
<path clip-path="url(#clip512)" d="
M1009.72 684.079 L1009.72 867.833 L1050.06 867.833 L1050.06 684.079 L1009.72 684.079 L1009.72 684.079  Z
  " fill="#d3d3d3" fill-rule="evenodd" fill-opacity="1"/>
<polyline clip-path="url(#clip512)" style="stroke:#000000; stroke-width:2.04; stroke-opacity:1; fill:none" points="
  1009.72,684.079 1009.72,867.833 1050.06,867.833 1050.06,684.079 1009.72,684.079 
  "/>
<path clip-path="url(#clip512)" d="
M1050.06 647.328 L1050.06 867.833 L1090.4 867.833 L1090.4 647.328 L1050.06 647.328 L1050.06 647.328  Z
  " fill="#d3d3d3" fill-rule="evenodd" fill-opacity="1"/>
<polyline clip-path="url(#clip512)" style="stroke:#000000; stroke-width:2.04; stroke-opacity:1; fill:none" points="
  1050.06,647.328 1050.06,867.833 1090.4,867.833 1090.4,647.328 1050.06,647.328 
  "/>
<path clip-path="url(#clip512)" d="
M1090.4 640.766 L1090.4 867.833 L1130.74 867.833 L1130.74 640.766 L1090.4 640.766 L1090.4 640.766  Z
  " fill="#d3d3d3" fill-rule="evenodd" fill-opacity="1"/>
<polyline clip-path="url(#clip512)" style="stroke:#000000; stroke-width:2.04; stroke-opacity:1; fill:none" points="
  1090.4,640.766 1090.4,867.833 1130.74,867.833 1130.74,640.766 1090.4,640.766 
  "/>
<path clip-path="url(#clip512)" d="
M1130.74 560.701 L1130.74 867.833 L1171.09 867.833 L1171.09 560.701 L1130.74 560.701 L1130.74 560.701  Z
  " fill="#d3d3d3" fill-rule="evenodd" fill-opacity="1"/>
<polyline clip-path="url(#clip512)" style="stroke:#000000; stroke-width:2.04; stroke-opacity:1; fill:none" points="
  1130.74,560.701 1130.74,867.833 1171.09,867.833 1171.09,560.701 1130.74,560.701 
  "/>
<path clip-path="url(#clip512)" d="
M1171.09 531.825 L1171.09 867.833 L1211.43 867.833 L1211.43 531.825 L1171.09 531.825 L1171.09 531.825  Z
  " fill="#d3d3d3" fill-rule="evenodd" fill-opacity="1"/>
<polyline clip-path="url(#clip512)" style="stroke:#000000; stroke-width:2.04; stroke-opacity:1; fill:none" points="
  1171.09,531.825 1171.09,867.833 1211.43,867.833 1211.43,531.825 1171.09,531.825 
  "/>
<path clip-path="url(#clip512)" d="
M1211.43 531.825 L1211.43 867.833 L1251.77 867.833 L1251.77 531.825 L1211.43 531.825 L1211.43 531.825  Z
  " fill="#d3d3d3" fill-rule="evenodd" fill-opacity="1"/>
<polyline clip-path="url(#clip512)" style="stroke:#000000; stroke-width:2.04; stroke-opacity:1; fill:none" points="
  1211.43,531.825 1211.43,867.833 1251.77,867.833 1251.77,531.825 1211.43,531.825 
  "/>
<path clip-path="url(#clip512)" d="
M1251.77 523.95 L1251.77 867.833 L1292.11 867.833 L1292.11 523.95 L1251.77 523.95 L1251.77 523.95  Z
  " fill="#d3d3d3" fill-rule="evenodd" fill-opacity="1"/>
<polyline clip-path="url(#clip512)" style="stroke:#000000; stroke-width:2.04; stroke-opacity:1; fill:none" points="
  1251.77,523.95 1251.77,867.833 1292.11,867.833 1292.11,523.95 1251.77,523.95 
  "/>
<path clip-path="url(#clip512)" d="
M1292.11 487.199 L1292.11 867.833 L1332.45 867.833 L1332.45 487.199 L1292.11 487.199 L1292.11 487.199  Z
  " fill="#d3d3d3" fill-rule="evenodd" fill-opacity="1"/>
<polyline clip-path="url(#clip512)" style="stroke:#000000; stroke-width:2.04; stroke-opacity:1; fill:none" points="
  1292.11,487.199 1292.11,867.833 1332.45,867.833 1332.45,487.199 1292.11,487.199 
  "/>
<path clip-path="url(#clip512)" d="
M1332.45 480.637 L1332.45 867.833 L1372.79 867.833 L1372.79 480.637 L1332.45 480.637 L1332.45 480.637  Z
  " fill="#d3d3d3" fill-rule="evenodd" fill-opacity="1"/>
<polyline clip-path="url(#clip512)" style="stroke:#000000; stroke-width:2.04; stroke-opacity:1; fill:none" points="
  1332.45,480.637 1332.45,867.833 1372.79,867.833 1372.79,480.637 1332.45,480.637 
  "/>
<path clip-path="url(#clip512)" d="
M1372.79 487.199 L1372.79 867.833 L1413.13 867.833 L1413.13 487.199 L1372.79 487.199 L1372.79 487.199  Z
  " fill="#d3d3d3" fill-rule="evenodd" fill-opacity="1"/>
<polyline clip-path="url(#clip512)" style="stroke:#000000; stroke-width:2.04; stroke-opacity:1; fill:none" points="
  1372.79,487.199 1372.79,867.833 1413.13,867.833 1413.13,487.199 1372.79,487.199 
  "/>
<path clip-path="url(#clip512)" d="
M1413.13 445.198 L1413.13 867.833 L1453.47 867.833 L1453.47 445.198 L1413.13 445.198 L1413.13 445.198  Z
  " fill="#d3d3d3" fill-rule="evenodd" fill-opacity="1"/>
<polyline clip-path="url(#clip512)" style="stroke:#000000; stroke-width:2.04; stroke-opacity:1; fill:none" points="
  1413.13,445.198 1413.13,867.833 1453.47,867.833 1453.47,445.198 1413.13,445.198 
  "/>
<path clip-path="url(#clip512)" d="
M1453.47 454.386 L1453.47 867.833 L1493.82 867.833 L1493.82 454.386 L1453.47 454.386 L1453.47 454.386  Z
  " fill="#d3d3d3" fill-rule="evenodd" fill-opacity="1"/>
<polyline clip-path="url(#clip512)" style="stroke:#000000; stroke-width:2.04; stroke-opacity:1; fill:none" points="
  1453.47,454.386 1453.47,867.833 1493.82,867.833 1493.82,454.386 1453.47,454.386 
  "/>
<path clip-path="url(#clip512)" d="
M1493.82 522.638 L1493.82 867.833 L1534.16 867.833 L1534.16 522.638 L1493.82 522.638 L1493.82 522.638  Z
  " fill="#d3d3d3" fill-rule="evenodd" fill-opacity="1"/>
<polyline clip-path="url(#clip512)" style="stroke:#000000; stroke-width:2.04; stroke-opacity:1; fill:none" points="
  1493.82,522.638 1493.82,867.833 1534.16,867.833 1534.16,522.638 1493.82,522.638 
  "/>
<path clip-path="url(#clip512)" d="
M1534.16 538.388 L1534.16 867.833 L1574.5 867.833 L1574.5 538.388 L1534.16 538.388 L1534.16 538.388  Z
  " fill="#d3d3d3" fill-rule="evenodd" fill-opacity="1"/>
<polyline clip-path="url(#clip512)" style="stroke:#000000; stroke-width:2.04; stroke-opacity:1; fill:none" points="
  1534.16,538.388 1534.16,867.833 1574.5,867.833 1574.5,538.388 1534.16,538.388 
  "/>
<path clip-path="url(#clip512)" d="
M1574.5 539.701 L1574.5 867.833 L1614.84 867.833 L1614.84 539.701 L1574.5 539.701 L1574.5 539.701  Z
  " fill="#d3d3d3" fill-rule="evenodd" fill-opacity="1"/>
<polyline clip-path="url(#clip512)" style="stroke:#000000; stroke-width:2.04; stroke-opacity:1; fill:none" points="
  1574.5,539.701 1574.5,867.833 1614.84,867.833 1614.84,539.701 1574.5,539.701 
  "/>
<path clip-path="url(#clip512)" d="
M1614.84 520.013 L1614.84 867.833 L1655.18 867.833 L1655.18 520.013 L1614.84 520.013 L1614.84 520.013  Z
  " fill="#d3d3d3" fill-rule="evenodd" fill-opacity="1"/>
<polyline clip-path="url(#clip512)" style="stroke:#000000; stroke-width:2.04; stroke-opacity:1; fill:none" points="
  1614.84,520.013 1614.84,867.833 1655.18,867.833 1655.18,520.013 1614.84,520.013 
  "/>
<path clip-path="url(#clip512)" d="
M1655.18 541.013 L1655.18 867.833 L1695.52 867.833 L1695.52 541.013 L1655.18 541.013 L1655.18 541.013  Z
  " fill="#d3d3d3" fill-rule="evenodd" fill-opacity="1"/>
<polyline clip-path="url(#clip512)" style="stroke:#000000; stroke-width:2.04; stroke-opacity:1; fill:none" points="
  1655.18,541.013 1655.18,867.833 1695.52,867.833 1695.52,541.013 1655.18,541.013 
  "/>
<path clip-path="url(#clip512)" d="
M1695.52 569.889 L1695.52 867.833 L1735.86 867.833 L1735.86 569.889 L1695.52 569.889 L1695.52 569.889  Z
  " fill="#d3d3d3" fill-rule="evenodd" fill-opacity="1"/>
<polyline clip-path="url(#clip512)" style="stroke:#000000; stroke-width:2.04; stroke-opacity:1; fill:none" points="
  1695.52,569.889 1695.52,867.833 1735.86,867.833 1735.86,569.889 1695.52,569.889 
  "/>
<path clip-path="url(#clip512)" d="
M1735.86 572.514 L1735.86 867.833 L1776.21 867.833 L1776.21 572.514 L1735.86 572.514 L1735.86 572.514  Z
  " fill="#d3d3d3" fill-rule="evenodd" fill-opacity="1"/>
<polyline clip-path="url(#clip512)" style="stroke:#000000; stroke-width:2.04; stroke-opacity:1; fill:none" points="
  1735.86,572.514 1735.86,867.833 1776.21,867.833 1776.21,572.514 1735.86,572.514 
  "/>
<path clip-path="url(#clip512)" d="
M1776.21 610.577 L1776.21 867.833 L1816.55 867.833 L1816.55 610.577 L1776.21 610.577 L1776.21 610.577  Z
  " fill="#d3d3d3" fill-rule="evenodd" fill-opacity="1"/>
<polyline clip-path="url(#clip512)" style="stroke:#000000; stroke-width:2.04; stroke-opacity:1; fill:none" points="
  1776.21,610.577 1776.21,867.833 1816.55,867.833 1816.55,610.577 1776.21,610.577 
  "/>
<path clip-path="url(#clip512)" d="
M1816.55 678.829 L1816.55 867.833 L1856.89 867.833 L1856.89 678.829 L1816.55 678.829 L1816.55 678.829  Z
  " fill="#d3d3d3" fill-rule="evenodd" fill-opacity="1"/>
<polyline clip-path="url(#clip512)" style="stroke:#000000; stroke-width:2.04; stroke-opacity:1; fill:none" points="
  1816.55,678.829 1816.55,867.833 1856.89,867.833 1856.89,678.829 1816.55,678.829 
  "/>
<path clip-path="url(#clip512)" d="
M1856.89 727.393 L1856.89 867.833 L1897.23 867.833 L1897.23 727.393 L1856.89 727.393 L1856.89 727.393  Z
  " fill="#d3d3d3" fill-rule="evenodd" fill-opacity="1"/>
<polyline clip-path="url(#clip512)" style="stroke:#000000; stroke-width:2.04; stroke-opacity:1; fill:none" points="
  1856.89,727.393 1856.89,867.833 1897.23,867.833 1897.23,727.393 1856.89,727.393 
  "/>
<path clip-path="url(#clip512)" d="
M1897.23 740.518 L1897.23 867.833 L1937.57 867.833 L1937.57 740.518 L1897.23 740.518 L1897.23 740.518  Z
  " fill="#d3d3d3" fill-rule="evenodd" fill-opacity="1"/>
<polyline clip-path="url(#clip512)" style="stroke:#000000; stroke-width:2.04; stroke-opacity:1; fill:none" points="
  1897.23,740.518 1897.23,867.833 1937.57,867.833 1937.57,740.518 1897.23,740.518 
  "/>
<path clip-path="url(#clip512)" d="
M1937.57 756.268 L1937.57 867.833 L1977.91 867.833 L1977.91 756.268 L1937.57 756.268 L1937.57 756.268  Z
  " fill="#d3d3d3" fill-rule="evenodd" fill-opacity="1"/>
<polyline clip-path="url(#clip512)" style="stroke:#000000; stroke-width:2.04; stroke-opacity:1; fill:none" points="
  1937.57,756.268 1937.57,867.833 1977.91,867.833 1977.91,756.268 1937.57,756.268 
  "/>
<path clip-path="url(#clip512)" d="
M1977.91 779.894 L1977.91 867.833 L2018.25 867.833 L2018.25 779.894 L1977.91 779.894 L1977.91 779.894  Z
  " fill="#d3d3d3" fill-rule="evenodd" fill-opacity="1"/>
<polyline clip-path="url(#clip512)" style="stroke:#000000; stroke-width:2.04; stroke-opacity:1; fill:none" points="
  1977.91,779.894 1977.91,867.833 2018.25,867.833 2018.25,779.894 1977.91,779.894 
  "/>
<path clip-path="url(#clip512)" d="
M2018.25 798.269 L2018.25 867.833 L2058.6 867.833 L2058.6 798.269 L2018.25 798.269 L2018.25 798.269  Z
  " fill="#d3d3d3" fill-rule="evenodd" fill-opacity="1"/>
<polyline clip-path="url(#clip512)" style="stroke:#000000; stroke-width:2.04; stroke-opacity:1; fill:none" points="
  2018.25,798.269 2018.25,867.833 2058.6,867.833 2058.6,798.269 2018.25,798.269 
  "/>
<path clip-path="url(#clip512)" d="
M2058.6 810.082 L2058.6 867.833 L2098.94 867.833 L2098.94 810.082 L2058.6 810.082 L2058.6 810.082  Z
  " fill="#d3d3d3" fill-rule="evenodd" fill-opacity="1"/>
<polyline clip-path="url(#clip512)" style="stroke:#000000; stroke-width:2.04; stroke-opacity:1; fill:none" points="
  2058.6,810.082 2058.6,867.833 2098.94,867.833 2098.94,810.082 2058.6,810.082 
  "/>
<path clip-path="url(#clip512)" d="
M2098.94 811.395 L2098.94 867.833 L2139.28 867.833 L2139.28 811.395 L2098.94 811.395 L2098.94 811.395  Z
  " fill="#d3d3d3" fill-rule="evenodd" fill-opacity="1"/>
<polyline clip-path="url(#clip512)" style="stroke:#000000; stroke-width:2.04; stroke-opacity:1; fill:none" points="
  2098.94,811.395 2098.94,867.833 2139.28,867.833 2139.28,811.395 2098.94,811.395 
  "/>
<path clip-path="url(#clip512)" d="
M2139.28 812.707 L2139.28 867.833 L2179.62 867.833 L2179.62 812.707 L2139.28 812.707 L2139.28 812.707  Z
  " fill="#d3d3d3" fill-rule="evenodd" fill-opacity="1"/>
<polyline clip-path="url(#clip512)" style="stroke:#000000; stroke-width:2.04; stroke-opacity:1; fill:none" points="
  2139.28,812.707 2139.28,867.833 2179.62,867.833 2179.62,812.707 2139.28,812.707 
  "/>
<path clip-path="url(#clip512)" d="
M2179.62 115.753 L2179.62 867.833 L2219.96 867.833 L2219.96 115.753 L2179.62 115.753 L2179.62 115.753  Z
  " fill="#d3d3d3" fill-rule="evenodd" fill-opacity="1"/>
<polyline clip-path="url(#clip512)" style="stroke:#000000; stroke-width:2.04; stroke-opacity:1; fill:none" points="
  2179.62,115.753 2179.62,867.833 2219.96,867.833 2219.96,115.753 2179.62,115.753 
  "/>
<polyline clip-path="url(#clip512)" style="stroke:#800080; stroke-width:11.56; stroke-opacity:1; fill:none" stroke-dasharray="46, 29" points="
  1413.13,1655.35 1413.13,-707.203 
  "/>
</svg>
