<?xml version="1.0" encoding="utf-8"?>
<svg xmlns="http://www.w3.org/2000/svg" xmlns:xlink="http://www.w3.org/1999/xlink" width="700" height="400" viewBox="0 0 2800 1600">
<defs>
  <clipPath id="clip700">
    <rect x="0" y="0" width="2800" height="1600"/>
  </clipPath>
</defs>
<path clip-path="url(#clip700)" d="
M0 1600 L2800 1600 L2800 0 L0 0  Z
  " fill="#f3f6f9" fill-rule="evenodd" fill-opacity="1"/>
<defs>
  <clipPath id="clip701">
    <rect x="560" y="0" width="1961" height="1600"/>
  </clipPath>
</defs>
<path clip-path="url(#clip700)" d="
M528.096 1235.62 L2719.69 1235.62 L2719.69 80.315 L528.096 80.315  Z
  " fill="#f3f6f9" fill-rule="evenodd" fill-opacity="1"/>
<defs>
  <clipPath id="clip702">
    <rect x="528" y="80" width="2193" height="1156"/>
  </clipPath>
</defs>
<polyline clip-path="url(#clip700)" style="stroke:#000000; stroke-width:6.8; stroke-opacity:1; fill:none" points="
  528.096,1235.62 2719.69,1235.62 
  "/>
<polyline clip-path="url(#clip700)" style="stroke:#000000; stroke-width:6.8; stroke-opacity:1; fill:none" points="
  658.294,1235.62 658.294,1221.75 
  "/>
<polyline clip-path="url(#clip700)" style="stroke:#000000; stroke-width:6.8; stroke-opacity:1; fill:none" points="
  1141.09,1235.62 1141.09,1221.75 
  "/>
<polyline clip-path="url(#clip700)" style="stroke:#000000; stroke-width:6.8; stroke-opacity:1; fill:none" points="
  1623.89,1235.62 1623.89,1221.75 
  "/>
<polyline clip-path="url(#clip700)" style="stroke:#000000; stroke-width:6.8; stroke-opacity:1; fill:none" points="
  2106.69,1235.62 2106.69,1221.75 
  "/>
<polyline clip-path="url(#clip700)" style="stroke:#000000; stroke-width:6.8; stroke-opacity:1; fill:none" points="
  2589.49,1235.62 2589.49,1221.75 
  "/>
<path clip-path="url(#clip700)" d="M 0 0 M579.728 1299.91 L630.177 1299.91 L630.177 1306.6 L579.728 1306.6 L579.728 1299.91 Z" fill="#000000" fill-rule="evenodd" fill-opacity="1" /><path clip-path="url(#clip700)" d="M 0 0 M640.172 1321.83 L653.158 1321.83 L653.158 1277.01 L639.031 1279.84 L639.031 1272.6 L653.079 1269.77 L661.029 1269.77 L661.029 1321.83 L674.015 1321.83 L674.015 1328.52 L640.172 1328.52 L640.172 1321.83 Z" fill="#000000" fill-rule="evenodd" fill-opacity="1" /><path clip-path="url(#clip700)" d="M 0 0 M682.633 1318.52 L690.936 1318.52 L690.936 1328.52 L682.633 1328.52 L682.633 1318.52 Z" fill="#000000" fill-rule="evenodd" fill-opacity="1" /><path clip-path="url(#clip700)" d="M 0 0 M716.554 1275 Q710.415 1275 707.306 1281.06 Q704.237 1287.08 704.237 1299.2 Q704.237 1311.28 707.306 1317.34 Q710.415 1323.37 716.554 1323.37 Q722.732 1323.37 725.801 1317.34 Q728.91 1311.28 728.91 1299.2 Q728.91 1287.08 725.801 1281.06 Q722.732 1275 716.554 1275 M716.554 1268.71 Q726.431 1268.71 731.625 1276.54 Q736.859 1284.33 736.859 1299.2 Q736.859 1314.04 731.625 1321.87 Q726.431 1329.66 716.554 1329.66 Q706.676 1329.66 701.443 1321.87 Q696.248 1314.04 696.248 1299.2 Q696.248 1284.33 701.443 1276.54 Q706.676 1268.71 716.554 1268.71 Z" fill="#000000" fill-rule="evenodd" fill-opacity="1" /><path clip-path="url(#clip700)" d="M 0 0 M1062.33 1299.91 L1112.78 1299.91 L1112.78 1306.6 L1062.33 1306.6 L1062.33 1299.91 Z" fill="#000000" fill-rule="evenodd" fill-opacity="1" /><path clip-path="url(#clip700)" d="M 0 0 M1138.4 1275 Q1132.26 1275 1129.15 1281.06 Q1126.08 1287.08 1126.08 1299.2 Q1126.08 1311.28 1129.15 1317.34 Q1132.26 1323.37 1138.4 1323.37 Q1144.57 1323.37 1147.64 1317.34 Q1150.75 1311.28 1150.75 1299.2 Q1150.75 1287.08 1147.64 1281.06 Q1144.57 1275 1138.4 1275 M1138.4 1268.71 Q1148.27 1268.71 1153.47 1276.54 Q1158.7 1284.33 1158.7 1299.2 Q1158.7 1314.04 1153.47 1321.87 Q1148.27 1329.66 1138.4 1329.66 Q1128.52 1329.66 1123.29 1321.87 Q1118.09 1314.04 1118.09 1299.2 Q1118.09 1284.33 1123.29 1276.54 Q1128.52 1268.71 1138.4 1268.71 Z" fill="#000000" fill-rule="evenodd" fill-opacity="1" /><path clip-path="url(#clip700)" d="M 0 0 M1167.32 1318.52 L1175.62 1318.52 L1175.62 1328.52 L1167.32 1328.52 L1167.32 1318.52 Z" fill="#000000" fill-rule="evenodd" fill-opacity="1" /><path clip-path="url(#clip700)" d="M 0 0 M1184.32 1269.77 L1215.53 1269.77 L1215.53 1276.46 L1191.6 1276.46 L1191.6 1290.86 Q1193.33 1290.27 1195.06 1289.99 Q1196.79 1289.68 1198.53 1289.68 Q1208.36 1289.68 1214.11 1295.07 Q1219.85 1300.46 1219.85 1309.67 Q1219.85 1319.15 1213.95 1324.43 Q1208.05 1329.66 1197.31 1329.66 Q1193.61 1329.66 1189.75 1329.03 Q1185.93 1328.4 1181.84 1327.14 L1181.84 1319.15 Q1185.38 1321.08 1189.16 1322.03 Q1192.94 1322.97 1197.15 1322.97 Q1203.96 1322.97 1207.93 1319.39 Q1211.91 1315.81 1211.91 1309.67 Q1211.91 1303.53 1207.93 1299.95 Q1203.96 1296.37 1197.15 1296.37 Q1193.96 1296.37 1190.77 1297.08 Q1187.63 1297.79 1184.32 1299.28 L1184.32 1269.77 Z" fill="#000000" fill-rule="evenodd" fill-opacity="1" /><path clip-path="url(#clip700)" d="M 0 0 M1592.47 1275 Q1586.33 1275 1583.22 1281.06 Q1580.15 1287.08 1580.15 1299.2 Q1580.15 1311.28 1583.22 1317.34 Q1586.33 1323.37 1592.47 1323.37 Q1598.65 1323.37 1601.72 1317.34 Q1604.82 1311.28 1604.82 1299.2 Q1604.82 1287.08 1601.72 1281.06 Q1598.65 1275 1592.47 1275 M1592.47 1268.71 Q1602.35 1268.71 1607.54 1276.54 Q1612.77 1284.33 1612.77 1299.2 Q1612.77 1314.04 1607.54 1321.87 Q1602.35 1329.66 1592.47 1329.66 Q1582.59 1329.66 1577.36 1321.87 Q1572.16 1314.04 1572.16 1299.2 Q1572.16 1284.33 1577.36 1276.54 Q1582.59 1268.71 1592.47 1268.71 Z" fill="#000000" fill-rule="evenodd" fill-opacity="1" /><path clip-path="url(#clip700)" d="M 0 0 M1621.39 1318.52 L1629.7 1318.52 L1629.7 1328.52 L1621.39 1328.52 L1621.39 1318.52 Z" fill="#000000" fill-rule="evenodd" fill-opacity="1" /><path clip-path="url(#clip700)" d="M 0 0 M1655.31 1275 Q1649.17 1275 1646.07 1281.06 Q1643 1287.08 1643 1299.2 Q1643 1311.28 1646.07 1317.34 Q1649.17 1323.37 1655.31 1323.37 Q1661.49 1323.37 1664.56 1317.34 Q1667.67 1311.28 1667.67 1299.2 Q1667.67 1287.08 1664.56 1281.06 Q1661.49 1275 1655.31 1275 M1655.31 1268.71 Q1665.19 1268.71 1670.38 1276.54 Q1675.62 1284.33 1675.62 1299.2 Q1675.62 1314.04 1670.38 1321.87 Q1665.19 1329.66 1655.31 1329.66 Q1645.44 1329.66 1640.2 1321.87 Q1635.01 1314.04 1635.01 1299.2 Q1635.01 1284.33 1640.2 1276.54 Q1645.44 1268.71 1655.31 1268.71 Z" fill="#000000" fill-rule="evenodd" fill-opacity="1" /><path clip-path="url(#clip700)" d="M 0 0 M2076.11 1275 Q2069.97 1275 2066.87 1281.06 Q2063.8 1287.08 2063.8 1299.2 Q2063.8 1311.28 2066.87 1317.34 Q2069.97 1323.37 2076.11 1323.37 Q2082.29 1323.37 2085.36 1317.34 Q2088.47 1311.28 2088.47 1299.2 Q2088.47 1287.08 2085.36 1281.06 Q2082.29 1275 2076.11 1275 M2076.11 1268.71 Q2085.99 1268.71 2091.18 1276.54 Q2096.42 1284.33 2096.42 1299.2 Q2096.42 1314.04 2091.18 1321.87 Q2085.99 1329.66 2076.11 1329.66 Q2066.24 1329.66 2061 1321.87 Q2055.81 1314.04 2055.81 1299.2 Q2055.81 1284.33 2061 1276.54 Q2066.24 1268.71 2076.11 1268.71 Z" fill="#000000" fill-rule="evenodd" fill-opacity="1" /><path clip-path="url(#clip700)" d="M 0 0 M2105.04 1318.52 L2113.34 1318.52 L2113.34 1328.52 L2105.04 1328.52 L2105.04 1318.52 Z" fill="#000000" fill-rule="evenodd" fill-opacity="1" /><path clip-path="url(#clip700)" d="M 0 0 M2122.04 1269.77 L2153.24 1269.77 L2153.24 1276.46 L2129.32 1276.46 L2129.32 1290.86 Q2131.05 1290.27 2132.78 1289.99 Q2134.51 1289.68 2136.24 1289.68 Q2146.08 1289.68 2151.83 1295.07 Q2157.57 1300.46 2157.57 1309.67 Q2157.57 1319.15 2151.67 1324.43 Q2145.77 1329.66 2135.02 1329.66 Q2131.32 1329.66 2127.47 1329.03 Q2123.65 1328.4 2119.56 1327.14 L2119.56 1319.15 Q2123.1 1321.08 2126.88 1322.03 Q2130.65 1322.97 2134.87 1322.97 Q2141.67 1322.97 2145.65 1319.39 Q2149.62 1315.81 2149.62 1309.67 Q2149.62 1303.53 2145.65 1299.95 Q2141.67 1296.37 2134.87 1296.37 Q2131.68 1296.37 2128.49 1297.08 Q2125.34 1297.79 2122.04 1299.28 L2122.04 1269.77 Z" fill="#000000" fill-rule="evenodd" fill-opacity="1" /><path clip-path="url(#clip700)" d="M 0 0 M2541.71 1321.83 L2554.7 1321.83 L2554.7 1277.01 L2540.57 1279.84 L2540.57 1272.6 L2554.62 1269.77 L2562.57 1269.77 L2562.57 1321.83 L2575.56 1321.83 L2575.56 1328.52 L2541.71 1328.52 L2541.71 1321.83 Z" fill="#000000" fill-rule="evenodd" fill-opacity="1" /><path clip-path="url(#clip700)" d="M 0 0 M2584.18 1318.52 L2592.48 1318.52 L2592.48 1328.52 L2584.18 1328.52 L2584.18 1318.52 Z" fill="#000000" fill-rule="evenodd" fill-opacity="1" /><path clip-path="url(#clip700)" d="M 0 0 M2618.1 1275 Q2611.96 1275 2608.85 1281.06 Q2605.78 1287.08 2605.78 1299.2 Q2605.78 1311.28 2608.85 1317.34 Q2611.96 1323.37 2618.1 1323.37 Q2624.27 1323.37 2627.34 1317.34 Q2630.45 1311.28 2630.45 1299.2 Q2630.45 1287.08 2627.34 1281.06 Q2624.27 1275 2618.1 1275 M2618.1 1268.71 Q2627.97 1268.71 2633.17 1276.54 Q2638.4 1284.33 2638.4 1299.2 Q2638.4 1314.04 2633.17 1321.87 Q2627.97 1329.66 2618.1 1329.66 Q2608.22 1329.66 2602.99 1321.87 Q2597.79 1314.04 2597.79 1299.2 Q2597.79 1284.33 2602.99 1276.54 Q2608.22 1268.71 2618.1 1268.71 Z" fill="#000000" fill-rule="evenodd" fill-opacity="1" /><path clip-path="url(#clip700)" d="M 0 0 M1258.52 1410.81 Q1262.04 1412 1265.34 1415.9 Q1268.7 1419.79 1272.05 1426.61 L1283.14 1448.69 L1271.4 1448.69 L1261.07 1427.96 Q1257.06 1419.85 1253.27 1417.2 Q1249.54 1414.54 1243.05 1414.54 L1231.14 1414.54 L1231.14 1448.69 L1220.21 1448.69 L1220.21 1367.9 L1244.89 1367.9 Q1258.74 1367.9 1265.56 1373.69 Q1272.37 1379.48 1272.37 1391.17 Q1272.37 1398.8 1268.8 1403.83 Q1265.29 1408.86 1258.52 1410.81 M1231.14 1376.88 L1231.14 1405.56 L1244.89 1405.56 Q1252.79 1405.56 1256.79 1401.94 Q1260.85 1398.26 1260.85 1391.17 Q1260.85 1384.08 1256.79 1380.51 Q1252.79 1376.88 1244.89 1376.88 L1231.14 1376.88 Z" fill="#000000" fill-rule="evenodd" fill-opacity="1" /><path clip-path="url(#clip700)" d="M 0 0 M1287.58 1424.77 L1287.58 1388.09 L1297.54 1388.09 L1297.54 1424.39 Q1297.54 1433 1300.89 1437.32 Q1304.24 1441.6 1310.95 1441.6 Q1319.02 1441.6 1323.67 1436.46 Q1328.38 1431.32 1328.38 1422.44 L1328.38 1388.09 L1338.33 1388.09 L1338.33 1448.69 L1328.38 1448.69 L1328.38 1439.38 Q1324.75 1444.9 1319.94 1447.6 Q1315.17 1450.26 1308.84 1450.26 Q1298.4 1450.26 1292.99 1443.76 Q1287.58 1437.27 1287.58 1424.77 M1312.63 1386.62 L1312.63 1386.62 Z" fill="#000000" fill-rule="evenodd" fill-opacity="1" /><path clip-path="url(#clip700)" d="M 0 0 M1399.15 1412.11 L1399.15 1448.69 L1389.2 1448.69 L1389.2 1412.43 Q1389.2 1403.83 1385.84 1399.56 Q1382.49 1395.28 1375.78 1395.28 Q1367.71 1395.28 1363.06 1400.42 Q1358.41 1405.56 1358.41 1414.44 L1358.41 1448.69 L1348.4 1448.69 L1348.4 1388.09 L1358.41 1388.09 L1358.41 1397.5 Q1361.98 1392.04 1366.79 1389.33 Q1371.66 1386.62 1377.99 1386.62 Q1388.44 1386.62 1393.79 1393.12 Q1399.15 1399.56 1399.15 1412.11 Z" fill="#000000" fill-rule="evenodd" fill-opacity="1" /><path clip-path="url(#clip700)" d="M 0 0 M1459.97 1412.11 L1459.97 1448.69 L1450.01 1448.69 L1450.01 1412.43 Q1450.01 1403.83 1446.66 1399.56 Q1443.3 1395.28 1436.59 1395.28 Q1428.53 1395.28 1423.88 1400.42 Q1419.23 1405.56 1419.23 1414.44 L1419.23 1448.69 L1409.22 1448.69 L1409.22 1388.09 L1419.23 1388.09 L1419.23 1397.5 Q1422.8 1392.04 1427.61 1389.33 Q1432.48 1386.62 1438.81 1386.62 Q1449.26 1386.62 1454.61 1393.12 Q1459.97 1399.56 1459.97 1412.11 Z" fill="#000000" fill-rule="evenodd" fill-opacity="1" /><path clip-path="url(#clip700)" d="M 0 0 M1470.41 1388.09 L1480.37 1388.09 L1480.37 1448.69 L1470.41 1448.69 L1470.41 1388.09 M1470.41 1364.49 L1480.37 1364.49 L1480.37 1377.1 L1470.41 1377.1 L1470.41 1364.49 Z" fill="#000000" fill-rule="evenodd" fill-opacity="1" /><path clip-path="url(#clip700)" d="M 0 0 M1541.19 1412.11 L1541.19 1448.69 L1531.23 1448.69 L1531.23 1412.43 Q1531.23 1403.83 1527.88 1399.56 Q1524.52 1395.28 1517.81 1395.28 Q1509.75 1395.28 1505.1 1400.42 Q1500.44 1405.56 1500.44 1414.44 L1500.44 1448.69 L1490.43 1448.69 L1490.43 1388.09 L1500.44 1388.09 L1500.44 1397.5 Q1504.01 1392.04 1508.83 1389.33 Q1513.7 1386.62 1520.03 1386.62 Q1530.47 1386.62 1535.83 1393.12 Q1541.19 1399.56 1541.19 1412.11 Z" fill="#000000" fill-rule="evenodd" fill-opacity="1" /><path clip-path="url(#clip700)" d="M 0 0 M1591.51 1417.68 Q1591.51 1406.86 1587.02 1400.91 Q1582.58 1394.96 1574.52 1394.96 Q1566.51 1394.96 1562.02 1400.91 Q1557.58 1406.86 1557.58 1417.68 Q1557.58 1428.45 1562.02 1434.4 Q1566.51 1440.35 1574.52 1440.35 Q1582.58 1440.35 1587.02 1434.4 Q1591.51 1428.45 1591.51 1417.68 M1601.46 1441.17 Q1601.46 1456.64 1594.59 1464.16 Q1587.72 1471.74 1573.54 1471.74 Q1568.29 1471.74 1563.64 1470.93 Q1558.99 1470.17 1554.6 1468.54 L1554.6 1458.86 Q1558.99 1461.24 1563.26 1462.38 Q1567.54 1463.51 1571.97 1463.51 Q1581.77 1463.51 1586.64 1458.37 Q1591.51 1453.29 1591.51 1442.95 L1591.51 1438.03 Q1588.42 1443.38 1583.61 1446.04 Q1578.79 1448.69 1572.08 1448.69 Q1560.94 1448.69 1554.12 1440.19 Q1547.3 1431.7 1547.3 1417.68 Q1547.3 1403.61 1554.12 1395.12 Q1560.94 1386.62 1572.08 1386.62 Q1578.79 1386.62 1583.61 1389.28 Q1588.42 1391.93 1591.51 1397.28 L1591.51 1388.09 L1601.46 1388.09 L1601.46 1441.17 Z" fill="#000000" fill-rule="evenodd" fill-opacity="1" /><path clip-path="url(#clip700)" d="M 0 0 M1639.99 1388.09 L1650.54 1388.09 L1669.48 1438.95 L1688.42 1388.09 L1698.97 1388.09 L1676.24 1448.69 L1662.71 1448.69 L1639.99 1388.09 Z" fill="#000000" fill-rule="evenodd" fill-opacity="1" /><path clip-path="url(#clip700)" d="M 0 0 M1736.95 1418.22 Q1724.88 1418.22 1720.23 1420.98 Q1715.58 1423.74 1715.58 1430.4 Q1715.58 1435.7 1719.04 1438.84 Q1722.56 1441.92 1728.56 1441.92 Q1736.84 1441.92 1741.82 1436.08 Q1746.85 1430.18 1746.85 1420.44 L1746.85 1418.22 L1736.95 1418.22 M1756.81 1414.11 L1756.81 1448.69 L1746.85 1448.69 L1746.85 1439.49 Q1743.44 1445.01 1738.36 1447.66 Q1733.27 1450.26 1725.91 1450.26 Q1716.61 1450.26 1711.09 1445.06 Q1705.62 1439.81 1705.62 1431.05 Q1705.62 1420.82 1712.44 1415.63 Q1719.31 1410.43 1732.89 1410.43 L1746.85 1410.43 L1746.85 1409.46 Q1746.85 1402.59 1742.31 1398.85 Q1737.82 1395.07 1729.65 1395.07 Q1724.45 1395.07 1719.53 1396.31 Q1714.6 1397.55 1710.06 1400.04 L1710.06 1390.84 Q1715.52 1388.73 1720.66 1387.71 Q1725.8 1386.62 1730.67 1386.62 Q1743.82 1386.62 1750.32 1393.44 Q1756.81 1400.26 1756.81 1414.11 Z" fill="#000000" fill-rule="evenodd" fill-opacity="1" /><path clip-path="url(#clip700)" d="M 0 0 M1802.37 1397.39 Q1800.69 1396.42 1798.69 1395.98 Q1796.74 1395.5 1794.36 1395.5 Q1785.92 1395.5 1781.37 1401.02 Q1776.88 1406.48 1776.88 1416.76 L1776.88 1448.69 L1766.87 1448.69 L1766.87 1388.09 L1776.88 1388.09 L1776.88 1397.5 Q1780.02 1391.98 1785.05 1389.33 Q1790.08 1386.62 1797.28 1386.62 Q1798.31 1386.62 1799.55 1386.79 Q1800.8 1386.89 1802.31 1387.17 L1802.37 1397.39 Z" fill="#000000" fill-rule="evenodd" fill-opacity="1" /><path clip-path="url(#clip700)" d="M 0 0 M1812.81 1388.09 L1822.77 1388.09 L1822.77 1448.69 L1812.81 1448.69 L1812.81 1388.09 M1812.81 1364.49 L1822.77 1364.49 L1822.77 1377.1 L1812.81 1377.1 L1812.81 1364.49 Z" fill="#000000" fill-rule="evenodd" fill-opacity="1" /><path clip-path="url(#clip700)" d="M 0 0 M1860.75 1418.22 Q1848.68 1418.22 1844.03 1420.98 Q1839.38 1423.74 1839.38 1430.4 Q1839.38 1435.7 1842.84 1438.84 Q1846.36 1441.92 1852.36 1441.92 Q1860.64 1441.92 1865.62 1436.08 Q1870.65 1430.18 1870.65 1420.44 L1870.65 1418.22 L1860.75 1418.22 M1880.61 1414.11 L1880.61 1448.69 L1870.65 1448.69 L1870.65 1439.49 Q1867.24 1445.01 1862.16 1447.66 Q1857.07 1450.26 1849.71 1450.26 Q1840.41 1450.26 1834.89 1445.06 Q1829.42 1439.81 1829.42 1431.05 Q1829.42 1420.82 1836.24 1415.63 Q1843.11 1410.43 1856.69 1410.43 L1870.65 1410.43 L1870.65 1409.46 Q1870.65 1402.59 1866.11 1398.85 Q1861.62 1395.07 1853.45 1395.07 Q1848.25 1395.07 1843.33 1396.31 Q1838.4 1397.55 1833.86 1400.04 L1833.86 1390.84 Q1839.32 1388.73 1844.46 1387.71 Q1849.6 1386.62 1854.47 1386.62 Q1867.62 1386.62 1874.12 1393.44 Q1880.61 1400.26 1880.61 1414.11 Z" fill="#000000" fill-rule="evenodd" fill-opacity="1" /><path clip-path="url(#clip700)" d="M 0 0 M1934.55 1418.44 Q1934.55 1407.46 1930.01 1401.23 Q1925.52 1394.96 1917.62 1394.96 Q1909.72 1394.96 1905.17 1401.23 Q1900.68 1407.46 1900.68 1418.44 Q1900.68 1429.42 1905.17 1435.7 Q1909.72 1441.92 1917.62 1441.92 Q1925.52 1441.92 1930.01 1435.7 Q1934.55 1429.42 1934.55 1418.44 M1900.68 1397.28 Q1903.82 1391.87 1908.58 1389.28 Q1913.4 1386.62 1920.05 1386.62 Q1931.09 1386.62 1937.96 1395.39 Q1944.89 1404.16 1944.89 1418.44 Q1944.89 1432.72 1937.96 1441.49 Q1931.09 1450.26 1920.05 1450.26 Q1913.4 1450.26 1908.58 1447.66 Q1903.82 1445.01 1900.68 1439.6 L1900.68 1448.69 L1890.67 1448.69 L1890.67 1364.49 L1900.68 1364.49 L1900.68 1397.28 Z" fill="#000000" fill-rule="evenodd" fill-opacity="1" /><path clip-path="url(#clip700)" d="M 0 0 M1955.33 1364.49 L1965.29 1364.49 L1965.29 1448.69 L1955.33 1448.69 L1955.33 1364.49 Z" fill="#000000" fill-rule="evenodd" fill-opacity="1" /><path clip-path="url(#clip700)" d="M 0 0 M2027.57 1415.9 L2027.57 1420.77 L1981.79 1420.77 Q1982.44 1431.05 1987.96 1436.46 Q1993.53 1441.81 2003.43 1441.81 Q2009.17 1441.81 2014.53 1440.41 Q2019.94 1439 2025.24 1436.19 L2025.24 1445.6 Q2019.88 1447.88 2014.26 1449.07 Q2008.63 1450.26 2002.84 1450.26 Q1988.34 1450.26 1979.84 1441.81 Q1971.4 1433.37 1971.4 1418.98 Q1971.4 1404.1 1979.41 1395.39 Q1987.47 1386.62 2001.11 1386.62 Q2013.34 1386.62 2020.42 1394.52 Q2027.57 1402.37 2027.57 1415.9 M2017.61 1412.98 Q2017.5 1404.8 2013.01 1399.93 Q2008.58 1395.07 2001.22 1395.07 Q1992.88 1395.07 1987.85 1399.77 Q1982.87 1404.48 1982.12 1413.03 L2017.61 1412.98 Z" fill="#000000" fill-rule="evenodd" fill-opacity="1" /><polyline clip-path="url(#clip700)" style="stroke:#000000; stroke-width:6.8; stroke-opacity:1; fill:none" points="
  528.096,1235.62 528.096,80.315 
  "/>
<polyline clip-path="url(#clip700)" style="stroke:#000000; stroke-width:6.8; stroke-opacity:1; fill:none" points="
  528.096,1235.62 554.395,1235.62 
  "/>
<polyline clip-path="url(#clip700)" style="stroke:#000000; stroke-width:6.8; stroke-opacity:1; fill:none" points="
  528.096,1043.07 554.395,1043.07 
  "/>
<polyline clip-path="url(#clip700)" style="stroke:#000000; stroke-width:6.8; stroke-opacity:1; fill:none" points="
  528.096,850.517 554.395,850.517 
  "/>
<polyline clip-path="url(#clip700)" style="stroke:#000000; stroke-width:6.8; stroke-opacity:1; fill:none" points="
  528.096,657.966 554.395,657.966 
  "/>
<polyline clip-path="url(#clip700)" style="stroke:#000000; stroke-width:6.8; stroke-opacity:1; fill:none" points="
  528.096,465.416 554.395,465.416 
  "/>
<polyline clip-path="url(#clip700)" style="stroke:#000000; stroke-width:6.8; stroke-opacity:1; fill:none" points="
  528.096,272.865 554.395,272.865 
  "/>
<polyline clip-path="url(#clip700)" style="stroke:#000000; stroke-width:6.8; stroke-opacity:1; fill:none" points="
  528.096,80.315 554.395,80.315 
  "/>
<path clip-path="url(#clip700)" d="M 0 0 M465.791 1211.48 Q459.652 1211.48 456.543 1217.54 Q453.474 1223.56 453.474 1235.68 Q453.474 1247.76 456.543 1253.82 Q459.652 1259.84 465.791 1259.84 Q471.969 1259.84 475.039 1253.82 Q478.147 1247.76 478.147 1235.68 Q478.147 1223.56 475.039 1217.54 Q471.969 1211.48 465.791 1211.48 M465.791 1205.18 Q475.668 1205.18 480.863 1213.01 Q486.096 1220.8 486.096 1235.68 Q486.096 1250.51 480.863 1258.34 Q475.668 1266.14 465.791 1266.14 Q455.914 1266.14 450.68 1258.34 Q445.485 1250.51 445.485 1235.68 Q445.485 1220.8 450.68 1213.01 Q455.914 1205.18 465.791 1205.18 Z" fill="#000000" fill-rule="evenodd" fill-opacity="1" /><path clip-path="url(#clip700)" d="M 0 0 M360.407 1065.75 L373.393 1065.75 L373.393 1020.93 L359.266 1023.77 L359.266 1016.52 L373.315 1013.69 L381.264 1013.69 L381.264 1065.75 L394.25 1065.75 L394.25 1072.44 L360.407 1072.44 L360.407 1065.75 Z" fill="#000000" fill-rule="evenodd" fill-opacity="1" /><path clip-path="url(#clip700)" d="M 0 0 M419.868 1018.93 Q413.729 1018.93 410.62 1024.99 Q407.55 1031.01 407.55 1043.13 Q407.55 1055.21 410.62 1061.27 Q413.729 1067.29 419.868 1067.29 Q426.046 1067.29 429.115 1061.27 Q432.224 1055.21 432.224 1043.13 Q432.224 1031.01 429.115 1024.99 Q426.046 1018.93 419.868 1018.93 M419.868 1012.63 Q429.745 1012.63 434.939 1020.46 Q440.173 1028.25 440.173 1043.13 Q440.173 1057.96 434.939 1065.79 Q429.745 1073.58 419.868 1073.58 Q409.99 1073.58 404.756 1065.79 Q399.562 1057.96 399.562 1043.13 Q399.562 1028.25 404.756 1020.46 Q409.99 1012.63 419.868 1012.63 Z" fill="#000000" fill-rule="evenodd" fill-opacity="1" /><path clip-path="url(#clip700)" d="M 0 0 M465.791 1018.93 Q459.652 1018.93 456.543 1024.99 Q453.474 1031.01 453.474 1043.13 Q453.474 1055.21 456.543 1061.27 Q459.652 1067.29 465.791 1067.29 Q471.969 1067.29 475.039 1061.27 Q478.147 1055.21 478.147 1043.13 Q478.147 1031.01 475.039 1024.99 Q471.969 1018.93 465.791 1018.93 M465.791 1012.63 Q475.668 1012.63 480.863 1020.46 Q486.096 1028.25 486.096 1043.13 Q486.096 1057.96 480.863 1065.79 Q475.668 1073.58 465.791 1073.58 Q455.914 1073.58 450.68 1065.79 Q445.485 1057.96 445.485 1043.13 Q445.485 1028.25 450.68 1020.46 Q455.914 1012.63 465.791 1012.63 Z" fill="#000000" fill-rule="evenodd" fill-opacity="1" /><path clip-path="url(#clip700)" d="M 0 0 M366.507 873.203 L394.25 873.203 L394.25 879.893 L356.944 879.893 L356.944 873.203 Q361.47 868.52 369.261 860.65 Q377.092 852.74 379.099 850.458 Q382.916 846.169 384.412 843.217 Q385.946 840.226 385.946 837.354 Q385.946 832.671 382.641 829.72 Q379.375 826.768 374.102 826.768 Q370.363 826.768 366.192 828.067 Q362.06 829.365 357.338 832.002 L357.338 823.974 Q362.139 822.046 366.31 821.062 Q370.481 820.078 373.944 820.078 Q383.074 820.078 388.504 824.643 Q393.935 829.208 393.935 836.842 Q393.935 840.463 392.557 843.729 Q391.22 846.956 387.639 851.363 Q386.655 852.504 381.382 857.974 Q376.108 863.405 366.507 873.203 Z" fill="#000000" fill-rule="evenodd" fill-opacity="1" /><path clip-path="url(#clip700)" d="M 0 0 M419.868 826.375 Q413.729 826.375 410.62 832.435 Q407.55 838.456 407.55 850.576 Q407.55 862.657 410.62 868.717 Q413.729 874.738 419.868 874.738 Q426.046 874.738 429.115 868.717 Q432.224 862.657 432.224 850.576 Q432.224 838.456 429.115 832.435 Q426.046 826.375 419.868 826.375 M419.868 820.078 Q429.745 820.078 434.939 827.909 Q440.173 835.701 440.173 850.576 Q440.173 865.411 434.939 873.242 Q429.745 881.034 419.868 881.034 Q409.99 881.034 404.756 873.242 Q399.562 865.411 399.562 850.576 Q399.562 835.701 404.756 827.909 Q409.99 820.078 419.868 820.078 Z" fill="#000000" fill-rule="evenodd" fill-opacity="1" /><path clip-path="url(#clip700)" d="M 0 0 M465.791 826.375 Q459.652 826.375 456.543 832.435 Q453.474 838.456 453.474 850.576 Q453.474 862.657 456.543 868.717 Q459.652 874.738 465.791 874.738 Q471.969 874.738 475.039 868.717 Q478.147 862.657 478.147 850.576 Q478.147 838.456 475.039 832.435 Q471.969 826.375 465.791 826.375 M465.791 820.078 Q475.668 820.078 480.863 827.909 Q486.096 835.701 486.096 850.576 Q486.096 865.411 480.863 873.242 Q475.668 881.034 465.791 881.034 Q455.914 881.034 450.68 873.242 Q445.485 865.411 445.485 850.576 Q445.485 835.701 450.68 827.909 Q455.914 820.078 465.791 820.078 Z" fill="#000000" fill-rule="evenodd" fill-opacity="1" /><path clip-path="url(#clip700)" d="M 0 0 M382.129 655.664 Q387.835 656.884 391.023 660.741 Q394.25 664.597 394.25 670.264 Q394.25 678.961 388.268 683.722 Q382.287 688.484 371.268 688.484 Q367.569 688.484 363.634 687.736 Q359.738 687.028 355.567 685.572 L355.567 677.898 Q358.872 679.826 362.808 680.81 Q366.743 681.794 371.032 681.794 Q378.509 681.794 382.405 678.842 Q386.34 675.891 386.34 670.264 Q386.34 665.069 382.68 662.157 Q379.06 659.206 372.567 659.206 L365.72 659.206 L365.72 652.674 L372.882 652.674 Q378.745 652.674 381.854 650.352 Q384.963 647.991 384.963 643.583 Q384.963 639.058 381.736 636.657 Q378.548 634.218 372.567 634.218 Q369.301 634.218 365.562 634.926 Q361.824 635.634 357.338 637.13 L357.338 630.046 Q361.863 628.787 365.798 628.158 Q369.773 627.528 373.275 627.528 Q382.326 627.528 387.599 631.66 Q392.872 635.752 392.872 642.757 Q392.872 647.637 390.078 651.021 Q387.284 654.366 382.129 655.664 Z" fill="#000000" fill-rule="evenodd" fill-opacity="1" /><path clip-path="url(#clip700)" d="M 0 0 M419.868 633.824 Q413.729 633.824 410.62 639.884 Q407.55 645.905 407.55 658.025 Q407.55 670.106 410.62 676.167 Q413.729 682.187 419.868 682.187 Q426.046 682.187 429.115 676.167 Q432.224 670.106 432.224 658.025 Q432.224 645.905 429.115 639.884 Q426.046 633.824 419.868 633.824 M419.868 627.528 Q429.745 627.528 434.939 635.359 Q440.173 643.151 440.173 658.025 Q440.173 672.861 434.939 680.692 Q429.745 688.484 419.868 688.484 Q409.99 688.484 404.756 680.692 Q399.562 672.861 399.562 658.025 Q399.562 643.151 404.756 635.359 Q409.99 627.528 419.868 627.528 Z" fill="#000000" fill-rule="evenodd" fill-opacity="1" /><path clip-path="url(#clip700)" d="M 0 0 M465.791 633.824 Q459.652 633.824 456.543 639.884 Q453.474 645.905 453.474 658.025 Q453.474 670.106 456.543 676.167 Q459.652 682.187 465.791 682.187 Q471.969 682.187 475.039 676.167 Q478.147 670.106 478.147 658.025 Q478.147 645.905 475.039 639.884 Q471.969 633.824 465.791 633.824 M465.791 627.528 Q475.668 627.528 480.863 635.359 Q486.096 643.151 486.096 658.025 Q486.096 672.861 480.863 680.692 Q475.668 688.484 465.791 688.484 Q455.914 688.484 450.68 680.692 Q445.485 672.861 445.485 658.025 Q445.485 643.151 450.68 635.359 Q455.914 627.528 465.791 627.528 Z" fill="#000000" fill-rule="evenodd" fill-opacity="1" /><path clip-path="url(#clip700)" d="M 0 0 M377.958 442.966 L357.889 474.329 L377.958 474.329 L377.958 442.966 M375.872 436.04 L385.868 436.04 L385.868 474.329 L394.25 474.329 L394.25 480.94 L385.868 480.94 L385.868 494.792 L377.958 494.792 L377.958 480.94 L351.435 480.94 L351.435 473.267 L375.872 436.04 Z" fill="#000000" fill-rule="evenodd" fill-opacity="1" /><path clip-path="url(#clip700)" d="M 0 0 M419.868 441.274 Q413.729 441.274 410.62 447.334 Q407.55 453.355 407.55 465.475 Q407.55 477.556 410.62 483.616 Q413.729 489.637 419.868 489.637 Q426.046 489.637 429.115 483.616 Q432.224 477.556 432.224 465.475 Q432.224 453.355 429.115 447.334 Q426.046 441.274 419.868 441.274 M419.868 434.977 Q429.745 434.977 434.939 442.808 Q440.173 450.6 440.173 465.475 Q440.173 480.311 434.939 488.141 Q429.745 495.933 419.868 495.933 Q409.99 495.933 404.756 488.141 Q399.562 480.311 399.562 465.475 Q399.562 450.6 404.756 442.808 Q409.99 434.977 419.868 434.977 Z" fill="#000000" fill-rule="evenodd" fill-opacity="1" /><path clip-path="url(#clip700)" d="M 0 0 M465.791 441.274 Q459.652 441.274 456.543 447.334 Q453.474 453.355 453.474 465.475 Q453.474 477.556 456.543 483.616 Q459.652 489.637 465.791 489.637 Q471.969 489.637 475.039 483.616 Q478.147 477.556 478.147 465.475 Q478.147 453.355 475.039 447.334 Q471.969 441.274 465.791 441.274 M465.791 434.977 Q475.668 434.977 480.863 442.808 Q486.096 450.6 486.096 465.475 Q486.096 480.311 480.863 488.141 Q475.668 495.933 465.791 495.933 Q455.914 495.933 450.68 488.141 Q445.485 480.311 445.485 465.475 Q445.485 450.6 450.68 442.808 Q455.914 434.977 465.791 434.977 Z" fill="#000000" fill-rule="evenodd" fill-opacity="1" /><path clip-path="url(#clip700)" d="M 0 0 M358.715 243.489 L389.921 243.489 L389.921 250.179 L365.995 250.179 L365.995 264.582 Q367.727 263.992 369.458 263.716 Q371.19 263.401 372.921 263.401 Q382.759 263.401 388.504 268.793 Q394.25 274.184 394.25 283.392 Q394.25 292.876 388.347 298.149 Q382.444 303.383 371.701 303.383 Q368.002 303.383 364.146 302.753 Q360.328 302.123 356.236 300.864 L356.236 292.876 Q359.778 294.804 363.555 295.748 Q367.333 296.693 371.544 296.693 Q378.352 296.693 382.326 293.112 Q386.301 289.531 386.301 283.392 Q386.301 277.253 382.326 273.672 Q378.352 270.091 371.544 270.091 Q368.356 270.091 365.169 270.799 Q362.021 271.508 358.715 273.003 L358.715 243.489 Z" fill="#000000" fill-rule="evenodd" fill-opacity="1" /><path clip-path="url(#clip700)" d="M 0 0 M419.868 248.723 Q413.729 248.723 410.62 254.783 Q407.55 260.804 407.55 272.924 Q407.55 285.005 410.62 291.066 Q413.729 297.086 419.868 297.086 Q426.046 297.086 429.115 291.066 Q432.224 285.005 432.224 272.924 Q432.224 260.804 429.115 254.783 Q426.046 248.723 419.868 248.723 M419.868 242.427 Q429.745 242.427 434.939 250.258 Q440.173 258.05 440.173 272.924 Q440.173 287.76 434.939 295.591 Q429.745 303.383 419.868 303.383 Q409.99 303.383 404.756 295.591 Q399.562 287.76 399.562 272.924 Q399.562 258.05 404.756 250.258 Q409.99 242.427 419.868 242.427 Z" fill="#000000" fill-rule="evenodd" fill-opacity="1" /><path clip-path="url(#clip700)" d="M 0 0 M465.791 248.723 Q459.652 248.723 456.543 254.783 Q453.474 260.804 453.474 272.924 Q453.474 285.005 456.543 291.066 Q459.652 297.086 465.791 297.086 Q471.969 297.086 475.039 291.066 Q478.147 285.005 478.147 272.924 Q478.147 260.804 475.039 254.783 Q471.969 248.723 465.791 248.723 M465.791 242.427 Q475.668 242.427 480.863 250.258 Q486.096 258.05 486.096 272.924 Q486.096 287.76 480.863 295.591 Q475.668 303.383 465.791 303.383 Q455.914 303.383 450.68 295.591 Q445.485 287.76 445.485 272.924 Q445.485 258.05 450.68 250.258 Q455.914 242.427 465.791 242.427 Z" fill="#000000" fill-rule="evenodd" fill-opacity="1" /><path clip-path="url(#clip700)" d="M 0 0 M374.652 77.1472 Q369.301 77.1472 366.153 80.8069 Q363.044 84.4666 363.044 90.8415 Q363.044 97.1771 366.153 100.876 Q369.301 104.536 374.652 104.536 Q380.004 104.536 383.113 100.876 Q386.261 97.1771 386.261 90.8415 Q386.261 84.4666 383.113 80.8069 Q380.004 77.1472 374.652 77.1472 M390.432 52.2376 L390.432 59.4783 Q387.442 58.0616 384.372 57.3139 Q381.342 56.5662 378.352 56.5662 Q370.481 56.5662 366.31 61.8787 Q362.178 67.1912 361.588 77.9342 Q363.909 74.5106 367.412 72.7004 Q370.914 70.8509 375.125 70.8509 Q383.979 70.8509 389.095 76.2421 Q394.25 81.5939 394.25 90.8415 Q394.25 99.8924 388.898 105.362 Q383.546 110.832 374.652 110.832 Q364.46 110.832 359.069 103.041 Q353.678 95.2096 353.678 80.374 Q353.678 66.4435 360.289 58.1797 Q366.9 49.8765 378.037 49.8765 Q381.027 49.8765 384.058 50.4667 Q387.127 51.057 390.432 52.2376 Z" fill="#000000" fill-rule="evenodd" fill-opacity="1" /><path clip-path="url(#clip700)" d="M 0 0 M419.868 56.1727 Q413.729 56.1727 410.62 62.2329 Q407.55 68.2537 407.55 80.374 Q407.55 92.4549 410.62 98.5151 Q413.729 104.536 419.868 104.536 Q426.046 104.536 429.115 98.5151 Q432.224 92.4549 432.224 80.374 Q432.224 68.2537 429.115 62.2329 Q426.046 56.1727 419.868 56.1727 M419.868 49.8765 Q429.745 49.8765 434.939 57.7074 Q440.173 65.4991 440.173 80.374 Q440.173 95.2096 434.939 103.041 Q429.745 110.832 419.868 110.832 Q409.99 110.832 404.756 103.041 Q399.562 95.2096 399.562 80.374 Q399.562 65.4991 404.756 57.7074 Q409.99 49.8765 419.868 49.8765 Z" fill="#000000" fill-rule="evenodd" fill-opacity="1" /><path clip-path="url(#clip700)" d="M 0 0 M465.791 56.1727 Q459.652 56.1727 456.543 62.2329 Q453.474 68.2537 453.474 80.374 Q453.474 92.4549 456.543 98.5151 Q459.652 104.536 465.791 104.536 Q471.969 104.536 475.039 98.5151 Q478.147 92.4549 478.147 80.374 Q478.147 68.2537 475.039 62.2329 Q471.969 56.1727 465.791 56.1727 M465.791 49.8765 Q475.668 49.8765 480.863 57.7074 Q486.096 65.4991 486.096 80.374 Q486.096 95.2096 480.863 103.041 Q475.668 110.832 465.791 110.832 Q455.914 110.832 450.68 103.041 Q445.485 95.2096 445.485 80.374 Q445.485 65.4991 450.68 57.7074 Q455.914 49.8765 465.791 49.8765 Z" fill="#000000" fill-rule="evenodd" fill-opacity="1" /><path clip-path="url(#clip700)" d="M 0 0 M232.416 909.787 L232.416 863.362 L241.614 863.362 L241.614 898.857 L265.422 898.857 L265.422 866.825 L274.62 866.825 L274.62 898.857 L313.2 898.857 L313.2 909.787 L232.416 909.787 Z" fill="#000000" fill-rule="evenodd" fill-opacity="1" /><path clip-path="url(#clip700)" d="M 0 0 M261.905 825.865 Q260.931 827.542 260.498 829.544 Q260.011 831.492 260.011 833.873 Q260.011 842.314 265.53 846.859 Q270.995 851.35 281.276 851.35 L313.2 851.35 L313.2 861.36 L252.598 861.36 L252.598 851.35 L262.013 851.35 Q256.494 848.212 253.843 843.18 Q251.137 838.148 251.137 830.951 Q251.137 829.923 251.3 828.679 Q251.408 827.434 251.678 825.919 L261.905 825.865 Z" fill="#000000" fill-rule="evenodd" fill-opacity="1" /><path clip-path="url(#clip700)" d="M 0 0 M280.41 766.021 L285.28 766.021 L285.28 811.797 Q295.56 811.148 300.971 805.629 Q306.328 800.055 306.328 790.153 Q306.328 784.418 304.921 779.061 Q303.514 773.65 300.701 768.348 L310.116 768.348 Q312.388 773.704 313.579 779.332 Q314.769 784.959 314.769 790.749 Q314.769 805.25 306.328 813.745 Q297.887 822.186 283.494 822.186 Q268.614 822.186 259.903 814.178 Q251.137 806.115 251.137 792.48 Q251.137 780.252 259.037 773.163 Q266.883 766.021 280.41 766.021 M277.488 775.977 Q269.318 776.085 264.448 780.576 Q259.578 785.013 259.578 792.372 Q259.578 800.705 264.286 805.737 Q268.993 810.715 277.542 811.472 L277.488 775.977 Z" fill="#000000" fill-rule="evenodd" fill-opacity="1" /><path clip-path="url(#clip700)" d="M 0 0 M282.953 749.626 Q293.937 749.626 300.214 745.135 Q306.436 740.59 306.436 732.69 Q306.436 724.79 300.214 720.245 Q293.937 715.7 282.953 715.7 Q271.969 715.7 265.747 720.245 Q259.47 724.79 259.47 732.69 Q259.47 740.59 265.747 745.135 Q271.969 749.626 282.953 749.626 M304.11 715.7 Q309.52 718.838 312.172 723.654 Q314.769 728.416 314.769 735.125 Q314.769 746.109 306.003 753.035 Q297.238 759.907 282.953 759.907 Q268.669 759.907 259.903 753.035 Q251.137 746.109 251.137 735.125 Q251.137 728.416 253.789 723.654 Q256.386 718.838 261.797 715.7 L252.598 715.7 L252.598 705.744 L336.25 705.744 L336.25 715.7 L304.11 715.7 Z" fill="#000000" fill-rule="evenodd" fill-opacity="1" /><path clip-path="url(#clip700)" d="M 0 0 M289.284 696.329 L252.598 696.329 L252.598 686.373 L288.905 686.373 Q297.508 686.373 301.837 683.019 Q306.112 679.664 306.112 672.954 Q306.112 664.892 300.971 660.239 Q295.831 655.532 286.957 655.532 L252.598 655.532 L252.598 645.576 L313.2 645.576 L313.2 655.532 L303.893 655.532 Q309.412 659.157 312.118 663.972 Q314.769 668.734 314.769 675.065 Q314.769 685.508 308.276 690.918 Q301.783 696.329 289.284 696.329 M251.137 671.277 L251.137 671.277 Z" fill="#000000" fill-rule="evenodd" fill-opacity="1" /><path clip-path="url(#clip700)" d="M 0 0 M280.41 583.297 L285.28 583.297 L285.28 629.072 Q295.56 628.423 300.971 622.904 Q306.328 617.331 306.328 607.429 Q306.328 601.694 304.921 596.337 Q303.514 590.926 300.701 585.623 L310.116 585.623 Q312.388 590.98 313.579 596.607 Q314.769 602.235 314.769 608.024 Q314.769 622.525 306.328 631.02 Q297.887 639.461 283.494 639.461 Q268.614 639.461 259.903 631.453 Q251.137 623.391 251.137 609.756 Q251.137 597.527 259.037 590.439 Q266.883 583.297 280.41 583.297 M277.488 593.253 Q269.318 593.361 264.448 597.852 Q259.578 602.289 259.578 609.648 Q259.578 617.98 264.286 623.012 Q268.993 627.99 277.542 628.748 L277.488 593.253 Z" fill="#000000" fill-rule="evenodd" fill-opacity="1" /><path clip-path="url(#clip700)" d="M 0 0 M276.622 522.479 L313.2 522.479 L313.2 532.435 L276.947 532.435 Q268.344 532.435 264.069 535.789 Q259.795 539.144 259.795 545.854 Q259.795 553.916 264.935 558.569 Q270.075 563.222 278.949 563.222 L313.2 563.222 L313.2 573.232 L252.598 573.232 L252.598 563.222 L262.013 563.222 Q256.548 559.651 253.843 554.836 Q251.137 549.966 251.137 543.635 Q251.137 533.192 257.63 527.835 Q264.069 522.479 276.622 522.479 Z" fill="#000000" fill-rule="evenodd" fill-opacity="1" /><path clip-path="url(#clip700)" d="M 0 0 M254.925 468.424 L264.232 468.424 Q261.905 472.645 260.769 476.919 Q259.578 481.14 259.578 485.468 Q259.578 495.154 265.747 500.511 Q271.861 505.867 282.953 505.867 Q294.045 505.867 300.214 500.511 Q306.328 495.154 306.328 485.468 Q306.328 481.14 305.192 476.919 Q304.001 472.645 301.675 468.424 L310.873 468.424 Q312.821 472.591 313.795 477.082 Q314.769 481.519 314.769 486.551 Q314.769 500.24 306.166 508.302 Q297.562 516.364 282.953 516.364 Q268.127 516.364 259.632 508.248 Q251.137 500.078 251.137 485.901 Q251.137 481.302 252.111 476.919 Q253.031 472.537 254.925 468.424 Z" fill="#000000" fill-rule="evenodd" fill-opacity="1" /><path clip-path="url(#clip700)" d="M 0 0 M318.827 432.767 Q329.649 436.987 332.949 440.991 Q336.25 444.995 336.25 451.705 L336.25 459.659 L327.917 459.659 L327.917 453.815 Q327.917 449.703 325.969 447.43 Q324.022 445.158 316.771 442.398 L312.226 440.613 L252.598 465.124 L252.598 454.573 L299.997 435.635 L252.598 416.697 L252.598 406.145 L318.827 432.767 Z" fill="#000000" fill-rule="evenodd" fill-opacity="1" /><path clip-path="url(#clip702)" d="
M648.638 1029.59 L648.638 1235.62 L697.4 1235.62 L697.4 1029.59 L648.638 1029.59 L648.638 1029.59  Z
  " fill="#d3d3d3" fill-rule="evenodd" fill-opacity="1"/>
<polyline clip-path="url(#clip702)" style="stroke:#000000; stroke-width:2.04; stroke-opacity:1; fill:none" points="
  648.638,1029.59 648.638,1235.62 697.4,1235.62 697.4,1029.59 648.638,1029.59 
  "/>
<path clip-path="url(#clip702)" d="
M697.4 1224.06 L697.4 1235.62 L746.163 1235.62 L746.163 1224.06 L697.4 1224.06 L697.4 1224.06  Z
  " fill="#d3d3d3" fill-rule="evenodd" fill-opacity="1"/>
<polyline clip-path="url(#clip702)" style="stroke:#000000; stroke-width:2.04; stroke-opacity:1; fill:none" points="
  697.4,1224.06 697.4,1235.62 746.163,1235.62 746.163,1224.06 697.4,1224.06 
  "/>
<path clip-path="url(#clip702)" d="
M746.163 1210.59 L746.163 1235.62 L794.926 1235.62 L794.926 1210.59 L746.163 1210.59 L746.163 1210.59  Z
  " fill="#d3d3d3" fill-rule="evenodd" fill-opacity="1"/>
<polyline clip-path="url(#clip702)" style="stroke:#000000; stroke-width:2.04; stroke-opacity:1; fill:none" points="
  746.163,1210.59 746.163,1235.62 794.926,1235.62 794.926,1210.59 746.163,1210.59 
  "/>
<path clip-path="url(#clip702)" d="
M794.926 1216.36 L794.926 1235.62 L843.688 1235.62 L843.688 1216.36 L794.926 1216.36 L794.926 1216.36  Z
  " fill="#d3d3d3" fill-rule="evenodd" fill-opacity="1"/>
<polyline clip-path="url(#clip702)" style="stroke:#000000; stroke-width:2.04; stroke-opacity:1; fill:none" points="
  794.926,1216.36 794.926,1235.62 843.688,1235.62 843.688,1216.36 794.926,1216.36 
  "/>
<path clip-path="url(#clip702)" d="
M843.688 1225.99 L843.688 1235.62 L892.451 1235.62 L892.451 1225.99 L843.688 1225.99 L843.688 1225.99  Z
  " fill="#d3d3d3" fill-rule="evenodd" fill-opacity="1"/>
<polyline clip-path="url(#clip702)" style="stroke:#000000; stroke-width:2.04; stroke-opacity:1; fill:none" points="
  843.688,1225.99 843.688,1235.62 892.451,1235.62 892.451,1225.99 843.688,1225.99 
  "/>
<path clip-path="url(#clip702)" d="
M892.451 1199.03 L892.451 1235.62 L941.214 1235.62 L941.214 1199.03 L892.451 1199.03 L892.451 1199.03  Z
  " fill="#d3d3d3" fill-rule="evenodd" fill-opacity="1"/>
<polyline clip-path="url(#clip702)" style="stroke:#000000; stroke-width:2.04; stroke-opacity:1; fill:none" points="
  892.451,1199.03 892.451,1235.62 941.214,1235.62 941.214,1199.03 892.451,1199.03 
  "/>
<path clip-path="url(#clip702)" d="
M941.214 1185.55 L941.214 1235.62 L989.976 1235.62 L989.976 1185.55 L941.214 1185.55 L941.214 1185.55  Z
  " fill="#d3d3d3" fill-rule="evenodd" fill-opacity="1"/>
<polyline clip-path="url(#clip702)" style="stroke:#000000; stroke-width:2.04; stroke-opacity:1; fill:none" points="
  941.214,1185.55 941.214,1235.62 989.976,1235.62 989.976,1185.55 941.214,1185.55 
  "/>
<path clip-path="url(#clip702)" d="
M989.976 1179.78 L989.976 1235.62 L1038.74 1235.62 L1038.74 1179.78 L989.976 1179.78 L989.976 1179.78  Z
  " fill="#d3d3d3" fill-rule="evenodd" fill-opacity="1"/>
<polyline clip-path="url(#clip702)" style="stroke:#000000; stroke-width:2.04; stroke-opacity:1; fill:none" points="
  989.976,1179.78 989.976,1235.62 1038.74,1235.62 1038.74,1179.78 989.976,1179.78 
  "/>
<path clip-path="url(#clip702)" d="
M1038.74 1096.98 L1038.74 1235.62 L1087.5 1235.62 L1087.5 1096.98 L1038.74 1096.98 L1038.74 1096.98  Z
  " fill="#d3d3d3" fill-rule="evenodd" fill-opacity="1"/>
<polyline clip-path="url(#clip702)" style="stroke:#000000; stroke-width:2.04; stroke-opacity:1; fill:none" points="
  1038.74,1096.98 1038.74,1235.62 1087.5,1235.62 1087.5,1096.98 1038.74,1096.98 
  "/>
<path clip-path="url(#clip702)" d="
M1087.5 1064.25 L1087.5 1235.62 L1136.26 1235.62 L1136.26 1064.25 L1087.5 1064.25 L1087.5 1064.25  Z
  " fill="#d3d3d3" fill-rule="evenodd" fill-opacity="1"/>
<polyline clip-path="url(#clip702)" style="stroke:#000000; stroke-width:2.04; stroke-opacity:1; fill:none" points="
  1087.5,1064.25 1087.5,1235.62 1136.26,1235.62 1136.26,1064.25 1087.5,1064.25 
  "/>
<path clip-path="url(#clip702)" d="
M1136.26 966.047 L1136.26 1235.62 L1185.03 1235.62 L1185.03 966.047 L1136.26 966.047 L1136.26 966.047  Z
  " fill="#d3d3d3" fill-rule="evenodd" fill-opacity="1"/>
<polyline clip-path="url(#clip702)" style="stroke:#000000; stroke-width:2.04; stroke-opacity:1; fill:none" points="
  1136.26,966.047 1136.26,1235.62 1185.03,1235.62 1185.03,966.047 1136.26,966.047 
  "/>
<path clip-path="url(#clip702)" d="
M1185.03 912.133 L1185.03 1235.62 L1233.79 1235.62 L1233.79 912.133 L1185.03 912.133 L1185.03 912.133  Z
  " fill="#d3d3d3" fill-rule="evenodd" fill-opacity="1"/>
<polyline clip-path="url(#clip702)" style="stroke:#000000; stroke-width:2.04; stroke-opacity:1; fill:none" points="
  1185.03,912.133 1185.03,1235.62 1233.79,1235.62 1233.79,912.133 1185.03,912.133 
  "/>
<path clip-path="url(#clip702)" d="
M1233.79 902.506 L1233.79 1235.62 L1282.55 1235.62 L1282.55 902.506 L1233.79 902.506 L1233.79 902.506  Z
  " fill="#d3d3d3" fill-rule="evenodd" fill-opacity="1"/>
<polyline clip-path="url(#clip702)" style="stroke:#000000; stroke-width:2.04; stroke-opacity:1; fill:none" points="
  1233.79,902.506 1233.79,1235.62 1282.55,1235.62 1282.55,902.506 1233.79,902.506 
  "/>
<path clip-path="url(#clip702)" d="
M1282.55 785.05 L1282.55 1235.62 L1331.31 1235.62 L1331.31 785.05 L1282.55 785.05 L1282.55 785.05  Z
  " fill="#d3d3d3" fill-rule="evenodd" fill-opacity="1"/>
<polyline clip-path="url(#clip702)" style="stroke:#000000; stroke-width:2.04; stroke-opacity:1; fill:none" points="
  1282.55,785.05 1282.55,1235.62 1331.31,1235.62 1331.31,785.05 1282.55,785.05 
  "/>
<path clip-path="url(#clip702)" d="
M1331.31 742.689 L1331.31 1235.62 L1380.08 1235.62 L1380.08 742.689 L1331.31 742.689 L1331.31 742.689  Z
  " fill="#d3d3d3" fill-rule="evenodd" fill-opacity="1"/>
<polyline clip-path="url(#clip702)" style="stroke:#000000; stroke-width:2.04; stroke-opacity:1; fill:none" points="
  1331.31,742.689 1331.31,1235.62 1380.08,1235.62 1380.08,742.689 1331.31,742.689 
  "/>
<path clip-path="url(#clip702)" d="
M1380.08 742.689 L1380.08 1235.62 L1428.84 1235.62 L1428.84 742.689 L1380.08 742.689 L1380.08 742.689  Z
  " fill="#d3d3d3" fill-rule="evenodd" fill-opacity="1"/>
<polyline clip-path="url(#clip702)" style="stroke:#000000; stroke-width:2.04; stroke-opacity:1; fill:none" points="
  1380.08,742.689 1380.08,1235.62 1428.84,1235.62 1428.84,742.689 1380.08,742.689 
  "/>
<path clip-path="url(#clip702)" d="
M1428.84 731.136 L1428.84 1235.62 L1477.6 1235.62 L1477.6 731.136 L1428.84 731.136 L1428.84 731.136  Z
  " fill="#d3d3d3" fill-rule="evenodd" fill-opacity="1"/>
<polyline clip-path="url(#clip702)" style="stroke:#000000; stroke-width:2.04; stroke-opacity:1; fill:none" points="
  1428.84,731.136 1428.84,1235.62 1477.6,1235.62 1477.6,731.136 1428.84,731.136 
  "/>
<path clip-path="url(#clip702)" d="
M1477.6 677.221 L1477.6 1235.62 L1526.37 1235.62 L1526.37 677.221 L1477.6 677.221 L1477.6 677.221  Z
  " fill="#d3d3d3" fill-rule="evenodd" fill-opacity="1"/>
<polyline clip-path="url(#clip702)" style="stroke:#000000; stroke-width:2.04; stroke-opacity:1; fill:none" points="
  1477.6,677.221 1477.6,1235.62 1526.37,1235.62 1526.37,677.221 1477.6,677.221 
  "/>
<path clip-path="url(#clip702)" d="
M1526.37 667.594 L1526.37 1235.62 L1575.13 1235.62 L1575.13 667.594 L1526.37 667.594 L1526.37 667.594  Z
  " fill="#d3d3d3" fill-rule="evenodd" fill-opacity="1"/>
<polyline clip-path="url(#clip702)" style="stroke:#000000; stroke-width:2.04; stroke-opacity:1; fill:none" points="
  1526.37,667.594 1526.37,1235.62 1575.13,1235.62 1575.13,667.594 1526.37,667.594 
  "/>
<path clip-path="url(#clip702)" d="
M1575.13 677.221 L1575.13 1235.62 L1623.89 1235.62 L1623.89 677.221 L1575.13 677.221 L1575.13 677.221  Z
  " fill="#d3d3d3" fill-rule="evenodd" fill-opacity="1"/>
<polyline clip-path="url(#clip702)" style="stroke:#000000; stroke-width:2.04; stroke-opacity:1; fill:none" points="
  1575.13,677.221 1575.13,1235.62 1623.89,1235.62 1623.89,677.221 1575.13,677.221 
  "/>
<path clip-path="url(#clip702)" d="
M1623.89 615.605 L1623.89 1235.62 L1672.65 1235.62 L1672.65 615.605 L1623.89 615.605 L1623.89 615.605  Z
  " fill="#d3d3d3" fill-rule="evenodd" fill-opacity="1"/>
<polyline clip-path="url(#clip702)" style="stroke:#000000; stroke-width:2.04; stroke-opacity:1; fill:none" points="
  1623.89,615.605 1623.89,1235.62 1672.65,1235.62 1672.65,615.605 1623.89,615.605 
  "/>
<path clip-path="url(#clip702)" d="
M1672.65 629.084 L1672.65 1235.62 L1721.42 1235.62 L1721.42 629.084 L1672.65 629.084 L1672.65 629.084  Z
  " fill="#d3d3d3" fill-rule="evenodd" fill-opacity="1"/>
<polyline clip-path="url(#clip702)" style="stroke:#000000; stroke-width:2.04; stroke-opacity:1; fill:none" points="
  1672.65,629.084 1672.65,1235.62 1721.42,1235.62 1721.42,629.084 1672.65,629.084 
  "/>
<path clip-path="url(#clip702)" d="
M1721.42 729.21 L1721.42 1235.62 L1770.18 1235.62 L1770.18 729.21 L1721.42 729.21 L1721.42 729.21  Z
  " fill="#d3d3d3" fill-rule="evenodd" fill-opacity="1"/>
<polyline clip-path="url(#clip702)" style="stroke:#000000; stroke-width:2.04; stroke-opacity:1; fill:none" points="
  1721.42,729.21 1721.42,1235.62 1770.18,1235.62 1770.18,729.21 1721.42,729.21 
  "/>
<path clip-path="url(#clip702)" d="
M1770.18 752.316 L1770.18 1235.62 L1818.94 1235.62 L1818.94 752.316 L1770.18 752.316 L1770.18 752.316  Z
  " fill="#d3d3d3" fill-rule="evenodd" fill-opacity="1"/>
<polyline clip-path="url(#clip702)" style="stroke:#000000; stroke-width:2.04; stroke-opacity:1; fill:none" points="
  1770.18,752.316 1770.18,1235.62 1818.94,1235.62 1818.94,752.316 1770.18,752.316 
  "/>
<path clip-path="url(#clip702)" d="
M1818.94 754.242 L1818.94 1235.62 L1867.7 1235.62 L1867.7 754.242 L1818.94 754.242 L1818.94 754.242  Z
  " fill="#d3d3d3" fill-rule="evenodd" fill-opacity="1"/>
<polyline clip-path="url(#clip702)" style="stroke:#000000; stroke-width:2.04; stroke-opacity:1; fill:none" points="
  1818.94,754.242 1818.94,1235.62 1867.7,1235.62 1867.7,754.242 1818.94,754.242 
  "/>
<path clip-path="url(#clip702)" d="
M1867.7 725.359 L1867.7 1235.62 L1916.47 1235.62 L1916.47 725.359 L1867.7 725.359 L1867.7 725.359  Z
  " fill="#d3d3d3" fill-rule="evenodd" fill-opacity="1"/>
<polyline clip-path="url(#clip702)" style="stroke:#000000; stroke-width:2.04; stroke-opacity:1; fill:none" points="
  1867.7,725.359 1867.7,1235.62 1916.47,1235.62 1916.47,725.359 1867.7,725.359 
  "/>
<path clip-path="url(#clip702)" d="
M1916.47 756.167 L1916.47 1235.62 L1965.23 1235.62 L1965.23 756.167 L1916.47 756.167 L1916.47 756.167  Z
  " fill="#d3d3d3" fill-rule="evenodd" fill-opacity="1"/>
<polyline clip-path="url(#clip702)" style="stroke:#000000; stroke-width:2.04; stroke-opacity:1; fill:none" points="
  1916.47,756.167 1916.47,1235.62 1965.23,1235.62 1965.23,756.167 1916.47,756.167 
  "/>
<path clip-path="url(#clip702)" d="
M1965.23 798.528 L1965.23 1235.62 L2013.99 1235.62 L2013.99 798.528 L1965.23 798.528 L1965.23 798.528  Z
  " fill="#d3d3d3" fill-rule="evenodd" fill-opacity="1"/>
<polyline clip-path="url(#clip702)" style="stroke:#000000; stroke-width:2.04; stroke-opacity:1; fill:none" points="
  1965.23,798.528 1965.23,1235.62 2013.99,1235.62 2013.99,798.528 1965.23,798.528 
  "/>
<path clip-path="url(#clip702)" d="
M2013.99 802.379 L2013.99 1235.62 L2062.75 1235.62 L2062.75 802.379 L2013.99 802.379 L2013.99 802.379  Z
  " fill="#d3d3d3" fill-rule="evenodd" fill-opacity="1"/>
<polyline clip-path="url(#clip702)" style="stroke:#000000; stroke-width:2.04; stroke-opacity:1; fill:none" points="
  2013.99,802.379 2013.99,1235.62 2062.75,1235.62 2062.75,802.379 2013.99,802.379 
  "/>
<path clip-path="url(#clip702)" d="
M2062.75 858.219 L2062.75 1235.62 L2111.52 1235.62 L2111.52 858.219 L2062.75 858.219 L2062.75 858.219  Z
  " fill="#d3d3d3" fill-rule="evenodd" fill-opacity="1"/>
<polyline clip-path="url(#clip702)" style="stroke:#000000; stroke-width:2.04; stroke-opacity:1; fill:none" points="
  2062.75,858.219 2062.75,1235.62 2111.52,1235.62 2111.52,858.219 2062.75,858.219 
  "/>
<path clip-path="url(#clip702)" d="
M2111.52 958.345 L2111.52 1235.62 L2160.28 1235.62 L2160.28 958.345 L2111.52 958.345 L2111.52 958.345  Z
  " fill="#d3d3d3" fill-rule="evenodd" fill-opacity="1"/>
<polyline clip-path="url(#clip702)" style="stroke:#000000; stroke-width:2.04; stroke-opacity:1; fill:none" points="
  2111.52,958.345 2111.52,1235.62 2160.28,1235.62 2160.28,958.345 2111.52,958.345 
  "/>
<path clip-path="url(#clip702)" d="
M2160.28 1029.59 L2160.28 1235.62 L2209.04 1235.62 L2209.04 1029.59 L2160.28 1029.59 L2160.28 1029.59  Z
  " fill="#d3d3d3" fill-rule="evenodd" fill-opacity="1"/>
<polyline clip-path="url(#clip702)" style="stroke:#000000; stroke-width:2.04; stroke-opacity:1; fill:none" points="
  2160.28,1029.59 2160.28,1235.62 2209.04,1235.62 2209.04,1029.59 2160.28,1029.59 
  "/>
<path clip-path="url(#clip702)" d="
M2209.04 1048.84 L2209.04 1235.62 L2257.81 1235.62 L2257.81 1048.84 L2209.04 1048.84 L2209.04 1048.84  Z
  " fill="#d3d3d3" fill-rule="evenodd" fill-opacity="1"/>
<polyline clip-path="url(#clip702)" style="stroke:#000000; stroke-width:2.04; stroke-opacity:1; fill:none" points="
  2209.04,1048.84 2209.04,1235.62 2257.81,1235.62 2257.81,1048.84 2209.04,1048.84 
  "/>
<path clip-path="url(#clip702)" d="
M2257.81 1071.95 L2257.81 1235.62 L2306.57 1235.62 L2306.57 1071.95 L2257.81 1071.95 L2257.81 1071.95  Z
  " fill="#d3d3d3" fill-rule="evenodd" fill-opacity="1"/>
<polyline clip-path="url(#clip702)" style="stroke:#000000; stroke-width:2.04; stroke-opacity:1; fill:none" points="
  2257.81,1071.95 2257.81,1235.62 2306.57,1235.62 2306.57,1071.95 2257.81,1071.95 
  "/>
<path clip-path="url(#clip702)" d="
M2306.57 1106.61 L2306.57 1235.62 L2355.33 1235.62 L2355.33 1106.61 L2306.57 1106.61 L2306.57 1106.61  Z
  " fill="#d3d3d3" fill-rule="evenodd" fill-opacity="1"/>
<polyline clip-path="url(#clip702)" style="stroke:#000000; stroke-width:2.04; stroke-opacity:1; fill:none" points="
  2306.57,1106.61 2306.57,1235.62 2355.33,1235.62 2355.33,1106.61 2306.57,1106.61 
  "/>
<path clip-path="url(#clip702)" d="
M2355.33 1133.57 L2355.33 1235.62 L2404.09 1235.62 L2404.09 1133.57 L2355.33 1133.57 L2355.33 1133.57  Z
  " fill="#d3d3d3" fill-rule="evenodd" fill-opacity="1"/>
<polyline clip-path="url(#clip702)" style="stroke:#000000; stroke-width:2.04; stroke-opacity:1; fill:none" points="
  2355.33,1133.57 2355.33,1235.62 2404.09,1235.62 2404.09,1133.57 2355.33,1133.57 
  "/>
<path clip-path="url(#clip702)" d="
M2404.09 1150.9 L2404.09 1235.62 L2452.86 1235.62 L2452.86 1150.9 L2404.09 1150.9 L2404.09 1150.9  Z
  " fill="#d3d3d3" fill-rule="evenodd" fill-opacity="1"/>
<polyline clip-path="url(#clip702)" style="stroke:#000000; stroke-width:2.04; stroke-opacity:1; fill:none" points="
  2404.09,1150.9 2404.09,1235.62 2452.86,1235.62 2452.86,1150.9 2404.09,1150.9 
  "/>
<path clip-path="url(#clip702)" d="
M2452.86 1152.82 L2452.86 1235.62 L2501.62 1235.62 L2501.62 1152.82 L2452.86 1152.82 L2452.86 1152.82  Z
  " fill="#d3d3d3" fill-rule="evenodd" fill-opacity="1"/>
<polyline clip-path="url(#clip702)" style="stroke:#000000; stroke-width:2.04; stroke-opacity:1; fill:none" points="
  2452.86,1152.82 2452.86,1235.62 2501.62,1235.62 2501.62,1152.82 2452.86,1152.82 
  "/>
<path clip-path="url(#clip702)" d="
M2501.62 1154.75 L2501.62 1235.62 L2550.38 1235.62 L2550.38 1154.75 L2501.62 1154.75 L2501.62 1154.75  Z
  " fill="#d3d3d3" fill-rule="evenodd" fill-opacity="1"/>
<polyline clip-path="url(#clip702)" style="stroke:#000000; stroke-width:2.04; stroke-opacity:1; fill:none" points="
  2501.62,1154.75 2501.62,1235.62 2550.38,1235.62 2550.38,1154.75 2501.62,1154.75 
  "/>
<path clip-path="url(#clip702)" d="
M2550.38 132.304 L2550.38 1235.62 L2599.14 1235.62 L2599.14 132.304 L2550.38 132.304 L2550.38 132.304  Z
  " fill="#d3d3d3" fill-rule="evenodd" fill-opacity="1"/>
<polyline clip-path="url(#clip702)" style="stroke:#000000; stroke-width:2.04; stroke-opacity:1; fill:none" points="
  2550.38,132.304 2550.38,1235.62 2599.14,1235.62 2599.14,132.304 2550.38,132.304 
  "/>
<polyline clip-path="url(#clip702)" style="stroke:#800080; stroke-width:11.56; stroke-opacity:1; fill:none" stroke-dasharray="46, 29" points="
  1623.89,2390.92 1623.89,-1074.99 
  "/>
</svg>
