<?xml version="1.0" encoding="utf-8"?>
<svg xmlns="http://www.w3.org/2000/svg" xmlns:xlink="http://www.w3.org/1999/xlink" width="700" height="400" viewBox="0 0 2800 1600">
<defs>
  <clipPath id="clip550">
    <rect x="0" y="0" width="2800" height="1600"/>
  </clipPath>
</defs>
<path clip-path="url(#clip550)" d="
M0 1600 L2800 1600 L2800 0 L0 0  Z
  " fill="#f3f6f9" fill-rule="evenodd" fill-opacity="1"/>
<defs>
  <clipPath id="clip551">
    <rect x="560" y="0" width="1961" height="1600"/>
  </clipPath>
</defs>
<path clip-path="url(#clip550)" d="
M476.451 1235.62 L2719.69 1235.62 L2719.69 80.315 L476.451 80.315  Z
  " fill="#f3f6f9" fill-rule="evenodd" fill-opacity="1"/>
<defs>
  <clipPath id="clip552">
    <rect x="476" y="80" width="2244" height="1156"/>
  </clipPath>
</defs>
<polyline clip-path="url(#clip550)" style="stroke:#000000; stroke-width:6.8; stroke-opacity:1; fill:none" points="
  476.451,1235.62 2719.69,1235.62 
  "/>
<polyline clip-path="url(#clip550)" style="stroke:#000000; stroke-width:6.8; stroke-opacity:1; fill:none" points="
  550.416,1235.62 550.416,1221.75 
  "/>
<polyline clip-path="url(#clip550)" style="stroke:#000000; stroke-width:6.8; stroke-opacity:1; fill:none" points="
  1074.24,1235.62 1074.24,1221.75 
  "/>
<polyline clip-path="url(#clip550)" style="stroke:#000000; stroke-width:6.8; stroke-opacity:1; fill:none" points="
  1598.07,1235.62 1598.07,1221.75 
  "/>
<polyline clip-path="url(#clip550)" style="stroke:#000000; stroke-width:6.8; stroke-opacity:1; fill:none" points="
  2121.89,1235.62 2121.89,1221.75 
  "/>
<polyline clip-path="url(#clip550)" style="stroke:#000000; stroke-width:6.8; stroke-opacity:1; fill:none" points="
  2645.72,1235.62 2645.72,1221.75 
  "/>
<path clip-path="url(#clip550)" d="M 0 0 M471.85 1299.91 L522.299 1299.91 L522.299 1306.6 L471.85 1306.6 L471.85 1299.91 Z" fill="#000000" fill-rule="evenodd" fill-opacity="1" /><path clip-path="url(#clip550)" d="M 0 0 M532.294 1321.83 L545.28 1321.83 L545.28 1277.01 L531.153 1279.84 L531.153 1272.6 L545.201 1269.77 L553.15 1269.77 L553.15 1321.83 L566.136 1321.83 L566.136 1328.52 L532.294 1328.52 L532.294 1321.83 Z" fill="#000000" fill-rule="evenodd" fill-opacity="1" /><path clip-path="url(#clip550)" d="M 0 0 M574.755 1318.52 L583.058 1318.52 L583.058 1328.52 L574.755 1328.52 L574.755 1318.52 Z" fill="#000000" fill-rule="evenodd" fill-opacity="1" /><path clip-path="url(#clip550)" d="M 0 0 M608.676 1275 Q602.537 1275 599.428 1281.06 Q596.359 1287.08 596.359 1299.2 Q596.359 1311.28 599.428 1317.34 Q602.537 1323.37 608.676 1323.37 Q614.854 1323.37 617.923 1317.34 Q621.032 1311.28 621.032 1299.2 Q621.032 1287.08 617.923 1281.06 Q614.854 1275 608.676 1275 M608.676 1268.71 Q618.553 1268.71 623.747 1276.54 Q628.981 1284.33 628.981 1299.2 Q628.981 1314.04 623.747 1321.87 Q618.553 1329.66 608.676 1329.66 Q598.798 1329.66 593.565 1321.87 Q588.37 1314.04 588.37 1299.2 Q588.37 1284.33 593.565 1276.54 Q598.798 1268.71 608.676 1268.71 Z" fill="#000000" fill-rule="evenodd" fill-opacity="1" /><path clip-path="url(#clip550)" d="M 0 0 M995.48 1299.91 L1045.93 1299.91 L1045.93 1306.6 L995.48 1306.6 L995.48 1299.91 Z" fill="#000000" fill-rule="evenodd" fill-opacity="1" /><path clip-path="url(#clip550)" d="M 0 0 M1071.55 1275 Q1065.41 1275 1062.3 1281.06 Q1059.23 1287.08 1059.23 1299.2 Q1059.23 1311.28 1062.3 1317.34 Q1065.41 1323.37 1071.55 1323.37 Q1077.72 1323.37 1080.79 1317.34 Q1083.9 1311.28 1083.9 1299.2 Q1083.9 1287.08 1080.79 1281.06 Q1077.72 1275 1071.55 1275 M1071.55 1268.71 Q1081.42 1268.71 1086.62 1276.54 Q1091.85 1284.33 1091.85 1299.2 Q1091.85 1314.04 1086.62 1321.87 Q1081.42 1329.66 1071.55 1329.66 Q1061.67 1329.66 1056.44 1321.87 Q1051.24 1314.04 1051.24 1299.2 Q1051.24 1284.33 1056.44 1276.54 Q1061.67 1268.71 1071.55 1268.71 Z" fill="#000000" fill-rule="evenodd" fill-opacity="1" /><path clip-path="url(#clip550)" d="M 0 0 M1100.47 1318.52 L1108.77 1318.52 L1108.77 1328.52 L1100.47 1328.52 L1100.47 1318.52 Z" fill="#000000" fill-rule="evenodd" fill-opacity="1" /><path clip-path="url(#clip550)" d="M 0 0 M1117.47 1269.77 L1148.68 1269.77 L1148.68 1276.46 L1124.75 1276.46 L1124.75 1290.86 Q1126.48 1290.27 1128.21 1289.99 Q1129.94 1289.68 1131.68 1289.68 Q1141.51 1289.68 1147.26 1295.07 Q1153 1300.46 1153 1309.67 Q1153 1319.15 1147.1 1324.43 Q1141.2 1329.66 1130.46 1329.66 Q1126.76 1329.66 1122.9 1329.03 Q1119.08 1328.4 1114.99 1327.14 L1114.99 1319.15 Q1118.53 1321.08 1122.31 1322.03 Q1126.09 1322.97 1130.3 1322.97 Q1137.11 1322.97 1141.08 1319.39 Q1145.06 1315.81 1145.06 1309.67 Q1145.06 1303.53 1141.08 1299.95 Q1137.11 1296.37 1130.3 1296.37 Q1127.11 1296.37 1123.92 1297.08 Q1120.78 1297.79 1117.47 1299.28 L1117.47 1269.77 Z" fill="#000000" fill-rule="evenodd" fill-opacity="1" /><path clip-path="url(#clip550)" d="M 0 0 M1566.65 1275 Q1560.51 1275 1557.4 1281.06 Q1554.33 1287.08 1554.33 1299.2 Q1554.33 1311.28 1557.4 1317.34 Q1560.51 1323.37 1566.65 1323.37 Q1572.82 1323.37 1575.89 1317.34 Q1579 1311.28 1579 1299.2 Q1579 1287.08 1575.89 1281.06 Q1572.82 1275 1566.65 1275 M1566.65 1268.71 Q1576.52 1268.71 1581.72 1276.54 Q1586.95 1284.33 1586.95 1299.2 Q1586.95 1314.04 1581.72 1321.87 Q1576.52 1329.66 1566.65 1329.66 Q1556.77 1329.66 1551.53 1321.87 Q1546.34 1314.04 1546.34 1299.2 Q1546.34 1284.33 1551.53 1276.54 Q1556.77 1268.71 1566.65 1268.71 Z" fill="#000000" fill-rule="evenodd" fill-opacity="1" /><path clip-path="url(#clip550)" d="M 0 0 M1595.57 1318.52 L1603.87 1318.52 L1603.87 1328.52 L1595.57 1328.52 L1595.57 1318.52 Z" fill="#000000" fill-rule="evenodd" fill-opacity="1" /><path clip-path="url(#clip550)" d="M 0 0 M1629.49 1275 Q1623.35 1275 1620.24 1281.06 Q1617.17 1287.08 1617.17 1299.2 Q1617.17 1311.28 1620.24 1317.34 Q1623.35 1323.37 1629.49 1323.37 Q1635.67 1323.37 1638.74 1317.34 Q1641.85 1311.28 1641.85 1299.2 Q1641.85 1287.08 1638.74 1281.06 Q1635.67 1275 1629.49 1275 M1629.49 1268.71 Q1639.37 1268.71 1644.56 1276.54 Q1649.8 1284.33 1649.8 1299.2 Q1649.8 1314.04 1644.56 1321.87 Q1639.37 1329.66 1629.49 1329.66 Q1619.61 1329.66 1614.38 1321.87 Q1609.18 1314.04 1609.18 1299.2 Q1609.18 1284.33 1614.38 1276.54 Q1619.61 1268.71 1629.49 1268.71 Z" fill="#000000" fill-rule="evenodd" fill-opacity="1" /><path clip-path="url(#clip550)" d="M 0 0 M2091.32 1275 Q2085.18 1275 2082.07 1281.06 Q2079 1287.08 2079 1299.2 Q2079 1311.28 2082.07 1317.34 Q2085.18 1323.37 2091.32 1323.37 Q2097.5 1323.37 2100.57 1317.34 Q2103.67 1311.28 2103.67 1299.2 Q2103.67 1287.08 2100.57 1281.06 Q2097.5 1275 2091.32 1275 M2091.32 1268.71 Q2101.2 1268.71 2106.39 1276.54 Q2111.62 1284.33 2111.62 1299.2 Q2111.62 1314.04 2106.39 1321.87 Q2101.2 1329.66 2091.32 1329.66 Q2081.44 1329.66 2076.21 1321.87 Q2071.01 1314.04 2071.01 1299.2 Q2071.01 1284.33 2076.21 1276.54 Q2081.44 1268.71 2091.32 1268.71 Z" fill="#000000" fill-rule="evenodd" fill-opacity="1" /><path clip-path="url(#clip550)" d="M 0 0 M2120.24 1318.52 L2128.54 1318.52 L2128.54 1328.52 L2120.24 1328.52 L2120.24 1318.52 Z" fill="#000000" fill-rule="evenodd" fill-opacity="1" /><path clip-path="url(#clip550)" d="M 0 0 M2137.24 1269.77 L2168.45 1269.77 L2168.45 1276.46 L2144.52 1276.46 L2144.52 1290.86 Q2146.25 1290.27 2147.98 1289.99 Q2149.72 1289.68 2151.45 1289.68 Q2161.29 1289.68 2167.03 1295.07 Q2172.78 1300.46 2172.78 1309.67 Q2172.78 1319.15 2166.87 1324.43 Q2160.97 1329.66 2150.23 1329.66 Q2146.53 1329.66 2142.67 1329.03 Q2138.86 1328.4 2134.76 1327.14 L2134.76 1319.15 Q2138.3 1321.08 2142.08 1322.03 Q2145.86 1322.97 2150.07 1322.97 Q2156.88 1322.97 2160.85 1319.39 Q2164.83 1315.81 2164.83 1309.67 Q2164.83 1303.53 2160.85 1299.95 Q2156.88 1296.37 2150.07 1296.37 Q2146.88 1296.37 2143.7 1297.08 Q2140.55 1297.79 2137.24 1299.28 L2137.24 1269.77 Z" fill="#000000" fill-rule="evenodd" fill-opacity="1" /><path clip-path="url(#clip550)" d="M 0 0 M2597.95 1321.83 L2610.93 1321.83 L2610.93 1277.01 L2596.81 1279.84 L2596.81 1272.6 L2610.86 1269.77 L2618.8 1269.77 L2618.8 1321.83 L2631.79 1321.83 L2631.79 1328.52 L2597.95 1328.52 L2597.95 1321.83 Z" fill="#000000" fill-rule="evenodd" fill-opacity="1" /><path clip-path="url(#clip550)" d="M 0 0 M2640.41 1318.52 L2648.71 1318.52 L2648.71 1328.52 L2640.41 1328.52 L2640.41 1318.52 Z" fill="#000000" fill-rule="evenodd" fill-opacity="1" /><path clip-path="url(#clip550)" d="M 0 0 M2674.33 1275 Q2668.19 1275 2665.08 1281.06 Q2662.01 1287.08 2662.01 1299.2 Q2662.01 1311.28 2665.08 1317.34 Q2668.19 1323.37 2674.33 1323.37 Q2680.51 1323.37 2683.58 1317.34 Q2686.69 1311.28 2686.69 1299.2 Q2686.69 1287.08 2683.58 1281.06 Q2680.51 1275 2674.33 1275 M2674.33 1268.71 Q2684.21 1268.71 2689.4 1276.54 Q2694.63 1284.33 2694.63 1299.2 Q2694.63 1314.04 2689.4 1321.87 Q2684.21 1329.66 2674.33 1329.66 Q2664.45 1329.66 2659.22 1321.87 Q2654.02 1314.04 2654.02 1299.2 Q2654.02 1284.33 2659.22 1276.54 Q2664.45 1268.71 2674.33 1268.71 Z" fill="#000000" fill-rule="evenodd" fill-opacity="1" /><path clip-path="url(#clip550)" d="M 0 0 M1232.7 1410.81 Q1236.22 1412 1239.52 1415.9 Q1242.87 1419.79 1246.23 1426.61 L1257.32 1448.69 L1245.58 1448.69 L1235.24 1427.96 Q1231.24 1419.85 1227.45 1417.2 Q1223.72 1414.54 1217.23 1414.54 L1205.32 1414.54 L1205.32 1448.69 L1194.39 1448.69 L1194.39 1367.9 L1219.07 1367.9 Q1232.92 1367.9 1239.73 1373.69 Q1246.55 1379.48 1246.55 1391.17 Q1246.55 1398.8 1242.98 1403.83 Q1239.46 1408.86 1232.7 1410.81 M1205.32 1376.88 L1205.32 1405.56 L1219.07 1405.56 Q1226.96 1405.56 1230.97 1401.94 Q1235.03 1398.26 1235.03 1391.17 Q1235.03 1384.08 1230.97 1380.51 Q1226.96 1376.88 1219.07 1376.88 L1205.32 1376.88 Z" fill="#000000" fill-rule="evenodd" fill-opacity="1" /><path clip-path="url(#clip550)" d="M 0 0 M1261.76 1424.77 L1261.76 1388.09 L1271.71 1388.09 L1271.71 1424.39 Q1271.71 1433 1275.07 1437.32 Q1278.42 1441.6 1285.13 1441.6 Q1293.19 1441.6 1297.85 1436.46 Q1302.55 1431.32 1302.55 1422.44 L1302.55 1388.09 L1312.51 1388.09 L1312.51 1448.69 L1302.55 1448.69 L1302.55 1439.38 Q1298.93 1444.9 1294.11 1447.6 Q1289.35 1450.26 1283.02 1450.26 Q1272.58 1450.26 1267.17 1443.76 Q1261.76 1437.27 1261.76 1424.77 M1286.81 1386.62 L1286.81 1386.62 Z" fill="#000000" fill-rule="evenodd" fill-opacity="1" /><path clip-path="url(#clip550)" d="M 0 0 M1373.33 1412.11 L1373.33 1448.69 L1363.37 1448.69 L1363.37 1412.43 Q1363.37 1403.83 1360.02 1399.56 Q1356.66 1395.28 1349.95 1395.28 Q1341.89 1395.28 1337.24 1400.42 Q1332.58 1405.56 1332.58 1414.44 L1332.58 1448.69 L1322.57 1448.69 L1322.57 1388.09 L1332.58 1388.09 L1332.58 1397.5 Q1336.16 1392.04 1340.97 1389.33 Q1345.84 1386.62 1352.17 1386.62 Q1362.61 1386.62 1367.97 1393.12 Q1373.33 1399.56 1373.33 1412.11 Z" fill="#000000" fill-rule="evenodd" fill-opacity="1" /><path clip-path="url(#clip550)" d="M 0 0 M1434.15 1412.11 L1434.15 1448.69 L1424.19 1448.69 L1424.19 1412.43 Q1424.19 1403.83 1420.84 1399.56 Q1417.48 1395.28 1410.77 1395.28 Q1402.71 1395.28 1398.06 1400.42 Q1393.4 1405.56 1393.4 1414.44 L1393.4 1448.69 L1383.39 1448.69 L1383.39 1388.09 L1393.4 1388.09 L1393.4 1397.5 Q1396.97 1392.04 1401.79 1389.33 Q1406.66 1386.62 1412.99 1386.62 Q1423.43 1386.62 1428.79 1393.12 Q1434.15 1399.56 1434.15 1412.11 Z" fill="#000000" fill-rule="evenodd" fill-opacity="1" /><path clip-path="url(#clip550)" d="M 0 0 M1444.59 1388.09 L1454.55 1388.09 L1454.55 1448.69 L1444.59 1448.69 L1444.59 1388.09 M1444.59 1364.49 L1454.55 1364.49 L1454.55 1377.1 L1444.59 1377.1 L1444.59 1364.49 Z" fill="#000000" fill-rule="evenodd" fill-opacity="1" /><path clip-path="url(#clip550)" d="M 0 0 M1515.36 1412.11 L1515.36 1448.69 L1505.41 1448.69 L1505.41 1412.43 Q1505.41 1403.83 1502.05 1399.56 Q1498.7 1395.28 1491.99 1395.28 Q1483.93 1395.28 1479.27 1400.42 Q1474.62 1405.56 1474.62 1414.44 L1474.62 1448.69 L1464.61 1448.69 L1464.61 1388.09 L1474.62 1388.09 L1474.62 1397.5 Q1478.19 1392.04 1483.01 1389.33 Q1487.88 1386.62 1494.21 1386.62 Q1504.65 1386.62 1510.01 1393.12 Q1515.36 1399.56 1515.36 1412.11 Z" fill="#000000" fill-rule="evenodd" fill-opacity="1" /><path clip-path="url(#clip550)" d="M 0 0 M1565.68 1417.68 Q1565.68 1406.86 1561.19 1400.91 Q1556.76 1394.96 1548.69 1394.96 Q1540.69 1394.96 1536.2 1400.91 Q1531.76 1406.86 1531.76 1417.68 Q1531.76 1428.45 1536.2 1434.4 Q1540.69 1440.35 1548.69 1440.35 Q1556.76 1440.35 1561.19 1434.4 Q1565.68 1428.45 1565.68 1417.68 M1575.64 1441.17 Q1575.64 1456.64 1568.77 1464.16 Q1561.9 1471.74 1547.72 1471.74 Q1542.47 1471.74 1537.82 1470.93 Q1533.16 1470.17 1528.78 1468.54 L1528.78 1458.86 Q1533.16 1461.24 1537.44 1462.38 Q1541.71 1463.51 1546.15 1463.51 Q1555.94 1463.51 1560.81 1458.37 Q1565.68 1453.29 1565.68 1442.95 L1565.68 1438.03 Q1562.6 1443.38 1557.78 1446.04 Q1552.97 1448.69 1546.26 1448.69 Q1535.11 1448.69 1528.3 1440.19 Q1521.48 1431.7 1521.48 1417.68 Q1521.48 1403.61 1528.3 1395.12 Q1535.11 1386.62 1546.26 1386.62 Q1552.97 1386.62 1557.78 1389.28 Q1562.6 1391.93 1565.68 1397.28 L1565.68 1388.09 L1575.64 1388.09 L1575.64 1441.17 Z" fill="#000000" fill-rule="evenodd" fill-opacity="1" /><path clip-path="url(#clip550)" d="M 0 0 M1614.17 1388.09 L1624.72 1388.09 L1643.65 1438.95 L1662.59 1388.09 L1673.14 1388.09 L1650.42 1448.69 L1636.89 1448.69 L1614.17 1388.09 Z" fill="#000000" fill-rule="evenodd" fill-opacity="1" /><path clip-path="url(#clip550)" d="M 0 0 M1711.13 1418.22 Q1699.06 1418.22 1694.41 1420.98 Q1689.76 1423.74 1689.76 1430.4 Q1689.76 1435.7 1693.22 1438.84 Q1696.74 1441.92 1702.74 1441.92 Q1711.02 1441.92 1716 1436.08 Q1721.03 1430.18 1721.03 1420.44 L1721.03 1418.22 L1711.13 1418.22 M1730.99 1414.11 L1730.99 1448.69 L1721.03 1448.69 L1721.03 1439.49 Q1717.62 1445.01 1712.53 1447.66 Q1707.45 1450.26 1700.09 1450.26 Q1690.78 1450.26 1685.26 1445.06 Q1679.8 1439.81 1679.8 1431.05 Q1679.8 1420.82 1686.62 1415.63 Q1693.49 1410.43 1707.07 1410.43 L1721.03 1410.43 L1721.03 1409.46 Q1721.03 1402.59 1716.48 1398.85 Q1711.99 1395.07 1703.82 1395.07 Q1698.63 1395.07 1693.7 1396.31 Q1688.78 1397.55 1684.24 1400.04 L1684.24 1390.84 Q1689.7 1388.73 1694.84 1387.71 Q1699.98 1386.62 1704.85 1386.62 Q1718 1386.62 1724.49 1393.44 Q1730.99 1400.26 1730.99 1414.11 Z" fill="#000000" fill-rule="evenodd" fill-opacity="1" /><path clip-path="url(#clip550)" d="M 0 0 M1776.55 1397.39 Q1774.87 1396.42 1772.87 1395.98 Q1770.92 1395.5 1768.54 1395.5 Q1760.1 1395.5 1755.55 1401.02 Q1751.06 1406.48 1751.06 1416.76 L1751.06 1448.69 L1741.05 1448.69 L1741.05 1388.09 L1751.06 1388.09 L1751.06 1397.5 Q1754.2 1391.98 1759.23 1389.33 Q1764.26 1386.62 1771.46 1386.62 Q1772.49 1386.62 1773.73 1386.79 Q1774.98 1386.89 1776.49 1387.17 L1776.55 1397.39 Z" fill="#000000" fill-rule="evenodd" fill-opacity="1" /><path clip-path="url(#clip550)" d="M 0 0 M1786.99 1388.09 L1796.94 1388.09 L1796.94 1448.69 L1786.99 1448.69 L1786.99 1388.09 M1786.99 1364.49 L1796.94 1364.49 L1796.94 1377.1 L1786.99 1377.1 L1786.99 1364.49 Z" fill="#000000" fill-rule="evenodd" fill-opacity="1" /><path clip-path="url(#clip550)" d="M 0 0 M1834.93 1418.22 Q1822.86 1418.22 1818.21 1420.98 Q1813.56 1423.74 1813.56 1430.4 Q1813.56 1435.7 1817.02 1438.84 Q1820.54 1441.92 1826.54 1441.92 Q1834.82 1441.92 1839.8 1436.08 Q1844.83 1430.18 1844.83 1420.44 L1844.83 1418.22 L1834.93 1418.22 M1854.79 1414.11 L1854.79 1448.69 L1844.83 1448.69 L1844.83 1439.49 Q1841.42 1445.01 1836.33 1447.66 Q1831.25 1450.26 1823.89 1450.26 Q1814.58 1450.26 1809.06 1445.06 Q1803.6 1439.81 1803.6 1431.05 Q1803.6 1420.82 1810.42 1415.63 Q1817.29 1410.43 1830.87 1410.43 L1844.83 1410.43 L1844.83 1409.46 Q1844.83 1402.59 1840.28 1398.85 Q1835.79 1395.07 1827.62 1395.07 Q1822.43 1395.07 1817.51 1396.31 Q1812.58 1397.55 1808.04 1400.04 L1808.04 1390.84 Q1813.5 1388.73 1818.64 1387.71 Q1823.78 1386.62 1828.65 1386.62 Q1841.8 1386.62 1848.29 1393.44 Q1854.79 1400.26 1854.79 1414.11 Z" fill="#000000" fill-rule="evenodd" fill-opacity="1" /><path clip-path="url(#clip550)" d="M 0 0 M1908.73 1418.44 Q1908.73 1407.46 1904.19 1401.23 Q1899.7 1394.96 1891.8 1394.96 Q1883.9 1394.96 1879.35 1401.23 Q1874.86 1407.46 1874.86 1418.44 Q1874.86 1429.42 1879.35 1435.7 Q1883.9 1441.92 1891.8 1441.92 Q1899.7 1441.92 1904.19 1435.7 Q1908.73 1429.42 1908.73 1418.44 M1874.86 1397.28 Q1878 1391.87 1882.76 1389.28 Q1887.58 1386.62 1894.23 1386.62 Q1905.27 1386.62 1912.14 1395.39 Q1919.07 1404.16 1919.07 1418.44 Q1919.07 1432.72 1912.14 1441.49 Q1905.27 1450.26 1894.23 1450.26 Q1887.58 1450.26 1882.76 1447.66 Q1878 1445.01 1874.86 1439.6 L1874.86 1448.69 L1864.85 1448.69 L1864.85 1364.49 L1874.86 1364.49 L1874.86 1397.28 Z" fill="#000000" fill-rule="evenodd" fill-opacity="1" /><path clip-path="url(#clip550)" d="M 0 0 M1929.51 1364.49 L1939.47 1364.49 L1939.47 1448.69 L1929.51 1448.69 L1929.51 1364.49 Z" fill="#000000" fill-rule="evenodd" fill-opacity="1" /><path clip-path="url(#clip550)" d="M 0 0 M2001.74 1415.9 L2001.74 1420.77 L1955.97 1420.77 Q1956.62 1431.05 1962.14 1436.46 Q1967.71 1441.81 1977.61 1441.81 Q1983.35 1441.81 1988.7 1440.41 Q1994.12 1439 1999.42 1436.19 L1999.42 1445.6 Q1994.06 1447.88 1988.43 1449.07 Q1982.81 1450.26 1977.02 1450.26 Q1962.52 1450.26 1954.02 1441.81 Q1945.58 1433.37 1945.58 1418.98 Q1945.58 1404.1 1953.59 1395.39 Q1961.65 1386.62 1975.29 1386.62 Q1987.51 1386.62 1994.6 1394.52 Q2001.74 1402.37 2001.74 1415.9 M1991.79 1412.98 Q1991.68 1404.8 1987.19 1399.93 Q1982.75 1395.07 1975.39 1395.07 Q1967.06 1395.07 1962.03 1399.77 Q1957.05 1404.48 1956.29 1413.03 L1991.79 1412.98 Z" fill="#000000" fill-rule="evenodd" fill-opacity="1" /><polyline clip-path="url(#clip550)" style="stroke:#000000; stroke-width:6.8; stroke-opacity:1; fill:none" points="
  476.451,1235.62 476.451,80.315 
  "/>
<polyline clip-path="url(#clip550)" style="stroke:#000000; stroke-width:6.8; stroke-opacity:1; fill:none" points="
  476.451,1029.09 503.37,1029.09 
  "/>
<polyline clip-path="url(#clip550)" style="stroke:#000000; stroke-width:6.8; stroke-opacity:1; fill:none" points="
  476.451,768.382 503.37,768.382 
  "/>
<polyline clip-path="url(#clip550)" style="stroke:#000000; stroke-width:6.8; stroke-opacity:1; fill:none" points="
  476.451,507.672 503.37,507.672 
  "/>
<polyline clip-path="url(#clip550)" style="stroke:#000000; stroke-width:6.8; stroke-opacity:1; fill:none" points="
  476.451,246.962 503.37,246.962 
  "/>
<path clip-path="url(#clip550)" d="M 0 0 M354.016 1004.95 Q347.878 1004.95 344.769 1011.01 Q341.699 1017.03 341.699 1029.15 Q341.699 1041.23 344.769 1047.29 Q347.878 1053.31 354.016 1053.31 Q360.195 1053.31 363.264 1047.29 Q366.373 1041.23 366.373 1029.15 Q366.373 1017.03 363.264 1011.01 Q360.195 1004.95 354.016 1004.95 M354.016 998.654 Q363.894 998.654 369.088 1006.48 Q374.322 1014.28 374.322 1029.15 Q374.322 1043.99 369.088 1051.82 Q363.894 1059.61 354.016 1059.61 Q344.139 1059.61 338.905 1051.82 Q333.711 1043.99 333.711 1029.15 Q333.711 1014.28 338.905 1006.48 Q344.139 998.654 354.016 998.654 Z" fill="#000000" fill-rule="evenodd" fill-opacity="1" /><path clip-path="url(#clip550)" d="M 0 0 M382.94 1048.47 L391.243 1048.47 L391.243 1058.47 L382.94 1058.47 L382.94 1048.47 Z" fill="#000000" fill-rule="evenodd" fill-opacity="1" /><path clip-path="url(#clip550)" d="M 0 0 M406.708 1051.78 L434.451 1051.78 L434.451 1058.47 L397.146 1058.47 L397.146 1051.78 Q401.671 1047.1 409.463 1039.23 Q417.294 1031.32 419.301 1029.03 Q423.118 1024.74 424.613 1021.79 Q426.148 1018.8 426.148 1015.93 Q426.148 1011.25 422.843 1008.29 Q419.576 1005.34 414.303 1005.34 Q410.565 1005.34 406.394 1006.64 Q402.262 1007.94 397.539 1010.58 L397.539 1002.55 Q402.34 1000.62 406.512 999.637 Q410.683 998.654 414.146 998.654 Q423.275 998.654 428.706 1003.22 Q434.136 1007.78 434.136 1015.42 Q434.136 1019.04 432.759 1022.3 Q431.421 1025.53 427.84 1029.94 Q426.856 1031.08 421.583 1036.55 Q416.31 1041.98 406.708 1051.78 Z" fill="#000000" fill-rule="evenodd" fill-opacity="1" /><path clip-path="url(#clip550)" d="M 0 0 M350.475 744.24 Q344.336 744.24 341.227 750.3 Q338.158 756.321 338.158 768.441 Q338.158 780.522 341.227 786.582 Q344.336 792.603 350.475 792.603 Q356.653 792.603 359.722 786.582 Q362.831 780.522 362.831 768.441 Q362.831 756.321 359.722 750.3 Q356.653 744.24 350.475 744.24 M350.475 737.943 Q360.352 737.943 365.547 745.774 Q370.78 753.566 370.78 768.441 Q370.78 783.277 365.547 791.108 Q360.352 798.899 350.475 798.899 Q340.598 798.899 335.364 791.108 Q330.169 783.277 330.169 768.441 Q330.169 753.566 335.364 745.774 Q340.598 737.943 350.475 737.943 Z" fill="#000000" fill-rule="evenodd" fill-opacity="1" /><path clip-path="url(#clip550)" d="M 0 0 M379.398 787.763 L387.701 787.763 L387.701 797.758 L379.398 797.758 L379.398 787.763 Z" fill="#000000" fill-rule="evenodd" fill-opacity="1" /><path clip-path="url(#clip550)" d="M 0 0 M418.16 745.932 L398.09 777.295 L418.16 777.295 L418.16 745.932 M416.074 739.006 L426.069 739.006 L426.069 777.295 L434.451 777.295 L434.451 783.906 L426.069 783.906 L426.069 797.758 L418.16 797.758 L418.16 783.906 L391.637 783.906 L391.637 776.233 L416.074 739.006 Z" fill="#000000" fill-rule="evenodd" fill-opacity="1" /><path clip-path="url(#clip550)" d="M 0 0 M351.026 483.53 Q344.887 483.53 341.778 489.59 Q338.709 495.611 338.709 507.731 Q338.709 519.812 341.778 525.872 Q344.887 531.893 351.026 531.893 Q357.204 531.893 360.273 525.872 Q363.382 519.812 363.382 507.731 Q363.382 495.611 360.273 489.59 Q357.204 483.53 351.026 483.53 M351.026 477.233 Q360.903 477.233 366.097 485.064 Q371.331 492.856 371.331 507.731 Q371.331 522.566 366.097 530.397 Q360.903 538.189 351.026 538.189 Q341.148 538.189 335.915 530.397 Q330.72 522.566 330.72 507.731 Q330.72 492.856 335.915 485.064 Q341.148 477.233 351.026 477.233 Z" fill="#000000" fill-rule="evenodd" fill-opacity="1" /><path clip-path="url(#clip550)" d="M 0 0 M379.949 527.052 L388.252 527.052 L388.252 537.048 L379.949 537.048 L379.949 527.052 Z" fill="#000000" fill-rule="evenodd" fill-opacity="1" /><path clip-path="url(#clip550)" d="M 0 0 M414.854 504.504 Q409.502 504.504 406.354 508.164 Q403.245 511.823 403.245 518.198 Q403.245 524.534 406.354 528.233 Q409.502 531.893 414.854 531.893 Q420.206 531.893 423.315 528.233 Q426.463 524.534 426.463 518.198 Q426.463 511.823 423.315 508.164 Q420.206 504.504 414.854 504.504 M430.634 479.594 L430.634 486.835 Q427.643 485.418 424.574 484.671 Q421.544 483.923 418.553 483.923 Q410.683 483.923 406.512 489.236 Q402.38 494.548 401.789 505.291 Q404.111 501.867 407.613 500.057 Q411.116 498.208 415.326 498.208 Q424.18 498.208 429.296 503.599 Q434.451 508.951 434.451 518.198 Q434.451 527.249 429.099 532.719 Q423.748 538.189 414.854 538.189 Q404.662 538.189 399.271 530.397 Q393.88 522.566 393.88 507.731 Q393.88 493.8 400.491 485.536 Q407.102 477.233 418.238 477.233 Q421.229 477.233 424.259 477.824 Q427.329 478.414 430.634 479.594 Z" fill="#000000" fill-rule="evenodd" fill-opacity="1" /><path clip-path="url(#clip550)" d="M 0 0 M351.459 222.819 Q345.32 222.819 342.211 228.88 Q339.142 234.9 339.142 247.021 Q339.142 259.102 342.211 265.162 Q345.32 271.183 351.459 271.183 Q357.637 271.183 360.706 265.162 Q363.815 259.102 363.815 247.021 Q363.815 234.9 360.706 228.88 Q357.637 222.819 351.459 222.819 M351.459 216.523 Q361.336 216.523 366.53 224.354 Q371.764 232.146 371.764 247.021 Q371.764 261.856 366.53 269.687 Q361.336 277.479 351.459 277.479 Q341.581 277.479 336.348 269.687 Q331.153 261.856 331.153 247.021 Q331.153 232.146 336.348 224.354 Q341.581 216.523 351.459 216.523 Z" fill="#000000" fill-rule="evenodd" fill-opacity="1" /><path clip-path="url(#clip550)" d="M 0 0 M380.382 266.342 L388.685 266.342 L388.685 276.338 L380.382 276.338 L380.382 266.342 Z" fill="#000000" fill-rule="evenodd" fill-opacity="1" /><path clip-path="url(#clip550)" d="M 0 0 M414.303 248.437 Q408.637 248.437 405.37 251.467 Q402.144 254.497 402.144 259.81 Q402.144 265.122 405.37 268.153 Q408.637 271.183 414.303 271.183 Q419.97 271.183 423.236 268.153 Q426.502 265.083 426.502 259.81 Q426.502 254.497 423.236 251.467 Q420.009 248.437 414.303 248.437 M406.354 245.053 Q401.238 243.794 398.366 240.292 Q395.532 236.789 395.532 231.752 Q395.532 224.708 400.53 220.616 Q405.567 216.523 414.303 216.523 Q423.079 216.523 428.076 220.616 Q433.074 224.708 433.074 231.752 Q433.074 236.789 430.201 240.292 Q427.368 243.794 422.292 245.053 Q428.037 246.391 431.224 250.287 Q434.451 254.183 434.451 259.81 Q434.451 268.349 429.217 272.914 Q424.023 277.479 414.303 277.479 Q404.583 277.479 399.35 272.914 Q394.155 268.349 394.155 259.81 Q394.155 254.183 397.382 250.287 Q400.609 246.391 406.354 245.053 M403.442 232.5 Q403.442 237.065 406.275 239.623 Q409.148 242.18 414.303 242.18 Q419.419 242.18 422.292 239.623 Q425.204 237.065 425.204 232.5 Q425.204 227.935 422.292 225.377 Q419.419 222.819 414.303 222.819 Q409.148 222.819 406.275 225.377 Q403.442 227.935 403.442 232.5 Z" fill="#000000" fill-rule="evenodd" fill-opacity="1" /><path clip-path="url(#clip550)" d="M 0 0 M254.058 856.653 Q255.249 853.136 259.144 849.835 Q263.04 846.48 269.858 843.126 L291.934 832.033 L291.934 843.775 L271.211 854.11 Q263.094 858.114 260.443 861.901 Q257.792 865.635 257.792 872.128 L257.792 884.032 L291.934 884.032 L291.934 894.962 L211.15 894.962 L211.15 870.288 Q211.15 856.436 216.94 849.619 Q222.729 842.801 234.417 842.801 Q242.046 842.801 247.078 846.372 Q252.11 849.889 254.058 856.653 M220.132 884.032 L248.81 884.032 L248.81 870.288 Q248.81 862.388 245.184 858.384 Q241.505 854.326 234.417 854.326 Q227.329 854.326 223.757 858.384 Q220.132 862.388 220.132 870.288 L220.132 884.032 Z" fill="#000000" fill-rule="evenodd" fill-opacity="1" /><path clip-path="url(#clip550)" d="M 0 0 M259.144 774.733 L264.014 774.733 L264.014 820.508 Q274.295 819.859 279.706 814.34 Q285.062 808.767 285.062 798.865 Q285.062 793.129 283.656 787.773 Q282.249 782.362 279.435 777.059 L288.85 777.059 Q291.123 782.416 292.313 788.043 Q293.503 793.671 293.503 799.46 Q293.503 813.961 285.062 822.456 Q276.621 830.897 262.229 830.897 Q247.349 830.897 238.637 822.889 Q229.872 814.827 229.872 801.192 Q229.872 788.963 237.772 781.875 Q245.617 774.733 259.144 774.733 M256.223 784.689 Q248.052 784.797 243.182 789.288 Q238.313 793.725 238.313 801.083 Q238.313 809.416 243.02 814.448 Q247.728 819.426 256.277 820.184 L256.223 784.689 Z" fill="#000000" fill-rule="evenodd" fill-opacity="1" /><path clip-path="url(#clip550)" d="M 0 0 M233.118 725.656 L242.533 725.656 Q240.369 729.877 239.287 734.422 Q238.204 738.967 238.204 743.837 Q238.204 751.249 240.477 754.983 Q242.75 758.662 247.295 758.662 Q250.758 758.662 252.76 756.011 Q254.708 753.36 256.493 745.352 L257.251 741.943 Q259.523 731.338 263.69 726.901 Q267.802 722.41 275.215 722.41 Q283.656 722.41 288.579 729.119 Q293.503 735.774 293.503 747.462 Q293.503 752.332 292.529 757.634 Q291.61 762.883 289.716 768.727 L279.435 768.727 Q282.303 763.207 283.764 757.851 Q285.171 752.494 285.171 747.245 Q285.171 740.211 282.79 736.424 Q280.355 732.636 275.972 732.636 Q271.914 732.636 269.75 735.396 Q267.585 738.101 265.583 747.354 L264.772 750.817 Q262.824 760.069 258.82 764.181 Q254.762 768.294 247.728 768.294 Q239.178 768.294 234.525 762.233 Q229.872 756.173 229.872 745.027 Q229.872 739.508 230.683 734.638 Q231.495 729.768 233.118 725.656 Z" fill="#000000" fill-rule="evenodd" fill-opacity="1" /><path clip-path="url(#clip550)" d="M 0 0 M282.844 702.335 L314.984 702.335 L314.984 712.345 L231.333 712.345 L231.333 702.335 L240.531 702.335 Q235.12 699.197 232.523 694.436 Q229.872 689.62 229.872 682.965 Q229.872 671.926 238.637 665.055 Q247.403 658.129 261.688 658.129 Q275.972 658.129 284.738 665.055 Q293.503 671.926 293.503 682.965 Q293.503 689.62 290.906 694.436 Q288.255 699.197 282.844 702.335 M261.688 668.463 Q250.704 668.463 244.481 673.009 Q238.204 677.5 238.204 685.399 Q238.204 693.299 244.481 697.844 Q250.704 702.335 261.688 702.335 Q272.672 702.335 278.948 697.844 Q285.171 693.299 285.171 685.399 Q285.171 677.5 278.948 673.009 Q272.672 668.463 261.688 668.463 Z" fill="#000000" fill-rule="evenodd" fill-opacity="1" /><path clip-path="url(#clip550)" d="M 0 0 M238.313 624.203 Q238.313 632.211 244.589 636.864 Q250.812 641.517 261.688 641.517 Q272.563 641.517 278.84 636.918 Q285.062 632.265 285.062 624.203 Q285.062 616.249 278.786 611.595 Q272.509 606.942 261.688 606.942 Q250.92 606.942 244.643 611.595 Q238.313 616.249 238.313 624.203 M229.872 624.203 Q229.872 611.217 238.313 603.804 Q246.754 596.391 261.688 596.391 Q276.567 596.391 285.062 603.804 Q293.503 611.217 293.503 624.203 Q293.503 637.243 285.062 644.656 Q276.567 652.014 261.688 652.014 Q246.754 652.014 238.313 644.656 Q229.872 637.243 229.872 624.203 Z" fill="#000000" fill-rule="evenodd" fill-opacity="1" /><path clip-path="url(#clip550)" d="M 0 0 M255.357 535.573 L291.934 535.573 L291.934 545.529 L255.681 545.529 Q247.078 545.529 242.804 548.884 Q238.529 552.238 238.529 558.948 Q238.529 567.01 243.669 571.663 Q248.81 576.317 257.684 576.317 L291.934 576.317 L291.934 586.327 L231.333 586.327 L231.333 576.317 L240.748 576.317 Q235.283 572.746 232.577 567.93 Q229.872 563.06 229.872 556.729 Q229.872 546.286 236.365 540.93 Q242.804 535.573 255.357 535.573 Z" fill="#000000" fill-rule="evenodd" fill-opacity="1" /><path clip-path="url(#clip550)" d="M 0 0 M233.118 486.497 L242.533 486.497 Q240.369 490.717 239.287 495.262 Q238.204 499.807 238.204 504.677 Q238.204 512.09 240.477 515.823 Q242.75 519.503 247.295 519.503 Q250.758 519.503 252.76 516.851 Q254.708 514.2 256.493 506.192 L257.251 502.783 Q259.523 492.178 263.69 487.741 Q267.802 483.25 275.215 483.25 Q283.656 483.25 288.579 489.959 Q293.503 496.615 293.503 508.302 Q293.503 513.172 292.529 518.475 Q291.61 523.723 289.716 529.567 L279.435 529.567 Q282.303 524.048 283.764 518.691 Q285.171 513.334 285.171 508.086 Q285.171 501.052 282.79 497.264 Q280.355 493.477 275.972 493.477 Q271.914 493.477 269.75 496.236 Q267.585 498.942 265.583 508.194 L264.772 511.657 Q262.824 520.91 258.82 525.022 Q254.762 529.134 247.728 529.134 Q239.178 529.134 234.525 523.074 Q229.872 517.014 229.872 505.867 Q229.872 500.348 230.683 495.479 Q231.495 490.609 233.118 486.497 Z" fill="#000000" fill-rule="evenodd" fill-opacity="1" /><path clip-path="url(#clip550)" d="M 0 0 M259.144 420.971 L264.014 420.971 L264.014 466.747 Q274.295 466.098 279.706 460.579 Q285.062 455.005 285.062 445.104 Q285.062 439.368 283.656 434.011 Q282.249 428.6 279.435 423.298 L288.85 423.298 Q291.123 428.655 292.313 434.282 Q293.503 439.909 293.503 445.699 Q293.503 460.2 285.062 468.695 Q276.621 477.136 262.229 477.136 Q247.349 477.136 238.637 469.128 Q229.872 461.066 229.872 447.43 Q229.872 435.202 237.772 428.113 Q245.617 420.971 259.144 420.971 M256.223 430.927 Q248.052 431.035 243.182 435.526 Q238.313 439.963 238.313 447.322 Q238.313 455.655 243.02 460.687 Q247.728 465.665 256.277 466.422 L256.223 430.927 Z" fill="#000000" fill-rule="evenodd" fill-opacity="1" /><polyline clip-path="url(#clip552)" style="stroke:#808080; stroke-width:8.16; stroke-opacity:1; fill:none" points="
  539.939,938.091 592.845,938.091 
  "/>
<polyline clip-path="url(#clip552)" style="stroke:#808080; stroke-width:8.16; stroke-opacity:1; fill:none" points="
  592.845,942.901 645.752,942.901 
  "/>
<polyline clip-path="url(#clip552)" style="stroke:#808080; stroke-width:8.16; stroke-opacity:1; fill:none" points="
  645.752,952.371 698.658,952.371 
  "/>
<polyline clip-path="url(#clip552)" style="stroke:#808080; stroke-width:8.16; stroke-opacity:1; fill:none" points="
  698.658,1051.78 751.565,1051.78 
  "/>
<polyline clip-path="url(#clip552)" style="stroke:#808080; stroke-width:8.16; stroke-opacity:1; fill:none" points="
  751.565,970.561 804.471,970.561 
  "/>
<polyline clip-path="url(#clip552)" style="stroke:#808080; stroke-width:8.16; stroke-opacity:1; fill:none" points="
  804.471,1202.92 857.378,1202.92 
  "/>
<polyline clip-path="url(#clip552)" style="stroke:#808080; stroke-width:8.16; stroke-opacity:1; fill:none" points="
  857.378,1160.2 910.284,1160.2 
  "/>
<polyline clip-path="url(#clip552)" style="stroke:#808080; stroke-width:8.16; stroke-opacity:1; fill:none" points="
  910.284,1164.37 963.191,1164.37 
  "/>
<polyline clip-path="url(#clip552)" style="stroke:#808080; stroke-width:8.16; stroke-opacity:1; fill:none" points="
  963.191,1034.76 1016.1,1034.76 
  "/>
<polyline clip-path="url(#clip552)" style="stroke:#808080; stroke-width:8.16; stroke-opacity:1; fill:none" points="
  1016.1,1070.52 1069,1070.52 
  "/>
<polyline clip-path="url(#clip552)" style="stroke:#808080; stroke-width:8.16; stroke-opacity:1; fill:none" points="
  1069,939.636 1121.91,939.636 
  "/>
<polyline clip-path="url(#clip552)" style="stroke:#808080; stroke-width:8.16; stroke-opacity:1; fill:none" points="
  1121.91,902.746 1174.82,902.746 
  "/>
<polyline clip-path="url(#clip552)" style="stroke:#808080; stroke-width:8.16; stroke-opacity:1; fill:none" points="
  1174.82,885.133 1227.72,885.133 
  "/>
<polyline clip-path="url(#clip552)" style="stroke:#808080; stroke-width:8.16; stroke-opacity:1; fill:none" points="
  1227.72,841.122 1280.63,841.122 
  "/>
<polyline clip-path="url(#clip552)" style="stroke:#808080; stroke-width:8.16; stroke-opacity:1; fill:none" points="
  1280.63,835.752 1333.54,835.752 
  "/>
<polyline clip-path="url(#clip552)" style="stroke:#808080; stroke-width:8.16; stroke-opacity:1; fill:none" points="
  1333.54,804.827 1386.44,804.827 
  "/>
<polyline clip-path="url(#clip552)" style="stroke:#808080; stroke-width:8.16; stroke-opacity:1; fill:none" points="
  1386.44,785.038 1439.35,785.038 
  "/>
<polyline clip-path="url(#clip552)" style="stroke:#808080; stroke-width:8.16; stroke-opacity:1; fill:none" points="
  1439.35,763.021 1492.26,763.021 
  "/>
<polyline clip-path="url(#clip552)" style="stroke:#808080; stroke-width:8.16; stroke-opacity:1; fill:none" points="
  1492.26,747.91 1545.16,747.91 
  "/>
<polyline clip-path="url(#clip552)" style="stroke:#808080; stroke-width:8.16; stroke-opacity:1; fill:none" points="
  1545.16,707.883 1598.07,707.883 
  "/>
<polyline clip-path="url(#clip552)" style="stroke:#808080; stroke-width:8.16; stroke-opacity:1; fill:none" points="
  1598.07,583.474 1650.97,583.474 
  "/>
<polyline clip-path="url(#clip552)" style="stroke:#808080; stroke-width:8.16; stroke-opacity:1; fill:none" points="
  1650.97,542.561 1703.88,542.561 
  "/>
<polyline clip-path="url(#clip552)" style="stroke:#808080; stroke-width:8.16; stroke-opacity:1; fill:none" points="
  1703.88,527.452 1756.79,527.452 
  "/>
<polyline clip-path="url(#clip552)" style="stroke:#808080; stroke-width:8.16; stroke-opacity:1; fill:none" points="
  1756.79,485.442 1809.69,485.442 
  "/>
<polyline clip-path="url(#clip552)" style="stroke:#808080; stroke-width:8.16; stroke-opacity:1; fill:none" points="
  1809.69,469.105 1862.6,469.105 
  "/>
<polyline clip-path="url(#clip552)" style="stroke:#808080; stroke-width:8.16; stroke-opacity:1; fill:none" points="
  1862.6,433.014 1915.51,433.014 
  "/>
<polyline clip-path="url(#clip552)" style="stroke:#808080; stroke-width:8.16; stroke-opacity:1; fill:none" points="
  1915.51,425.495 1968.41,425.495 
  "/>
<polyline clip-path="url(#clip552)" style="stroke:#808080; stroke-width:8.16; stroke-opacity:1; fill:none" points="
  1968.41,402.989 2021.32,402.989 
  "/>
<polyline clip-path="url(#clip552)" style="stroke:#808080; stroke-width:8.16; stroke-opacity:1; fill:none" points="
  2021.32,370.322 2074.23,370.322 
  "/>
<polyline clip-path="url(#clip552)" style="stroke:#808080; stroke-width:8.16; stroke-opacity:1; fill:none" points="
  2074.23,360.466 2127.13,360.466 
  "/>
<polyline clip-path="url(#clip552)" style="stroke:#808080; stroke-width:8.16; stroke-opacity:1; fill:none" points="
  2127.13,289.307 2180.04,289.307 
  "/>
<polyline clip-path="url(#clip552)" style="stroke:#808080; stroke-width:8.16; stroke-opacity:1; fill:none" points="
  2180.04,273.724 2232.95,273.724 
  "/>
<polyline clip-path="url(#clip552)" style="stroke:#808080; stroke-width:8.16; stroke-opacity:1; fill:none" points="
  2232.95,270.569 2285.85,270.569 
  "/>
<polyline clip-path="url(#clip552)" style="stroke:#808080; stroke-width:8.16; stroke-opacity:1; fill:none" points="
  2285.85,225.734 2338.76,225.734 
  "/>
<polyline clip-path="url(#clip552)" style="stroke:#808080; stroke-width:8.16; stroke-opacity:1; fill:none" points="
  2338.76,203.148 2391.67,203.148 
  "/>
<polyline clip-path="url(#clip552)" style="stroke:#808080; stroke-width:8.16; stroke-opacity:1; fill:none" points="
  2391.67,215.278 2444.57,215.278 
  "/>
<polyline clip-path="url(#clip552)" style="stroke:#808080; stroke-width:8.16; stroke-opacity:1; fill:none" points="
  2444.57,202.15 2497.48,202.15 
  "/>
<polyline clip-path="url(#clip552)" style="stroke:#808080; stroke-width:8.16; stroke-opacity:1; fill:none" points="
  2497.48,178.777 2550.38,178.777 
  "/>
<polyline clip-path="url(#clip552)" style="stroke:#808080; stroke-width:8.16; stroke-opacity:1; fill:none" points="
  2550.38,113.012 2603.29,113.012 
  "/>
<polyline clip-path="url(#clip552)" style="stroke:#808080; stroke-width:8.16; stroke-opacity:1; fill:none" points="
  2603.29,149.449 2656.2,149.449 
  "/>
<polyline clip-path="url(#clip552)" style="stroke:#800080; stroke-width:11.56; stroke-opacity:1; fill:none" stroke-dasharray="46, 29" points="
  1598.07,2390.92 1598.07,-1074.99 
  "/>
<path clip-path="url(#clip550)" d="
M1876.02 1197.11 L2644.91 1197.11 L2644.91 991.476 L1876.02 991.476  Z
  " fill="#000000" fill-rule="evenodd" fill-opacity="0"/>
<polyline clip-path="url(#clip550)" style="stroke:#000000; stroke-width:6.8; stroke-opacity:0; fill:none" points="
  1876.02,1197.11 2644.91,1197.11 2644.91,991.476 1876.02,991.476 1876.02,1197.11 
  "/>
<polyline clip-path="url(#clip550)" style="stroke:#808080; stroke-width:6.8; stroke-opacity:1; fill:none" points="
  1900.95,1094.29 2050.5,1094.29 
  "/>
<path clip-path="url(#clip550)" d="M 0 0 M2103.28 1096.12 Q2105.84 1096.99 2108.24 1099.82 Q2110.68 1102.65 2113.12 1107.61 L2121.19 1123.67 L2112.65 1123.67 L2105.13 1108.6 Q2102.22 1102.69 2099.47 1100.77 Q2096.75 1098.84 2092.03 1098.84 L2083.37 1098.84 L2083.37 1123.67 L2075.42 1123.67 L2075.42 1064.92 L2093.37 1064.92 Q2103.44 1064.92 2108.4 1069.13 Q2113.36 1073.34 2113.36 1081.84 Q2113.36 1087.39 2110.76 1091.05 Q2108.2 1094.7 2103.28 1096.12 M2083.37 1071.45 L2083.37 1092.3 L2093.37 1092.3 Q2099.11 1092.3 2102.02 1089.67 Q2104.98 1086.99 2104.98 1081.84 Q2104.98 1076.68 2102.02 1074.08 Q2099.11 1071.45 2093.37 1071.45 L2083.37 1071.45 Z" fill="#000000" fill-rule="evenodd" fill-opacity="1" /><path clip-path="url(#clip550)" d="M 0 0 M2162.86 1099.82 L2162.86 1103.36 L2129.57 1103.36 Q2130.04 1110.84 2134.06 1114.77 Q2138.11 1118.67 2145.31 1118.67 Q2149.48 1118.67 2153.38 1117.65 Q2157.31 1116.62 2161.17 1114.58 L2161.17 1121.42 Q2157.27 1123.08 2153.18 1123.94 Q2149.09 1124.81 2144.88 1124.81 Q2134.33 1124.81 2128.15 1118.67 Q2122.01 1112.53 2122.01 1102.06 Q2122.01 1091.24 2127.84 1084.91 Q2133.7 1078.53 2143.62 1078.53 Q2152.51 1078.53 2157.67 1084.28 Q2162.86 1089.98 2162.86 1099.82 M2155.62 1097.7 Q2155.54 1091.75 2152.28 1088.21 Q2149.05 1084.67 2143.7 1084.67 Q2137.64 1084.67 2133.98 1088.09 Q2130.36 1091.52 2129.81 1097.74 L2155.62 1097.7 Z" fill="#000000" fill-rule="evenodd" fill-opacity="1" /><path clip-path="url(#clip550)" d="M 0 0 M2199.46 1101.12 Q2199.46 1093.25 2196.19 1088.92 Q2192.97 1084.59 2187.1 1084.59 Q2181.28 1084.59 2178.01 1088.92 Q2174.79 1093.25 2174.79 1101.12 Q2174.79 1108.95 2178.01 1113.28 Q2181.28 1117.61 2187.1 1117.61 Q2192.97 1117.61 2196.19 1113.28 Q2199.46 1108.95 2199.46 1101.12 M2206.7 1118.2 Q2206.7 1129.45 2201.7 1134.92 Q2196.7 1140.43 2186.39 1140.43 Q2182.58 1140.43 2179.19 1139.84 Q2175.81 1139.29 2172.62 1138.11 L2172.62 1131.07 Q2175.81 1132.8 2178.92 1133.62 Q2182.03 1134.45 2185.25 1134.45 Q2192.38 1134.45 2195.92 1130.71 Q2199.46 1127.01 2199.46 1119.5 L2199.46 1115.92 Q2197.22 1119.81 2193.71 1121.74 Q2190.21 1123.67 2185.33 1123.67 Q2177.23 1123.67 2172.27 1117.49 Q2167.31 1111.31 2167.31 1101.12 Q2167.31 1090.89 2172.27 1084.71 Q2177.23 1078.53 2185.33 1078.53 Q2190.21 1078.53 2193.71 1080.46 Q2197.22 1082.39 2199.46 1086.28 L2199.46 1079.59 L2206.7 1079.59 L2206.7 1118.2 Z" fill="#000000" fill-rule="evenodd" fill-opacity="1" /><path clip-path="url(#clip550)" d="M 0 0 M2239.83 1086.36 Q2238.61 1085.65 2237.16 1085.34 Q2235.74 1084.99 2234.01 1084.99 Q2227.87 1084.99 2224.57 1089 Q2221.3 1092.97 2221.3 1100.45 L2221.3 1123.67 L2214.02 1123.67 L2214.02 1079.59 L2221.3 1079.59 L2221.3 1086.44 Q2223.58 1082.43 2227.24 1080.5 Q2230.9 1078.53 2236.13 1078.53 Q2236.88 1078.53 2237.79 1078.65 Q2238.69 1078.73 2239.79 1078.92 L2239.83 1086.36 Z" fill="#000000" fill-rule="evenodd" fill-opacity="1" /><path clip-path="url(#clip550)" d="M 0 0 M2283.36 1099.82 L2283.36 1103.36 L2250.07 1103.36 Q2250.54 1110.84 2254.55 1114.77 Q2258.6 1118.67 2265.81 1118.67 Q2269.98 1118.67 2273.87 1117.65 Q2277.81 1116.62 2281.66 1114.58 L2281.66 1121.42 Q2277.77 1123.08 2273.68 1123.94 Q2269.58 1124.81 2265.37 1124.81 Q2254.83 1124.81 2248.65 1118.67 Q2242.51 1112.53 2242.51 1102.06 Q2242.51 1091.24 2248.33 1084.91 Q2254.2 1078.53 2264.11 1078.53 Q2273.01 1078.53 2278.16 1084.28 Q2283.36 1089.98 2283.36 1099.82 M2276.12 1097.7 Q2276.04 1091.75 2272.77 1088.21 Q2269.54 1084.67 2264.19 1084.67 Q2258.13 1084.67 2254.47 1088.09 Q2250.85 1091.52 2250.3 1097.74 L2276.12 1097.7 Z" fill="#000000" fill-rule="evenodd" fill-opacity="1" /><path clip-path="url(#clip550)" d="M 0 0 M2319.05 1080.89 L2319.05 1087.74 Q2315.98 1086.17 2312.67 1085.38 Q2309.37 1084.59 2305.83 1084.59 Q2300.44 1084.59 2297.72 1086.24 Q2295.04 1087.9 2295.04 1091.2 Q2295.04 1093.72 2296.97 1095.18 Q2298.9 1096.59 2304.72 1097.89 L2307.2 1098.44 Q2314.92 1100.1 2318.14 1103.13 Q2321.41 1106.12 2321.41 1111.51 Q2321.41 1117.65 2316.53 1121.23 Q2311.69 1124.81 2303.19 1124.81 Q2299.65 1124.81 2295.79 1124.1 Q2291.97 1123.43 2287.72 1122.05 L2287.72 1114.58 Q2291.74 1116.66 2295.63 1117.73 Q2299.53 1118.75 2303.35 1118.75 Q2308.46 1118.75 2311.22 1117.02 Q2313.97 1115.25 2313.97 1112.06 Q2313.97 1109.11 2311.97 1107.53 Q2310 1105.96 2303.27 1104.5 L2300.75 1103.91 Q2294.02 1102.5 2291.03 1099.58 Q2288.04 1096.63 2288.04 1091.52 Q2288.04 1085.3 2292.45 1081.92 Q2296.85 1078.53 2304.96 1078.53 Q2308.97 1078.53 2312.52 1079.12 Q2316.06 1079.71 2319.05 1080.89 Z" fill="#000000" fill-rule="evenodd" fill-opacity="1" /><path clip-path="url(#clip550)" d="M 0 0 M2357.1 1080.89 L2357.1 1087.74 Q2354.03 1086.17 2350.73 1085.38 Q2347.42 1084.59 2343.88 1084.59 Q2338.49 1084.59 2335.77 1086.24 Q2333.1 1087.9 2333.1 1091.2 Q2333.1 1093.72 2335.03 1095.18 Q2336.95 1096.59 2342.78 1097.89 L2345.26 1098.44 Q2352.97 1100.1 2356.2 1103.13 Q2359.46 1106.12 2359.46 1111.51 Q2359.46 1117.65 2354.58 1121.23 Q2349.74 1124.81 2341.24 1124.81 Q2337.7 1124.81 2333.84 1124.1 Q2330.03 1123.43 2325.78 1122.05 L2325.78 1114.58 Q2329.79 1116.66 2333.69 1117.73 Q2337.58 1118.75 2341.4 1118.75 Q2346.52 1118.75 2349.27 1117.02 Q2352.03 1115.25 2352.03 1112.06 Q2352.03 1109.11 2350.02 1107.53 Q2348.05 1105.96 2341.32 1104.5 L2338.8 1103.91 Q2332.07 1102.5 2329.08 1099.58 Q2326.09 1096.63 2326.09 1091.52 Q2326.09 1085.3 2330.5 1081.92 Q2334.91 1078.53 2343.01 1078.53 Q2347.03 1078.53 2350.57 1079.12 Q2354.11 1079.71 2357.1 1080.89 Z" fill="#000000" fill-rule="evenodd" fill-opacity="1" /><path clip-path="url(#clip550)" d="M 0 0 M2384.14 1084.67 Q2378.31 1084.67 2374.93 1089.24 Q2371.54 1093.76 2371.54 1101.67 Q2371.54 1109.58 2374.89 1114.14 Q2378.27 1118.67 2384.14 1118.67 Q2389.92 1118.67 2393.31 1114.11 Q2396.69 1109.54 2396.69 1101.67 Q2396.69 1093.84 2393.31 1089.27 Q2389.92 1084.67 2384.14 1084.67 M2384.14 1078.53 Q2393.58 1078.53 2398.97 1084.67 Q2404.36 1090.81 2404.36 1101.67 Q2404.36 1112.49 2398.97 1118.67 Q2393.58 1124.81 2384.14 1124.81 Q2374.65 1124.81 2369.26 1118.67 Q2363.91 1112.49 2363.91 1101.67 Q2363.91 1090.81 2369.26 1084.67 Q2374.65 1078.53 2384.14 1078.53 Z" fill="#000000" fill-rule="evenodd" fill-opacity="1" /><path clip-path="url(#clip550)" d="M 0 0 M2440.96 1101.12 Q2440.96 1093.25 2437.69 1088.92 Q2434.47 1084.59 2428.6 1084.59 Q2422.78 1084.59 2419.51 1088.92 Q2416.29 1093.25 2416.29 1101.12 Q2416.29 1108.95 2419.51 1113.28 Q2422.78 1117.61 2428.6 1117.61 Q2434.47 1117.61 2437.69 1113.28 Q2440.96 1108.95 2440.96 1101.12 M2448.2 1118.2 Q2448.2 1129.45 2443.2 1134.92 Q2438.21 1140.43 2427.9 1140.43 Q2424.08 1140.43 2420.69 1139.84 Q2417.31 1139.29 2414.12 1138.11 L2414.12 1131.07 Q2417.31 1132.8 2420.42 1133.62 Q2423.53 1134.45 2426.75 1134.45 Q2433.88 1134.45 2437.42 1130.71 Q2440.96 1127.01 2440.96 1119.5 L2440.96 1115.92 Q2438.72 1119.81 2435.21 1121.74 Q2431.71 1123.67 2426.83 1123.67 Q2418.73 1123.67 2413.77 1117.49 Q2408.81 1111.31 2408.81 1101.12 Q2408.81 1090.89 2413.77 1084.71 Q2418.73 1078.53 2426.83 1078.53 Q2431.71 1078.53 2435.21 1080.46 Q2438.72 1082.39 2440.96 1086.28 L2440.96 1079.59 L2448.2 1079.59 L2448.2 1118.2 Z" fill="#000000" fill-rule="evenodd" fill-opacity="1" /><path clip-path="url(#clip550)" d="M 0 0 M2481.33 1086.36 Q2480.11 1085.65 2478.66 1085.34 Q2477.24 1084.99 2475.51 1084.99 Q2469.37 1084.99 2466.07 1089 Q2462.8 1092.97 2462.8 1100.45 L2462.8 1123.67 L2455.52 1123.67 L2455.52 1079.59 L2462.8 1079.59 L2462.8 1086.44 Q2465.08 1082.43 2468.74 1080.5 Q2472.4 1078.53 2477.64 1078.53 Q2478.38 1078.53 2479.29 1078.65 Q2480.19 1078.73 2481.3 1078.92 L2481.33 1086.36 Z" fill="#000000" fill-rule="evenodd" fill-opacity="1" /><path clip-path="url(#clip550)" d="M 0 0 M2508.96 1101.51 Q2500.18 1101.51 2496.8 1103.52 Q2493.42 1105.53 2493.42 1110.37 Q2493.42 1114.22 2495.93 1116.51 Q2498.49 1118.75 2502.86 1118.75 Q2508.88 1118.75 2512.5 1114.5 Q2516.16 1110.21 2516.16 1103.13 L2516.16 1101.51 L2508.96 1101.51 M2523.4 1098.52 L2523.4 1123.67 L2516.16 1123.67 L2516.16 1116.98 Q2513.68 1120.99 2509.98 1122.92 Q2506.28 1124.81 2500.93 1124.81 Q2494.16 1124.81 2490.15 1121.03 Q2486.17 1117.21 2486.17 1110.84 Q2486.17 1103.4 2491.13 1099.62 Q2496.13 1095.85 2506.01 1095.85 L2516.16 1095.85 L2516.16 1095.14 Q2516.16 1090.14 2512.86 1087.42 Q2509.59 1084.67 2503.65 1084.67 Q2499.87 1084.67 2496.29 1085.58 Q2492.71 1086.48 2489.4 1088.29 L2489.4 1081.6 Q2493.38 1080.07 2497.11 1079.32 Q2500.85 1078.53 2504.39 1078.53 Q2513.96 1078.53 2518.68 1083.49 Q2523.4 1088.45 2523.4 1098.52 Z" fill="#000000" fill-rule="evenodd" fill-opacity="1" /><path clip-path="url(#clip550)" d="M 0 0 M2565.31 1088.05 Q2568.03 1083.17 2571.8 1080.85 Q2575.58 1078.53 2580.7 1078.53 Q2587.58 1078.53 2591.32 1083.37 Q2595.06 1088.17 2595.06 1097.07 L2595.06 1123.67 L2587.78 1123.67 L2587.78 1097.3 Q2587.78 1090.97 2585.54 1087.9 Q2583.29 1084.83 2578.69 1084.83 Q2573.06 1084.83 2569.8 1088.57 Q2566.53 1092.3 2566.53 1098.76 L2566.53 1123.67 L2559.25 1123.67 L2559.25 1097.3 Q2559.25 1090.93 2557.01 1087.9 Q2554.76 1084.83 2550.08 1084.83 Q2544.53 1084.83 2541.27 1088.61 Q2538 1092.34 2538 1098.76 L2538 1123.67 L2530.72 1123.67 L2530.72 1079.59 L2538 1079.59 L2538 1086.44 Q2540.48 1082.39 2543.94 1080.46 Q2547.41 1078.53 2552.17 1078.53 Q2556.97 1078.53 2560.31 1080.97 Q2563.7 1083.41 2565.31 1088.05 Z" fill="#000000" fill-rule="evenodd" fill-opacity="1" /></svg>
