<?xml version="1.0" encoding="utf-8"?>
<svg xmlns="http://www.w3.org/2000/svg" xmlns:xlink="http://www.w3.org/1999/xlink" width="700" height="400" viewBox="0 0 2800 1600">
<defs>
  <clipPath id="clip760">
    <rect x="0" y="0" width="2800" height="1600"/>
  </clipPath>
</defs>
<path clip-path="url(#clip760)" d="
M0 1600 L2800 1600 L2800 0 L0 0  Z
  " fill="#f3f6f9" fill-rule="evenodd" fill-opacity="1"/>
<defs>
  <clipPath id="clip761">
    <rect x="560" y="0" width="1961" height="1600"/>
  </clipPath>
</defs>
<path clip-path="url(#clip760)" d="
M476.451 1235.62 L2719.69 1235.62 L2719.69 80.315 L476.451 80.315  Z
  " fill="#f3f6f9" fill-rule="evenodd" fill-opacity="1"/>
<defs>
  <clipPath id="clip762">
    <rect x="476" y="80" width="2244" height="1156"/>
  </clipPath>
</defs>
<polyline clip-path="url(#clip760)" style="stroke:#000000; stroke-width:6.8; stroke-opacity:1; fill:none" points="
  476.451,1235.62 2719.69,1235.62 
  "/>
<polyline clip-path="url(#clip760)" style="stroke:#000000; stroke-width:6.8; stroke-opacity:1; fill:none" points="
  550.416,1235.62 550.416,1221.75 
  "/>
<polyline clip-path="url(#clip760)" style="stroke:#000000; stroke-width:6.8; stroke-opacity:1; fill:none" points="
  1074.24,1235.62 1074.24,1221.75 
  "/>
<polyline clip-path="url(#clip760)" style="stroke:#000000; stroke-width:6.8; stroke-opacity:1; fill:none" points="
  1598.07,1235.62 1598.07,1221.75 
  "/>
<polyline clip-path="url(#clip760)" style="stroke:#000000; stroke-width:6.8; stroke-opacity:1; fill:none" points="
  2121.89,1235.62 2121.89,1221.75 
  "/>
<polyline clip-path="url(#clip760)" style="stroke:#000000; stroke-width:6.8; stroke-opacity:1; fill:none" points="
  2645.72,1235.62 2645.72,1221.75 
  "/>
<path clip-path="url(#clip760)" d="M 0 0 M471.85 1299.91 L522.299 1299.91 L522.299 1306.6 L471.85 1306.6 L471.85 1299.91 Z" fill="#000000" fill-rule="evenodd" fill-opacity="1" /><path clip-path="url(#clip760)" d="M 0 0 M532.294 1321.83 L545.28 1321.83 L545.28 1277.01 L531.153 1279.84 L531.153 1272.6 L545.201 1269.77 L553.15 1269.77 L553.15 1321.83 L566.136 1321.83 L566.136 1328.52 L532.294 1328.52 L532.294 1321.83 Z" fill="#000000" fill-rule="evenodd" fill-opacity="1" /><path clip-path="url(#clip760)" d="M 0 0 M574.755 1318.52 L583.058 1318.52 L583.058 1328.52 L574.755 1328.52 L574.755 1318.52 Z" fill="#000000" fill-rule="evenodd" fill-opacity="1" /><path clip-path="url(#clip760)" d="M 0 0 M608.676 1275 Q602.537 1275 599.428 1281.06 Q596.359 1287.08 596.359 1299.2 Q596.359 1311.28 599.428 1317.34 Q602.537 1323.37 608.676 1323.37 Q614.854 1323.37 617.923 1317.34 Q621.032 1311.28 621.032 1299.2 Q621.032 1287.08 617.923 1281.06 Q614.854 1275 608.676 1275 M608.676 1268.71 Q618.553 1268.71 623.747 1276.54 Q628.981 1284.33 628.981 1299.2 Q628.981 1314.04 623.747 1321.87 Q618.553 1329.66 608.676 1329.66 Q598.798 1329.66 593.565 1321.87 Q588.37 1314.04 588.37 1299.2 Q588.37 1284.33 593.565 1276.54 Q598.798 1268.71 608.676 1268.71 Z" fill="#000000" fill-rule="evenodd" fill-opacity="1" /><path clip-path="url(#clip760)" d="M 0 0 M995.48 1299.91 L1045.93 1299.91 L1045.93 1306.6 L995.48 1306.6 L995.48 1299.91 Z" fill="#000000" fill-rule="evenodd" fill-opacity="1" /><path clip-path="url(#clip760)" d="M 0 0 M1071.55 1275 Q1065.41 1275 1062.3 1281.06 Q1059.23 1287.08 1059.23 1299.2 Q1059.23 1311.28 1062.3 1317.34 Q1065.41 1323.37 1071.55 1323.37 Q1077.72 1323.37 1080.79 1317.34 Q1083.9 1311.28 1083.9 1299.2 Q1083.9 1287.08 1080.79 1281.06 Q1077.72 1275 1071.55 1275 M1071.55 1268.71 Q1081.42 1268.71 1086.62 1276.54 Q1091.85 1284.33 1091.85 1299.2 Q1091.85 1314.04 1086.62 1321.87 Q1081.42 1329.66 1071.55 1329.66 Q1061.67 1329.66 1056.44 1321.87 Q1051.24 1314.04 1051.24 1299.2 Q1051.24 1284.33 1056.44 1276.54 Q1061.67 1268.71 1071.55 1268.71 Z" fill="#000000" fill-rule="evenodd" fill-opacity="1" /><path clip-path="url(#clip760)" d="M 0 0 M1100.47 1318.52 L1108.77 1318.52 L1108.77 1328.52 L1100.47 1328.52 L1100.47 1318.52 Z" fill="#000000" fill-rule="evenodd" fill-opacity="1" /><path clip-path="url(#clip760)" d="M 0 0 M1117.47 1269.77 L1148.68 1269.77 L1148.68 1276.46 L1124.75 1276.46 L1124.75 1290.86 Q1126.48 1290.27 1128.21 1289.99 Q1129.94 1289.68 1131.68 1289.68 Q1141.51 1289.68 1147.26 1295.07 Q1153 1300.46 1153 1309.67 Q1153 1319.15 1147.1 1324.43 Q1141.2 1329.66 1130.46 1329.66 Q1126.76 1329.66 1122.9 1329.03 Q1119.08 1328.4 1114.99 1327.14 L1114.99 1319.15 Q1118.53 1321.08 1122.31 1322.03 Q1126.09 1322.97 1130.3 1322.97 Q1137.11 1322.97 1141.08 1319.39 Q1145.06 1315.81 1145.06 1309.67 Q1145.06 1303.53 1141.08 1299.95 Q1137.11 1296.37 1130.3 1296.37 Q1127.11 1296.37 1123.92 1297.08 Q1120.78 1297.79 1117.47 1299.28 L1117.47 1269.77 Z" fill="#000000" fill-rule="evenodd" fill-opacity="1" /><path clip-path="url(#clip760)" d="M 0 0 M1566.65 1275 Q1560.51 1275 1557.4 1281.06 Q1554.33 1287.08 1554.33 1299.2 Q1554.33 1311.28 1557.4 1317.34 Q1560.51 1323.37 1566.65 1323.37 Q1572.82 1323.37 1575.89 1317.34 Q1579 1311.28 1579 1299.2 Q1579 1287.08 1575.89 1281.06 Q1572.82 1275 1566.65 1275 M1566.65 1268.71 Q1576.52 1268.71 1581.72 1276.54 Q1586.95 1284.33 1586.95 1299.2 Q1586.95 1314.04 1581.72 1321.87 Q1576.52 1329.66 1566.65 1329.66 Q1556.77 1329.66 1551.53 1321.87 Q1546.34 1314.04 1546.34 1299.2 Q1546.34 1284.33 1551.53 1276.54 Q1556.77 1268.71 1566.65 1268.71 Z" fill="#000000" fill-rule="evenodd" fill-opacity="1" /><path clip-path="url(#clip760)" d="M 0 0 M1595.57 1318.52 L1603.87 1318.52 L1603.87 1328.52 L1595.57 1328.52 L1595.57 1318.52 Z" fill="#000000" fill-rule="evenodd" fill-opacity="1" /><path clip-path="url(#clip760)" d="M 0 0 M1629.49 1275 Q1623.35 1275 1620.24 1281.06 Q1617.17 1287.08 1617.17 1299.2 Q1617.17 1311.28 1620.24 1317.34 Q1623.35 1323.37 1629.49 1323.37 Q1635.67 1323.37 1638.74 1317.34 Q1641.85 1311.28 1641.85 1299.2 Q1641.85 1287.08 1638.74 1281.06 Q1635.67 1275 1629.49 1275 M1629.49 1268.71 Q1639.37 1268.71 1644.56 1276.54 Q1649.8 1284.33 1649.8 1299.2 Q1649.8 1314.04 1644.56 1321.87 Q1639.37 1329.66 1629.49 1329.66 Q1619.61 1329.66 1614.38 1321.87 Q1609.18 1314.04 1609.18 1299.2 Q1609.18 1284.33 1614.38 1276.54 Q1619.61 1268.71 1629.49 1268.71 Z" fill="#000000" fill-rule="evenodd" fill-opacity="1" /><path clip-path="url(#clip760)" d="M 0 0 M2091.32 1275 Q2085.18 1275 2082.07 1281.06 Q2079 1287.08 2079 1299.2 Q2079 1311.28 2082.07 1317.34 Q2085.18 1323.37 2091.32 1323.37 Q2097.5 1323.37 2100.57 1317.34 Q2103.67 1311.28 2103.67 1299.2 Q2103.67 1287.08 2100.57 1281.06 Q2097.5 1275 2091.32 1275 M2091.32 1268.71 Q2101.2 1268.71 2106.39 1276.54 Q2111.62 1284.33 2111.62 1299.2 Q2111.62 1314.04 2106.39 1321.87 Q2101.2 1329.66 2091.32 1329.66 Q2081.44 1329.66 2076.21 1321.87 Q2071.01 1314.04 2071.01 1299.2 Q2071.01 1284.33 2076.21 1276.54 Q2081.44 1268.71 2091.32 1268.71 Z" fill="#000000" fill-rule="evenodd" fill-opacity="1" /><path clip-path="url(#clip760)" d="M 0 0 M2120.24 1318.52 L2128.54 1318.52 L2128.54 1328.52 L2120.24 1328.52 L2120.24 1318.52 Z" fill="#000000" fill-rule="evenodd" fill-opacity="1" /><path clip-path="url(#clip760)" d="M 0 0 M2137.24 1269.77 L2168.45 1269.77 L2168.45 1276.46 L2144.52 1276.46 L2144.52 1290.86 Q2146.25 1290.27 2147.98 1289.99 Q2149.72 1289.68 2151.45 1289.68 Q2161.29 1289.68 2167.03 1295.07 Q2172.78 1300.46 2172.78 1309.67 Q2172.78 1319.15 2166.87 1324.43 Q2160.97 1329.66 2150.23 1329.66 Q2146.53 1329.66 2142.67 1329.03 Q2138.86 1328.4 2134.76 1327.14 L2134.76 1319.15 Q2138.3 1321.08 2142.08 1322.03 Q2145.86 1322.97 2150.07 1322.97 Q2156.88 1322.97 2160.85 1319.39 Q2164.83 1315.81 2164.83 1309.67 Q2164.83 1303.53 2160.85 1299.95 Q2156.88 1296.37 2150.07 1296.37 Q2146.88 1296.37 2143.7 1297.08 Q2140.55 1297.79 2137.24 1299.28 L2137.24 1269.77 Z" fill="#000000" fill-rule="evenodd" fill-opacity="1" /><path clip-path="url(#clip760)" d="M 0 0 M2597.95 1321.83 L2610.93 1321.83 L2610.93 1277.01 L2596.81 1279.84 L2596.81 1272.6 L2610.86 1269.77 L2618.8 1269.77 L2618.8 1321.83 L2631.79 1321.83 L2631.79 1328.52 L2597.95 1328.52 L2597.95 1321.83 Z" fill="#000000" fill-rule="evenodd" fill-opacity="1" /><path clip-path="url(#clip760)" d="M 0 0 M2640.41 1318.52 L2648.71 1318.52 L2648.71 1328.52 L2640.41 1328.52 L2640.41 1318.52 Z" fill="#000000" fill-rule="evenodd" fill-opacity="1" /><path clip-path="url(#clip760)" d="M 0 0 M2674.33 1275 Q2668.19 1275 2665.08 1281.06 Q2662.01 1287.08 2662.01 1299.2 Q2662.01 1311.28 2665.08 1317.34 Q2668.19 1323.37 2674.33 1323.37 Q2680.51 1323.37 2683.58 1317.34 Q2686.69 1311.28 2686.69 1299.2 Q2686.69 1287.08 2683.58 1281.06 Q2680.51 1275 2674.33 1275 M2674.33 1268.71 Q2684.21 1268.71 2689.4 1276.54 Q2694.63 1284.33 2694.63 1299.2 Q2694.63 1314.04 2689.4 1321.87 Q2684.21 1329.66 2674.33 1329.66 Q2664.45 1329.66 2659.22 1321.87 Q2654.02 1314.04 2654.02 1299.2 Q2654.02 1284.33 2659.22 1276.54 Q2664.45 1268.71 2674.33 1268.71 Z" fill="#000000" fill-rule="evenodd" fill-opacity="1" /><path clip-path="url(#clip760)" d="M 0 0 M1232.7 1410.81 Q1236.22 1412 1239.52 1415.9 Q1242.87 1419.79 1246.23 1426.61 L1257.32 1448.69 L1245.58 1448.69 L1235.24 1427.96 Q1231.24 1419.85 1227.45 1417.2 Q1223.72 1414.54 1217.23 1414.54 L1205.32 1414.54 L1205.32 1448.69 L1194.39 1448.69 L1194.39 1367.9 L1219.07 1367.9 Q1232.92 1367.9 1239.73 1373.69 Q1246.55 1379.48 1246.55 1391.17 Q1246.55 1398.8 1242.98 1403.83 Q1239.46 1408.86 1232.7 1410.81 M1205.32 1376.88 L1205.32 1405.56 L1219.07 1405.56 Q1226.96 1405.56 1230.97 1401.94 Q1235.03 1398.26 1235.03 1391.17 Q1235.03 1384.08 1230.97 1380.51 Q1226.96 1376.88 1219.07 1376.88 L1205.32 1376.88 Z" fill="#000000" fill-rule="evenodd" fill-opacity="1" /><path clip-path="url(#clip760)" d="M 0 0 M1261.76 1424.77 L1261.76 1388.09 L1271.71 1388.09 L1271.71 1424.39 Q1271.71 1433 1275.07 1437.32 Q1278.42 1441.6 1285.13 1441.6 Q1293.19 1441.6 1297.85 1436.46 Q1302.55 1431.32 1302.55 1422.44 L1302.55 1388.09 L1312.51 1388.09 L1312.51 1448.69 L1302.55 1448.69 L1302.55 1439.38 Q1298.93 1444.9 1294.11 1447.6 Q1289.35 1450.26 1283.02 1450.26 Q1272.58 1450.26 1267.17 1443.76 Q1261.76 1437.27 1261.76 1424.77 M1286.81 1386.62 L1286.81 1386.62 Z" fill="#000000" fill-rule="evenodd" fill-opacity="1" /><path clip-path="url(#clip760)" d="M 0 0 M1373.33 1412.11 L1373.33 1448.69 L1363.37 1448.69 L1363.37 1412.43 Q1363.37 1403.83 1360.02 1399.56 Q1356.66 1395.28 1349.95 1395.28 Q1341.89 1395.28 1337.24 1400.42 Q1332.58 1405.56 1332.58 1414.44 L1332.58 1448.69 L1322.57 1448.69 L1322.57 1388.09 L1332.58 1388.09 L1332.58 1397.5 Q1336.16 1392.04 1340.97 1389.33 Q1345.84 1386.62 1352.17 1386.62 Q1362.61 1386.62 1367.97 1393.12 Q1373.33 1399.56 1373.33 1412.11 Z" fill="#000000" fill-rule="evenodd" fill-opacity="1" /><path clip-path="url(#clip760)" d="M 0 0 M1434.15 1412.11 L1434.15 1448.69 L1424.19 1448.69 L1424.19 1412.43 Q1424.19 1403.83 1420.84 1399.56 Q1417.48 1395.28 1410.77 1395.28 Q1402.71 1395.28 1398.06 1400.42 Q1393.4 1405.56 1393.4 1414.44 L1393.4 1448.69 L1383.39 1448.69 L1383.39 1388.09 L1393.4 1388.09 L1393.4 1397.5 Q1396.97 1392.04 1401.79 1389.33 Q1406.66 1386.62 1412.99 1386.62 Q1423.43 1386.62 1428.79 1393.12 Q1434.15 1399.56 1434.15 1412.11 Z" fill="#000000" fill-rule="evenodd" fill-opacity="1" /><path clip-path="url(#clip760)" d="M 0 0 M1444.59 1388.09 L1454.55 1388.09 L1454.55 1448.69 L1444.59 1448.69 L1444.59 1388.09 M1444.59 1364.49 L1454.55 1364.49 L1454.55 1377.1 L1444.59 1377.1 L1444.59 1364.49 Z" fill="#000000" fill-rule="evenodd" fill-opacity="1" /><path clip-path="url(#clip760)" d="M 0 0 M1515.36 1412.11 L1515.36 1448.69 L1505.41 1448.69 L1505.41 1412.43 Q1505.41 1403.83 1502.05 1399.56 Q1498.7 1395.28 1491.99 1395.28 Q1483.93 1395.28 1479.27 1400.42 Q1474.62 1405.56 1474.62 1414.44 L1474.62 1448.69 L1464.61 1448.69 L1464.61 1388.09 L1474.62 1388.09 L1474.62 1397.5 Q1478.19 1392.04 1483.01 1389.33 Q1487.88 1386.62 1494.21 1386.62 Q1504.65 1386.62 1510.01 1393.12 Q1515.36 1399.56 1515.36 1412.11 Z" fill="#000000" fill-rule="evenodd" fill-opacity="1" /><path clip-path="url(#clip760)" d="M 0 0 M1565.68 1417.68 Q1565.68 1406.86 1561.19 1400.91 Q1556.76 1394.96 1548.69 1394.96 Q1540.69 1394.96 1536.2 1400.91 Q1531.76 1406.86 1531.76 1417.68 Q1531.76 1428.45 1536.2 1434.4 Q1540.69 1440.35 1548.69 1440.35 Q1556.76 1440.35 1561.19 1434.4 Q1565.68 1428.45 1565.68 1417.68 M1575.64 1441.17 Q1575.64 1456.64 1568.77 1464.16 Q1561.9 1471.74 1547.72 1471.74 Q1542.47 1471.74 1537.82 1470.93 Q1533.16 1470.17 1528.78 1468.54 L1528.78 1458.86 Q1533.16 1461.24 1537.44 1462.38 Q1541.71 1463.51 1546.15 1463.51 Q1555.94 1463.51 1560.81 1458.37 Q1565.68 1453.29 1565.68 1442.95 L1565.68 1438.03 Q1562.6 1443.38 1557.78 1446.04 Q1552.97 1448.69 1546.26 1448.69 Q1535.11 1448.69 1528.3 1440.19 Q1521.48 1431.7 1521.48 1417.68 Q1521.48 1403.61 1528.3 1395.12 Q1535.11 1386.62 1546.26 1386.62 Q1552.97 1386.62 1557.78 1389.28 Q1562.6 1391.93 1565.68 1397.28 L1565.68 1388.09 L1575.64 1388.09 L1575.64 1441.17 Z" fill="#000000" fill-rule="evenodd" fill-opacity="1" /><path clip-path="url(#clip760)" d="M 0 0 M1614.17 1388.09 L1624.72 1388.09 L1643.65 1438.95 L1662.59 1388.09 L1673.14 1388.09 L1650.42 1448.69 L1636.89 1448.69 L1614.17 1388.09 Z" fill="#000000" fill-rule="evenodd" fill-opacity="1" /><path clip-path="url(#clip760)" d="M 0 0 M1711.13 1418.22 Q1699.06 1418.22 1694.41 1420.98 Q1689.76 1423.74 1689.76 1430.4 Q1689.76 1435.7 1693.22 1438.84 Q1696.74 1441.92 1702.74 1441.92 Q1711.02 1441.92 1716 1436.08 Q1721.03 1430.18 1721.03 1420.44 L1721.03 1418.22 L1711.13 1418.22 M1730.99 1414.11 L1730.99 1448.69 L1721.03 1448.69 L1721.03 1439.49 Q1717.62 1445.01 1712.53 1447.66 Q1707.45 1450.26 1700.09 1450.26 Q1690.78 1450.26 1685.26 1445.06 Q1679.8 1439.81 1679.8 1431.05 Q1679.8 1420.82 1686.62 1415.63 Q1693.49 1410.43 1707.07 1410.43 L1721.03 1410.43 L1721.03 1409.46 Q1721.03 1402.59 1716.48 1398.85 Q1711.99 1395.07 1703.82 1395.07 Q1698.63 1395.07 1693.7 1396.31 Q1688.78 1397.55 1684.24 1400.04 L1684.24 1390.84 Q1689.7 1388.73 1694.84 1387.71 Q1699.98 1386.62 1704.85 1386.62 Q1718 1386.62 1724.49 1393.44 Q1730.99 1400.26 1730.99 1414.11 Z" fill="#000000" fill-rule="evenodd" fill-opacity="1" /><path clip-path="url(#clip760)" d="M 0 0 M1776.55 1397.39 Q1774.87 1396.42 1772.87 1395.98 Q1770.92 1395.5 1768.54 1395.5 Q1760.1 1395.5 1755.55 1401.02 Q1751.06 1406.48 1751.06 1416.76 L1751.06 1448.69 L1741.05 1448.69 L1741.05 1388.09 L1751.06 1388.09 L1751.06 1397.5 Q1754.2 1391.98 1759.23 1389.33 Q1764.26 1386.62 1771.46 1386.62 Q1772.49 1386.62 1773.73 1386.79 Q1774.98 1386.89 1776.49 1387.17 L1776.55 1397.39 Z" fill="#000000" fill-rule="evenodd" fill-opacity="1" /><path clip-path="url(#clip760)" d="M 0 0 M1786.99 1388.09 L1796.94 1388.09 L1796.94 1448.69 L1786.99 1448.69 L1786.99 1388.09 M1786.99 1364.49 L1796.94 1364.49 L1796.94 1377.1 L1786.99 1377.1 L1786.99 1364.49 Z" fill="#000000" fill-rule="evenodd" fill-opacity="1" /><path clip-path="url(#clip760)" d="M 0 0 M1834.93 1418.22 Q1822.86 1418.22 1818.21 1420.98 Q1813.56 1423.74 1813.56 1430.4 Q1813.56 1435.7 1817.02 1438.84 Q1820.54 1441.92 1826.54 1441.92 Q1834.82 1441.92 1839.8 1436.08 Q1844.83 1430.18 1844.83 1420.44 L1844.83 1418.22 L1834.93 1418.22 M1854.79 1414.11 L1854.79 1448.69 L1844.83 1448.69 L1844.83 1439.49 Q1841.42 1445.01 1836.33 1447.66 Q1831.25 1450.26 1823.89 1450.26 Q1814.58 1450.26 1809.06 1445.06 Q1803.6 1439.81 1803.6 1431.05 Q1803.6 1420.82 1810.42 1415.63 Q1817.29 1410.43 1830.87 1410.43 L1844.83 1410.43 L1844.83 1409.46 Q1844.83 1402.59 1840.28 1398.85 Q1835.79 1395.07 1827.62 1395.07 Q1822.43 1395.07 1817.51 1396.31 Q1812.58 1397.55 1808.04 1400.04 L1808.04 1390.84 Q1813.5 1388.73 1818.64 1387.71 Q1823.78 1386.62 1828.65 1386.62 Q1841.8 1386.62 1848.29 1393.44 Q1854.79 1400.26 1854.79 1414.11 Z" fill="#000000" fill-rule="evenodd" fill-opacity="1" /><path clip-path="url(#clip760)" d="M 0 0 M1908.73 1418.44 Q1908.73 1407.46 1904.19 1401.23 Q1899.7 1394.96 1891.8 1394.96 Q1883.9 1394.96 1879.35 1401.23 Q1874.86 1407.46 1874.86 1418.44 Q1874.86 1429.42 1879.35 1435.7 Q1883.9 1441.92 1891.8 1441.92 Q1899.7 1441.92 1904.19 1435.7 Q1908.73 1429.42 1908.73 1418.44 M1874.86 1397.28 Q1878 1391.87 1882.76 1389.28 Q1887.58 1386.62 1894.23 1386.62 Q1905.27 1386.62 1912.14 1395.39 Q1919.07 1404.16 1919.07 1418.44 Q1919.07 1432.72 1912.14 1441.49 Q1905.27 1450.26 1894.23 1450.26 Q1887.58 1450.26 1882.76 1447.66 Q1878 1445.01 1874.86 1439.6 L1874.86 1448.69 L1864.85 1448.69 L1864.85 1364.49 L1874.86 1364.49 L1874.86 1397.28 Z" fill="#000000" fill-rule="evenodd" fill-opacity="1" /><path clip-path="url(#clip760)" d="M 0 0 M1929.51 1364.49 L1939.47 1364.49 L1939.47 1448.69 L1929.51 1448.69 L1929.51 1364.49 Z" fill="#000000" fill-rule="evenodd" fill-opacity="1" /><path clip-path="url(#clip760)" d="M 0 0 M2001.74 1415.9 L2001.74 1420.77 L1955.97 1420.77 Q1956.62 1431.05 1962.14 1436.46 Q1967.71 1441.81 1977.61 1441.81 Q1983.35 1441.81 1988.7 1440.41 Q1994.12 1439 1999.42 1436.19 L1999.42 1445.6 Q1994.06 1447.88 1988.43 1449.07 Q1982.81 1450.26 1977.02 1450.26 Q1962.52 1450.26 1954.02 1441.81 Q1945.58 1433.37 1945.58 1418.98 Q1945.58 1404.1 1953.59 1395.39 Q1961.65 1386.62 1975.29 1386.62 Q1987.51 1386.62 1994.6 1394.52 Q2001.74 1402.37 2001.74 1415.9 M1991.79 1412.98 Q1991.68 1404.8 1987.19 1399.93 Q1982.75 1395.07 1975.39 1395.07 Q1967.06 1395.07 1962.03 1399.77 Q1957.05 1404.48 1956.29 1413.03 L1991.79 1412.98 Z" fill="#000000" fill-rule="evenodd" fill-opacity="1" /><polyline clip-path="url(#clip760)" style="stroke:#000000; stroke-width:6.8; stroke-opacity:1; fill:none" points="
  476.451,1235.62 476.451,80.315 
  "/>
<polyline clip-path="url(#clip760)" style="stroke:#000000; stroke-width:6.8; stroke-opacity:1; fill:none" points="
  476.451,1029.09 503.37,1029.09 
  "/>
<polyline clip-path="url(#clip760)" style="stroke:#000000; stroke-width:6.8; stroke-opacity:1; fill:none" points="
  476.451,768.382 503.37,768.382 
  "/>
<polyline clip-path="url(#clip760)" style="stroke:#000000; stroke-width:6.8; stroke-opacity:1; fill:none" points="
  476.451,507.672 503.37,507.672 
  "/>
<polyline clip-path="url(#clip760)" style="stroke:#000000; stroke-width:6.8; stroke-opacity:1; fill:none" points="
  476.451,246.962 503.37,246.962 
  "/>
<path clip-path="url(#clip760)" d="M 0 0 M354.016 1004.95 Q347.878 1004.95 344.769 1011.01 Q341.699 1017.03 341.699 1029.15 Q341.699 1041.23 344.769 1047.29 Q347.878 1053.31 354.016 1053.31 Q360.195 1053.31 363.264 1047.29 Q366.373 1041.23 366.373 1029.15 Q366.373 1017.03 363.264 1011.01 Q360.195 1004.95 354.016 1004.95 M354.016 998.654 Q363.894 998.654 369.088 1006.48 Q374.322 1014.28 374.322 1029.15 Q374.322 1043.99 369.088 1051.82 Q363.894 1059.61 354.016 1059.61 Q344.139 1059.61 338.905 1051.82 Q333.711 1043.99 333.711 1029.15 Q333.711 1014.28 338.905 1006.48 Q344.139 998.654 354.016 998.654 Z" fill="#000000" fill-rule="evenodd" fill-opacity="1" /><path clip-path="url(#clip760)" d="M 0 0 M382.94 1048.47 L391.243 1048.47 L391.243 1058.47 L382.94 1058.47 L382.94 1048.47 Z" fill="#000000" fill-rule="evenodd" fill-opacity="1" /><path clip-path="url(#clip760)" d="M 0 0 M406.708 1051.78 L434.451 1051.78 L434.451 1058.47 L397.146 1058.47 L397.146 1051.78 Q401.671 1047.1 409.463 1039.23 Q417.294 1031.32 419.301 1029.03 Q423.118 1024.74 424.613 1021.79 Q426.148 1018.8 426.148 1015.93 Q426.148 1011.25 422.843 1008.29 Q419.576 1005.34 414.303 1005.34 Q410.565 1005.34 406.394 1006.64 Q402.262 1007.94 397.539 1010.58 L397.539 1002.55 Q402.34 1000.62 406.512 999.637 Q410.683 998.654 414.146 998.654 Q423.275 998.654 428.706 1003.22 Q434.136 1007.78 434.136 1015.42 Q434.136 1019.04 432.759 1022.3 Q431.421 1025.53 427.84 1029.94 Q426.856 1031.08 421.583 1036.55 Q416.31 1041.98 406.708 1051.78 Z" fill="#000000" fill-rule="evenodd" fill-opacity="1" /><path clip-path="url(#clip760)" d="M 0 0 M350.475 744.24 Q344.336 744.24 341.227 750.3 Q338.158 756.321 338.158 768.441 Q338.158 780.522 341.227 786.582 Q344.336 792.603 350.475 792.603 Q356.653 792.603 359.722 786.582 Q362.831 780.522 362.831 768.441 Q362.831 756.321 359.722 750.3 Q356.653 744.24 350.475 744.24 M350.475 737.943 Q360.352 737.943 365.547 745.774 Q370.78 753.566 370.78 768.441 Q370.78 783.277 365.547 791.108 Q360.352 798.899 350.475 798.899 Q340.598 798.899 335.364 791.108 Q330.169 783.277 330.169 768.441 Q330.169 753.566 335.364 745.774 Q340.598 737.943 350.475 737.943 Z" fill="#000000" fill-rule="evenodd" fill-opacity="1" /><path clip-path="url(#clip760)" d="M 0 0 M379.398 787.763 L387.701 787.763 L387.701 797.758 L379.398 797.758 L379.398 787.763 Z" fill="#000000" fill-rule="evenodd" fill-opacity="1" /><path clip-path="url(#clip760)" d="M 0 0 M418.16 745.932 L398.09 777.295 L418.16 777.295 L418.16 745.932 M416.074 739.006 L426.069 739.006 L426.069 777.295 L434.451 777.295 L434.451 783.906 L426.069 783.906 L426.069 797.758 L418.16 797.758 L418.16 783.906 L391.637 783.906 L391.637 776.233 L416.074 739.006 Z" fill="#000000" fill-rule="evenodd" fill-opacity="1" /><path clip-path="url(#clip760)" d="M 0 0 M351.026 483.53 Q344.887 483.53 341.778 489.59 Q338.709 495.611 338.709 507.731 Q338.709 519.812 341.778 525.872 Q344.887 531.893 351.026 531.893 Q357.204 531.893 360.273 525.872 Q363.382 519.812 363.382 507.731 Q363.382 495.611 360.273 489.59 Q357.204 483.53 351.026 483.53 M351.026 477.233 Q360.903 477.233 366.097 485.064 Q371.331 492.856 371.331 507.731 Q371.331 522.566 366.097 530.397 Q360.903 538.189 351.026 538.189 Q341.148 538.189 335.915 530.397 Q330.72 522.566 330.72 507.731 Q330.72 492.856 335.915 485.064 Q341.148 477.233 351.026 477.233 Z" fill="#000000" fill-rule="evenodd" fill-opacity="1" /><path clip-path="url(#clip760)" d="M 0 0 M379.949 527.052 L388.252 527.052 L388.252 537.048 L379.949 537.048 L379.949 527.052 Z" fill="#000000" fill-rule="evenodd" fill-opacity="1" /><path clip-path="url(#clip760)" d="M 0 0 M414.854 504.504 Q409.502 504.504 406.354 508.164 Q403.245 511.823 403.245 518.198 Q403.245 524.534 406.354 528.233 Q409.502 531.893 414.854 531.893 Q420.206 531.893 423.315 528.233 Q426.463 524.534 426.463 518.198 Q426.463 511.823 423.315 508.164 Q420.206 504.504 414.854 504.504 M430.634 479.594 L430.634 486.835 Q427.643 485.418 424.574 484.671 Q421.544 483.923 418.553 483.923 Q410.683 483.923 406.512 489.236 Q402.38 494.548 401.789 505.291 Q404.111 501.867 407.613 500.057 Q411.116 498.208 415.326 498.208 Q424.18 498.208 429.296 503.599 Q434.451 508.951 434.451 518.198 Q434.451 527.249 429.099 532.719 Q423.748 538.189 414.854 538.189 Q404.662 538.189 399.271 530.397 Q393.88 522.566 393.88 507.731 Q393.88 493.8 400.491 485.536 Q407.102 477.233 418.238 477.233 Q421.229 477.233 424.259 477.824 Q427.329 478.414 430.634 479.594 Z" fill="#000000" fill-rule="evenodd" fill-opacity="1" /><path clip-path="url(#clip760)" d="M 0 0 M351.459 222.819 Q345.32 222.819 342.211 228.88 Q339.142 234.9 339.142 247.021 Q339.142 259.102 342.211 265.162 Q345.32 271.183 351.459 271.183 Q357.637 271.183 360.706 265.162 Q363.815 259.102 363.815 247.021 Q363.815 234.9 360.706 228.88 Q357.637 222.819 351.459 222.819 M351.459 216.523 Q361.336 216.523 366.53 224.354 Q371.764 232.146 371.764 247.021 Q371.764 261.856 366.53 269.687 Q361.336 277.479 351.459 277.479 Q341.581 277.479 336.348 269.687 Q331.153 261.856 331.153 247.021 Q331.153 232.146 336.348 224.354 Q341.581 216.523 351.459 216.523 Z" fill="#000000" fill-rule="evenodd" fill-opacity="1" /><path clip-path="url(#clip760)" d="M 0 0 M380.382 266.342 L388.685 266.342 L388.685 276.338 L380.382 276.338 L380.382 266.342 Z" fill="#000000" fill-rule="evenodd" fill-opacity="1" /><path clip-path="url(#clip760)" d="M 0 0 M414.303 248.437 Q408.637 248.437 405.37 251.467 Q402.144 254.497 402.144 259.81 Q402.144 265.122 405.37 268.153 Q408.637 271.183 414.303 271.183 Q419.97 271.183 423.236 268.153 Q426.502 265.083 426.502 259.81 Q426.502 254.497 423.236 251.467 Q420.009 248.437 414.303 248.437 M406.354 245.053 Q401.238 243.794 398.366 240.292 Q395.532 236.789 395.532 231.752 Q395.532 224.708 400.53 220.616 Q405.567 216.523 414.303 216.523 Q423.079 216.523 428.076 220.616 Q433.074 224.708 433.074 231.752 Q433.074 236.789 430.201 240.292 Q427.368 243.794 422.292 245.053 Q428.037 246.391 431.224 250.287 Q434.451 254.183 434.451 259.81 Q434.451 268.349 429.217 272.914 Q424.023 277.479 414.303 277.479 Q404.583 277.479 399.35 272.914 Q394.155 268.349 394.155 259.81 Q394.155 254.183 397.382 250.287 Q400.609 246.391 406.354 245.053 M403.442 232.5 Q403.442 237.065 406.275 239.623 Q409.148 242.18 414.303 242.18 Q419.419 242.18 422.292 239.623 Q425.204 237.065 425.204 232.5 Q425.204 227.935 422.292 225.377 Q419.419 222.819 414.303 222.819 Q409.148 222.819 406.275 225.377 Q403.442 227.935 403.442 232.5 Z" fill="#000000" fill-rule="evenodd" fill-opacity="1" /><path clip-path="url(#clip760)" d="M 0 0 M254.058 856.653 Q255.249 853.136 259.144 849.835 Q263.04 846.48 269.858 843.126 L291.934 832.033 L291.934 843.775 L271.211 854.11 Q263.094 858.114 260.443 861.901 Q257.792 865.635 257.792 872.128 L257.792 884.032 L291.934 884.032 L291.934 894.962 L211.15 894.962 L211.15 870.288 Q211.15 856.436 216.94 849.619 Q222.729 842.801 234.417 842.801 Q242.046 842.801 247.078 846.372 Q252.11 849.889 254.058 856.653 M220.132 884.032 L248.81 884.032 L248.81 870.288 Q248.81 862.388 245.184 858.384 Q241.505 854.326 234.417 854.326 Q227.329 854.326 223.757 858.384 Q220.132 862.388 220.132 870.288 L220.132 884.032 Z" fill="#000000" fill-rule="evenodd" fill-opacity="1" /><path clip-path="url(#clip760)" d="M 0 0 M259.144 774.733 L264.014 774.733 L264.014 820.508 Q274.295 819.859 279.706 814.34 Q285.062 808.767 285.062 798.865 Q285.062 793.129 283.656 787.773 Q282.249 782.362 279.435 777.059 L288.85 777.059 Q291.123 782.416 292.313 788.043 Q293.503 793.671 293.503 799.46 Q293.503 813.961 285.062 822.456 Q276.621 830.897 262.229 830.897 Q247.349 830.897 238.637 822.889 Q229.872 814.827 229.872 801.192 Q229.872 788.963 237.772 781.875 Q245.617 774.733 259.144 774.733 M256.223 784.689 Q248.052 784.797 243.182 789.288 Q238.313 793.725 238.313 801.083 Q238.313 809.416 243.02 814.448 Q247.728 819.426 256.277 820.184 L256.223 784.689 Z" fill="#000000" fill-rule="evenodd" fill-opacity="1" /><path clip-path="url(#clip760)" d="M 0 0 M233.118 725.656 L242.533 725.656 Q240.369 729.877 239.287 734.422 Q238.204 738.967 238.204 743.837 Q238.204 751.249 240.477 754.983 Q242.75 758.662 247.295 758.662 Q250.758 758.662 252.76 756.011 Q254.708 753.36 256.493 745.352 L257.251 741.943 Q259.523 731.338 263.69 726.901 Q267.802 722.41 275.215 722.41 Q283.656 722.41 288.579 729.119 Q293.503 735.774 293.503 747.462 Q293.503 752.332 292.529 757.634 Q291.61 762.883 289.716 768.727 L279.435 768.727 Q282.303 763.207 283.764 757.851 Q285.171 752.494 285.171 747.245 Q285.171 740.211 282.79 736.424 Q280.355 732.636 275.972 732.636 Q271.914 732.636 269.75 735.396 Q267.585 738.101 265.583 747.354 L264.772 750.817 Q262.824 760.069 258.82 764.181 Q254.762 768.294 247.728 768.294 Q239.178 768.294 234.525 762.233 Q229.872 756.173 229.872 745.027 Q229.872 739.508 230.683 734.638 Q231.495 729.768 233.118 725.656 Z" fill="#000000" fill-rule="evenodd" fill-opacity="1" /><path clip-path="url(#clip760)" d="M 0 0 M282.844 702.335 L314.984 702.335 L314.984 712.345 L231.333 712.345 L231.333 702.335 L240.531 702.335 Q235.12 699.197 232.523 694.436 Q229.872 689.62 229.872 682.965 Q229.872 671.926 238.637 665.055 Q247.403 658.129 261.688 658.129 Q275.972 658.129 284.738 665.055 Q293.503 671.926 293.503 682.965 Q293.503 689.62 290.906 694.436 Q288.255 699.197 282.844 702.335 M261.688 668.463 Q250.704 668.463 244.481 673.009 Q238.204 677.5 238.204 685.399 Q238.204 693.299 244.481 697.844 Q250.704 702.335 261.688 702.335 Q272.672 702.335 278.948 697.844 Q285.171 693.299 285.171 685.399 Q285.171 677.5 278.948 673.009 Q272.672 668.463 261.688 668.463 Z" fill="#000000" fill-rule="evenodd" fill-opacity="1" /><path clip-path="url(#clip760)" d="M 0 0 M238.313 624.203 Q238.313 632.211 244.589 636.864 Q250.812 641.517 261.688 641.517 Q272.563 641.517 278.84 636.918 Q285.062 632.265 285.062 624.203 Q285.062 616.249 278.786 611.595 Q272.509 606.942 261.688 606.942 Q250.92 606.942 244.643 611.595 Q238.313 616.249 238.313 624.203 M229.872 624.203 Q229.872 611.217 238.313 603.804 Q246.754 596.391 261.688 596.391 Q276.567 596.391 285.062 603.804 Q293.503 611.217 293.503 624.203 Q293.503 637.243 285.062 644.656 Q276.567 652.014 261.688 652.014 Q246.754 652.014 238.313 644.656 Q229.872 637.243 229.872 624.203 Z" fill="#000000" fill-rule="evenodd" fill-opacity="1" /><path clip-path="url(#clip760)" d="M 0 0 M255.357 535.573 L291.934 535.573 L291.934 545.529 L255.681 545.529 Q247.078 545.529 242.804 548.884 Q238.529 552.238 238.529 558.948 Q238.529 567.01 243.669 571.663 Q248.81 576.317 257.684 576.317 L291.934 576.317 L291.934 586.327 L231.333 586.327 L231.333 576.317 L240.748 576.317 Q235.283 572.746 232.577 567.93 Q229.872 563.06 229.872 556.729 Q229.872 546.286 236.365 540.93 Q242.804 535.573 255.357 535.573 Z" fill="#000000" fill-rule="evenodd" fill-opacity="1" /><path clip-path="url(#clip760)" d="M 0 0 M233.118 486.497 L242.533 486.497 Q240.369 490.717 239.287 495.262 Q238.204 499.807 238.204 504.677 Q238.204 512.09 240.477 515.823 Q242.75 519.503 247.295 519.503 Q250.758 519.503 252.76 516.851 Q254.708 514.2 256.493 506.192 L257.251 502.783 Q259.523 492.178 263.69 487.741 Q267.802 483.25 275.215 483.25 Q283.656 483.25 288.579 489.959 Q293.503 496.615 293.503 508.302 Q293.503 513.172 292.529 518.475 Q291.61 523.723 289.716 529.567 L279.435 529.567 Q282.303 524.048 283.764 518.691 Q285.171 513.334 285.171 508.086 Q285.171 501.052 282.79 497.264 Q280.355 493.477 275.972 493.477 Q271.914 493.477 269.75 496.236 Q267.585 498.942 265.583 508.194 L264.772 511.657 Q262.824 520.91 258.82 525.022 Q254.762 529.134 247.728 529.134 Q239.178 529.134 234.525 523.074 Q229.872 517.014 229.872 505.867 Q229.872 500.348 230.683 495.479 Q231.495 490.609 233.118 486.497 Z" fill="#000000" fill-rule="evenodd" fill-opacity="1" /><path clip-path="url(#clip760)" d="M 0 0 M259.144 420.971 L264.014 420.971 L264.014 466.747 Q274.295 466.098 279.706 460.579 Q285.062 455.005 285.062 445.104 Q285.062 439.368 283.656 434.011 Q282.249 428.6 279.435 423.298 L288.85 423.298 Q291.123 428.655 292.313 434.282 Q293.503 439.909 293.503 445.699 Q293.503 460.2 285.062 468.695 Q276.621 477.136 262.229 477.136 Q247.349 477.136 238.637 469.128 Q229.872 461.066 229.872 447.43 Q229.872 435.202 237.772 428.113 Q245.617 420.971 259.144 420.971 M256.223 430.927 Q248.052 431.035 243.182 435.526 Q238.313 439.963 238.313 447.322 Q238.313 455.655 243.02 460.687 Q247.728 465.665 256.277 466.422 L256.223 430.927 Z" fill="#000000" fill-rule="evenodd" fill-opacity="1" /><polyline clip-path="url(#clip762)" style="stroke:#808080; stroke-width:8.16; stroke-opacity:1; fill:none" points="
  539.939,938.091 592.845,938.091 
  "/>
<polyline clip-path="url(#clip762)" style="stroke:#808080; stroke-width:8.16; stroke-opacity:1; fill:none" points="
  592.845,942.901 645.752,942.901 
  "/>
<polyline clip-path="url(#clip762)" style="stroke:#808080; stroke-width:8.16; stroke-opacity:1; fill:none" points="
  645.752,952.371 698.658,952.371 
  "/>
<polyline clip-path="url(#clip762)" style="stroke:#808080; stroke-width:8.16; stroke-opacity:1; fill:none" points="
  698.658,1051.78 751.565,1051.78 
  "/>
<polyline clip-path="url(#clip762)" style="stroke:#808080; stroke-width:8.16; stroke-opacity:1; fill:none" points="
  751.565,970.561 804.471,970.561 
  "/>
<polyline clip-path="url(#clip762)" style="stroke:#808080; stroke-width:8.16; stroke-opacity:1; fill:none" points="
  804.471,1202.92 857.378,1202.92 
  "/>
<polyline clip-path="url(#clip762)" style="stroke:#808080; stroke-width:8.16; stroke-opacity:1; fill:none" points="
  857.378,1160.2 910.284,1160.2 
  "/>
<polyline clip-path="url(#clip762)" style="stroke:#808080; stroke-width:8.16; stroke-opacity:1; fill:none" points="
  910.284,1164.37 963.191,1164.37 
  "/>
<polyline clip-path="url(#clip762)" style="stroke:#808080; stroke-width:8.16; stroke-opacity:1; fill:none" points="
  963.191,1034.76 1016.1,1034.76 
  "/>
<polyline clip-path="url(#clip762)" style="stroke:#808080; stroke-width:8.16; stroke-opacity:1; fill:none" points="
  1016.1,1070.52 1069,1070.52 
  "/>
<polyline clip-path="url(#clip762)" style="stroke:#808080; stroke-width:8.16; stroke-opacity:1; fill:none" points="
  1069,939.636 1121.91,939.636 
  "/>
<polyline clip-path="url(#clip762)" style="stroke:#808080; stroke-width:8.16; stroke-opacity:1; fill:none" points="
  1121.91,902.746 1174.82,902.746 
  "/>
<polyline clip-path="url(#clip762)" style="stroke:#808080; stroke-width:8.16; stroke-opacity:1; fill:none" points="
  1174.82,885.133 1227.72,885.133 
  "/>
<polyline clip-path="url(#clip762)" style="stroke:#808080; stroke-width:8.16; stroke-opacity:1; fill:none" points="
  1227.72,841.122 1280.63,841.122 
  "/>
<polyline clip-path="url(#clip762)" style="stroke:#808080; stroke-width:8.16; stroke-opacity:1; fill:none" points="
  1280.63,835.752 1333.54,835.752 
  "/>
<polyline clip-path="url(#clip762)" style="stroke:#808080; stroke-width:8.16; stroke-opacity:1; fill:none" points="
  1333.54,804.827 1386.44,804.827 
  "/>
<polyline clip-path="url(#clip762)" style="stroke:#808080; stroke-width:8.16; stroke-opacity:1; fill:none" points="
  1386.44,785.038 1439.35,785.038 
  "/>
<polyline clip-path="url(#clip762)" style="stroke:#808080; stroke-width:8.16; stroke-opacity:1; fill:none" points="
  1439.35,763.021 1492.26,763.021 
  "/>
<polyline clip-path="url(#clip762)" style="stroke:#808080; stroke-width:8.16; stroke-opacity:1; fill:none" points="
  1492.26,747.91 1545.16,747.91 
  "/>
<polyline clip-path="url(#clip762)" style="stroke:#808080; stroke-width:8.16; stroke-opacity:1; fill:none" points="
  1545.16,707.883 1598.07,707.883 
  "/>
<polyline clip-path="url(#clip762)" style="stroke:#808080; stroke-width:8.16; stroke-opacity:1; fill:none" points="
  1598.07,583.474 1650.97,583.474 
  "/>
<polyline clip-path="url(#clip762)" style="stroke:#808080; stroke-width:8.16; stroke-opacity:1; fill:none" points="
  1650.97,542.561 1703.88,542.561 
  "/>
<polyline clip-path="url(#clip762)" style="stroke:#808080; stroke-width:8.16; stroke-opacity:1; fill:none" points="
  1703.88,527.452 1756.79,527.452 
  "/>
<polyline clip-path="url(#clip762)" style="stroke:#808080; stroke-width:8.16; stroke-opacity:1; fill:none" points="
  1756.79,485.442 1809.69,485.442 
  "/>
<polyline clip-path="url(#clip762)" style="stroke:#808080; stroke-width:8.16; stroke-opacity:1; fill:none" points="
  1809.69,469.105 1862.6,469.105 
  "/>
<polyline clip-path="url(#clip762)" style="stroke:#808080; stroke-width:8.16; stroke-opacity:1; fill:none" points="
  1862.6,433.014 1915.51,433.014 
  "/>
<polyline clip-path="url(#clip762)" style="stroke:#808080; stroke-width:8.16; stroke-opacity:1; fill:none" points="
  1915.51,425.495 1968.41,425.495 
  "/>
<polyline clip-path="url(#clip762)" style="stroke:#808080; stroke-width:8.16; stroke-opacity:1; fill:none" points="
  1968.41,402.989 2021.32,402.989 
  "/>
<polyline clip-path="url(#clip762)" style="stroke:#808080; stroke-width:8.16; stroke-opacity:1; fill:none" points="
  2021.32,370.322 2074.23,370.322 
  "/>
<polyline clip-path="url(#clip762)" style="stroke:#808080; stroke-width:8.16; stroke-opacity:1; fill:none" points="
  2074.23,360.466 2127.13,360.466 
  "/>
<polyline clip-path="url(#clip762)" style="stroke:#808080; stroke-width:8.16; stroke-opacity:1; fill:none" points="
  2127.13,289.307 2180.04,289.307 
  "/>
<polyline clip-path="url(#clip762)" style="stroke:#808080; stroke-width:8.16; stroke-opacity:1; fill:none" points="
  2180.04,273.724 2232.95,273.724 
  "/>
<polyline clip-path="url(#clip762)" style="stroke:#808080; stroke-width:8.16; stroke-opacity:1; fill:none" points="
  2232.95,270.569 2285.85,270.569 
  "/>
<polyline clip-path="url(#clip762)" style="stroke:#808080; stroke-width:8.16; stroke-opacity:1; fill:none" points="
  2285.85,225.734 2338.76,225.734 
  "/>
<polyline clip-path="url(#clip762)" style="stroke:#808080; stroke-width:8.16; stroke-opacity:1; fill:none" points="
  2338.76,203.148 2391.67,203.148 
  "/>
<polyline clip-path="url(#clip762)" style="stroke:#808080; stroke-width:8.16; stroke-opacity:1; fill:none" points="
  2391.67,215.278 2444.57,215.278 
  "/>
<polyline clip-path="url(#clip762)" style="stroke:#808080; stroke-width:8.16; stroke-opacity:1; fill:none" points="
  2444.57,202.15 2497.48,202.15 
  "/>
<polyline clip-path="url(#clip762)" style="stroke:#808080; stroke-width:8.16; stroke-opacity:1; fill:none" points="
  2497.48,178.777 2550.38,178.777 
  "/>
<polyline clip-path="url(#clip762)" style="stroke:#808080; stroke-width:8.16; stroke-opacity:1; fill:none" points="
  2550.38,113.012 2603.29,113.012 
  "/>
<polyline clip-path="url(#clip762)" style="stroke:#808080; stroke-width:8.16; stroke-opacity:1; fill:none" points="
  2603.29,149.449 2656.2,149.449 
  "/>
<polyline clip-path="url(#clip762)" style="stroke:#800080; stroke-width:11.56; stroke-opacity:1; fill:none" stroke-dasharray="46, 29" points="
  1598.07,2390.92 1598.07,-1074.99 
  "/>
<polyline clip-path="url(#clip762)" style="stroke:#d3d3d3; stroke-width:13.6; stroke-opacity:1; fill:none" points="
  1356.05,2390.92 1356.05,-1074.99 
  "/>
<polyline clip-path="url(#clip762)" style="stroke:#d3d3d3; stroke-width:13.6; stroke-opacity:1; fill:none" points="
  1840.09,2390.92 1840.09,-1074.99 
  "/>
<polyline clip-path="url(#clip762)" style="stroke:#add8e6; stroke-width:13.6; stroke-opacity:1; fill:none" points="
  1356.38,816.922 1356.48,816.871 1357.02,816.612 1357.03,816.606 1357.09,816.576 1357.43,816.413 1357.59,816.337 1358.15,816.064 1358.63,815.832 1358.82,815.74 
  1358.91,815.694 1359.24,815.533 1359.71,815.308 1359.77,815.275 1359.84,815.244 1360.41,814.967 1360.93,814.714 1361.12,814.622 1361.56,814.405 1361.72,814.329 
  1361.93,814.226 1361.99,814.199 1362.07,814.161 1362.32,814.038 1362.36,814.021 1362.54,813.934 1362.88,813.768 1362.95,813.735 1363.16,813.632 1363.25,813.585 
  1363.35,813.538 1363.83,813.308 1363.92,813.264 1363.97,813.236 1363.99,813.228 1364.13,813.161 1364.15,813.15 1364.34,813.057 1364.4,813.029 
  1364.51,812.976 1364.55,812.956 1364.56,812.953 1364.57,812.947 1365.35,812.567 1365.5,812.496 1365.54,812.477 1365.68,812.407 1365.69,812.405 1366.2,812.156 
  1366.53,811.994 1366.68,811.92 1366.72,811.905 1366.8,811.865 1366.92,811.805 1367.19,811.677 1367.31,811.615 1367.32,811.612 1367.35,811.598 1367.44,811.553 
  1367.79,811.385 1368.46,811.057 1368.57,811.003 1369.16,810.716 1369.19,810.702 1369.82,810.397 1369.88,810.37 1369.9,810.36 1369.96,810.328 1370.13,810.248 
  1370.13,810.245 1370.22,810.202 1370.68,809.981 1370.93,809.858 1371.07,809.789 1371.25,809.706 1371.29,809.683 1371.85,809.411 1372.07,809.305 1372.18,809.25 
  1372.23,809.23 1372.51,809.093 1373.79,808.469 1374.68,808.036 1374.75,808.003 1375.26,807.759 1375.39,807.694 1375.5,807.641 1375.53,807.627 1375.7,807.545 
  1375.71,807.539 1375.94,807.427 1376.02,807.387 1376.26,807.27 1376.45,807.178 1376.73,807.044 1376.82,806.998 1376.85,806.984 1377.14,806.844 1377.26,806.784 
  1377.36,806.737 1377.54,806.65 1377.67,806.586 1377.77,806.538 1377.84,806.506 1377.86,806.497 1378.16,806.35 1378.19,806.335 1378.5,806.182 1378.56,806.155 
  1378.56,806.153 1378.59,806.14 1378.64,806.116 1378.69,806.09 1378.84,806.021 1379.51,805.694 1379.62,805.64 1379.73,805.589 1379.8,805.551 1379.96,805.477 
  1380.15,805.385 1380.5,805.215 1380.76,805.086 1381.39,804.782 1381.43,804.763 1381.51,804.723 1381.63,804.666 1381.96,804.504 1382.44,804.273 1382.6,804.192 
  1382.62,804.185 1383.08,803.959 1383.66,803.679 1384.2,803.419 1384.39,803.323 1384.63,803.209 1384.72,803.166 1384.87,803.093 1385.55,802.762 1385.65,802.714 
  1385.82,802.632 1385.84,802.62 1386.22,802.437 1386.75,802.179 1386.76,802.177 1387.23,801.948 1387.28,801.922 1387.48,801.824 1387.72,801.71 1387.87,801.635 
  1388.15,801.499 1388.4,801.379 1388.55,801.308 1388.7,801.235 1389.04,801.07 
  1389.16,801.007 1389.92,800.643 1390.04,800.581 1390.15,800.53 1390.39,800.413 1390.39,800.41 1390.41,800.403 1390.51,800.354 1390.84,800.194 1390.86,800.182 
  1390.95,800.138 1391.35,799.944 1391.51,799.866 1391.91,799.675 1392.04,799.611 1392.37,799.449 1392.64,799.321 1392.67,799.306 1392.78,799.254 1393.07,799.113 
  1393.51,798.899 1393.52,798.894 1393.65,798.83 1393.75,798.781 1393.98,798.67 1394.42,798.457 1395.88,797.747 1395.93,797.725 1395.96,797.71 1396.17,797.608 
  1396.32,797.535 1396.37,797.508 1396.41,797.49 1396.48,797.455 1396.77,797.316 1396.99,797.21 1397.19,797.112 1397.38,797.02 1397.77,796.831 1397.78,796.824 
  1397.9,796.766 1397.98,796.728 1397.99,796.723 1398.08,796.68 1398.18,796.629 1398.26,796.594 1398.28,796.58 1398.48,796.487 1399.44,796.019 1399.83,795.832 
  1399.87,795.811 1400.11,795.695 1400.23,795.635 1400.49,795.508 1401.67,794.934 1401.95,794.802 1401.97,794.791 1402.01,794.771 1402.24,794.662 1402.4,794.581 
  1402.48,794.545 1402.59,794.491 1402.85,794.363 1403.73,793.937 1403.81,793.898 1403.98,793.816 1404.12,793.749 1404.19,793.715 1404.21,793.705 1404.23,793.693 
  1404.33,793.647 1404.61,793.507 1404.62,793.505 1404.84,793.399 1404.9,793.369 1405.19,793.229 1405.24,793.206 1406.08,792.797 1406.33,792.677 1406.92,792.386 
  1407.08,792.309 1407.13,792.286 1407.49,792.11 1407.71,792.007 1407.72,792.002 1407.86,791.931 1408.29,791.721 1408.45,791.646 1408.46,791.64 1408.65,791.549 
  1408.68,791.533 1408.75,791.5 1409.11,791.326 1409.21,791.275 1409.41,791.177 1409.42,791.177 1409.42,791.174 1409.43,791.168 1409.95,790.916 1410.04,790.874 
  1410.64,790.581 1410.87,790.47 1410.99,790.413 1411.02,790.397 1411.17,790.323 1411.25,790.287 1411.28,790.271 1411.72,790.059 1411.85,789.996 1412.37,789.741 
  1413.05,789.411 1413.75,789.07 1413.85,789.025 1413.89,789.003 1414.02,788.941 1414.13,788.888 1414.16,788.874 1414.18,788.864 1415.39,788.275 1415.7,788.124 
  1416.05,787.957 1416.34,787.814 1416.76,787.609 1417.22,787.387 1417.43,787.286 1418.05,786.986 1418.06,786.978 1418.07,786.973 1418.4,786.816 1418.47,786.78 
  1418.51,786.761 1418.54,786.749 1418.56,786.736 1418.74,786.651 1418.75,786.643 1418.83,786.606 1418.86,786.591 1419.18,786.438 1419.56,786.25 1419.69,786.188 
  1419.7,786.183 1419.81,786.131 1420.05,786.015 1420.11,785.986 1420.25,785.918 1420.91,785.599 1421.14,785.486 1421.22,785.448 1421.22,785.444 1421.48,785.321 
  1421.49,785.317 1421.65,785.239 1421.78,785.173 1421.79,785.168 1421.92,785.104 1422.17,784.984 1422.28,784.932 1422.51,784.818 1422.52,784.817 1422.63,784.76 
  1422.7,784.726 1422.82,784.668 1422.97,784.598 1422.99,784.585 1423.15,784.508 1423.39,784.39 1423.44,784.369 1423.63,784.278 1423.64,784.273 1424.3,783.952 
  1424.65,783.781 1424.79,783.713 1425.99,783.132 1426.02,783.115 1426.31,782.977 1426.34,782.962 1426.37,782.949 1426.45,782.906 1426.51,782.876 1426.65,782.809 
  1427.02,782.632 1427.04,782.619 1427.15,782.57 1427.27,782.509 1427.4,782.448 1427.45,782.422 1427.56,782.366 1427.67,782.313 1427.69,782.306 
  1427.72,782.291 1427.82,782.243 1427.84,782.232 1428.29,782.013 1428.49,781.919 1429.05,781.645 1429.07,781.637 1429.39,781.481 1429.52,781.416 1429.66,781.351 
  1429.75,781.303 1429.83,781.266 1429.94,781.211 1430.35,781.016 1430.48,780.952 1430.52,780.933 1430.54,780.922 1430.59,780.895 1430.87,780.763 1431.49,780.46 
  1431.6,780.408 1432.67,779.887 1433.14,779.662 1433.16,779.65 1433.32,779.572 1433.88,779.298 1434.01,779.236 1434.1,779.194 1434.11,779.188 1434.16,779.166 
  1434.44,779.03 1434.55,778.975 1434.57,778.966 1435.44,778.543 1435.56,778.487 1435.78,778.377 1435.81,778.362 1436.13,778.211 1436.37,778.09 1436.61,777.976 
  1437.04,777.768 1437.42,777.581 1437.48,777.551 1437.68,777.457 1437.69,777.449 1438.07,777.267 1438.42,777.096 1438.67,776.978 1438.73,776.948 
  1438.73,776.946 1438.81,776.906 1439.14,776.745 1439.17,776.734 1439.18,776.729 1439.55,776.549 1439.67,776.489 1439.92,776.368 1439.94,776.357 1440.44,776.117 
  1440.78,775.951 1440.99,775.847 1441.03,775.828 1441.09,775.801 1441.2,775.748 1441.41,775.643 1441.67,775.52 1441.76,775.475 1441.93,775.393 1441.97,775.372 
  1442,775.357 1442.19,775.269 1442.35,775.187 1442.61,775.063 1442.66,775.036 1442.72,775.01 1442.98,774.884 1443.19,774.782 1443.51,774.627 1443.87,774.449 
  1444.11,774.333 1444.44,774.176 1444.62,774.089 1444.69,774.052 1444.72,774.041 1444.89,773.955 1444.97,773.917 1445.48,773.672 1445.92,773.456 1446.01,773.413 
  1446.26,773.289 1446.28,773.282 1446.29,773.276 1446.49,773.178 1446.99,772.934 1447.05,772.909 1447.57,772.657 1447.66,772.613 1447.97,772.463 1448.08,772.405 
  1448.11,772.392 1448.4,772.251 1448.7,772.106 1449.21,771.859 1449.86,771.545 1449.97,771.49 1450.28,771.338 1450.42,771.271 1450.44,771.263 1450.45,771.257 
  1450.57,771.198 1450.75,771.11 1450.84,771.068 1451,770.99 1451.55,770.724 1451.74,770.63 1451.82,770.59 1452.02,770.493 1452.09,770.461 1452.35,770.333 
  1452.53,770.249 1452.66,770.184 1452.7,770.164 1452.71,770.161 1452.73,770.148 1452.9,770.066 1452.93,770.055 1453.2,769.921 1453.57,769.741 1453.8,769.629 
  1453.9,769.584 1454.04,769.516 1454.18,769.446 1454.29,769.391 1454.35,769.366 1454.79,769.153 1454.91,769.092 1455.66,768.727 1455.8,768.661 1455.84,768.642 
  1455.94,768.593 1456.01,768.558 1456.07,768.528 1456.13,768.501 1456.37,768.383 1456.49,768.325 1456.58,768.283 1457.15,768.007 1457.3,767.93 1457.84,767.671 
  1458.16,767.516 1458.35,767.424 1458.35,767.42 1458.47,767.364 1458.64,767.28 1459,767.107 1459.01,767.101 1459.1,767.058 1459.24,766.99 
  1459.29,766.964 1459.37,766.927 1459.39,766.916 1459.68,766.777 1459.91,766.663 1459.92,766.659 1460.15,766.546 1460.2,766.522 1460.54,766.361 1460.57,766.345 
  1460.62,766.32 1460.77,766.248 1461.18,766.046 1461.22,766.028 1461.32,765.979 1461.53,765.878 1461.61,765.838 1461.95,765.675 1462.28,765.514 1462.57,765.375 
  1462.59,765.364 1462.81,765.259 1462.91,765.207 1462.95,765.187 1463.08,765.124 1463.17,765.083 1463.18,765.076 1463.3,765.019 1464.15,764.609 1464.15,764.606 
  1464.39,764.492 1464.39,764.49 1464.51,764.434 1464.89,764.247 1464.93,764.227 1465,764.194 1465.27,764.063 1465.57,763.919 1465.58,763.913 1465.87,763.772 
  1466.14,763.639 1466.48,763.476 1466.5,763.465 1466.65,763.39 1466.88,763.283 1466.98,763.232 1467.01,763.217 1467.25,763.102 1467.44,763.01 1467.5,762.979 
  1467.9,762.787 1468.26,762.613 1468.51,762.489 1469.07,762.216 1469.95,761.792 1469.96,761.784 1470.21,761.664 
  1470.6,761.475 1470.68,761.437 1470.85,761.356 1471.01,761.279 1471.29,761.14 1471.42,761.078 1471.45,761.063 1471.6,760.99 1471.91,760.84 
  1471.92,760.837 1472.02,760.784 1472.56,760.526 1472.76,760.426 1472.83,760.392 1472.91,760.354 1473.1,760.264 1473.16,760.233 1473.43,760.1 1473.58,760.027 
  1473.73,759.954 1473.76,759.94 1473.89,759.88 1474.17,759.745 1474.46,759.604 1474.47,759.595 1474.83,759.42 1474.84,759.418 1474.85,759.414 1474.98,759.348 
  1475.09,759.296 1475.1,759.293 1475.27,759.21 1475.64,759.031 1475.86,758.92 1475.99,758.861 1476.29,758.712 1476.3,758.709 1476.31,758.702 1476.52,758.6 
  1476.64,758.543 1476.64,758.542 1476.72,758.507 1477.02,758.361 1477.12,758.312 1477.33,758.207 1478.01,757.879 1478.26,757.759 1478.27,757.754 1478.27,757.753 
  1478.46,757.661 1478.64,757.574 1479.17,757.316 1479.21,757.295 1479.3,757.253 1479.54,757.135 1479.84,756.992 1480.04,756.891 1480.08,756.875 1480.24,756.794 
  1480.4,756.716 1480.89,756.481 1480.94,756.454 1480.98,756.435 1481.03,756.412 1481.09,756.385 1481.21,756.323 1481.44,756.213 1481.79,756.041 1482.19,755.849 
  1482.31,755.793 1482.32,755.787 1482.86,755.526 1482.91,755.499 1483.2,755.357 1483.28,755.322 1483.31,755.306 1483.4,755.263 1483.62,755.157 1483.98,754.979 
  1484.22,754.862 1484.34,754.805 1484.41,754.773 1484.51,754.725 1484.53,754.713 1484.63,754.665 1484.74,754.609 1484.83,754.567 1484.85,754.559 1485.19,754.391 
  1485.22,754.38 1485.3,754.339 1485.64,754.176 1485.69,754.149 1485.78,754.105 1485.84,754.076 1485.98,754.01 1486.17,753.915 1486.29,753.859 1486.3,753.856 
  1486.3,753.853 1486.53,753.742 1486.54,753.739 1486.59,753.715 1486.85,753.585 1487.06,753.484 1487.42,753.308 1487.45,753.297 1488.22,752.922 1488.43,752.821 
  1488.69,752.696 1488.94,752.574 1489.48,752.312 1489.68,752.211 1489.77,752.167 1489.79,752.16 1490.11,752.004 1490.14,751.992 1490.43,751.848 1490.97,751.585 
  1491.01,751.567 1491.1,751.522 1491.67,751.249 1491.87,751.148 1492.08,751.05 1492.29,750.946 1492.42,750.882 1492.75,750.722 1492.85,750.677 1492.93,750.635 
  1493.13,750.537 1493.16,750.523 1493.22,750.496 1493.64,750.291 1493.65,750.284 1493.71,750.257 1493.92,750.153 1493.95,750.14 1494.1,750.067 1494.2,750.018 
  1494.23,750.006 1494.39,749.929 1494.67,749.792 1494.9,749.679 1494.93,749.663 1495.04,749.611 1495.23,749.518 1495.51,749.384 1495.61,749.333 1495.77,749.259 
  1496.14,749.079 1496.41,748.947 1496.54,748.884 1496.86,748.728 1497.01,748.654 1497.14,748.59 1497.23,748.546 1497.76,748.289 1498.38,747.989 1498.65,747.861 
  1498.69,747.838 1498.93,747.721 1499.03,747.674 1499.14,747.621 1499.45,747.472 1499.59,747.403 1499.59,747.402 1499.83,747.287 1499.93,747.237 1500.08,747.167 
  1500.18,747.114 1500.22,747.097 1500.33,747.042 1500.39,747.013 1500.56,746.934 1500.66,746.882 1501.03,746.703 1501.3,746.573 1501.53,746.46 1501.56,746.445 
  1501.71,746.373 1501.91,746.279 1502.64,745.921 1502.88,745.807 1503.57,745.47 1503.62,745.446 1503.64,745.437 1503.89,745.317 1503.93,745.298 1503.94,745.293 
  1504.26,745.137 1504.47,745.032 1504.65,744.946 1505,744.776 1505.24,744.662 1505.45,744.557 1505.49,744.537 1505.54,744.514 1505.72,744.425 1505.97,744.304 
  1506.26,744.163 1506.27,744.162 1506.32,744.133 1506.59,744.003 1506.8,743.902 1507.14,743.738 1507.35,743.636 1507.55,743.537 1507.61,743.507 1507.97,743.335 
  1508.18,743.232 1508.21,743.216 1508.24,743.205 1508.81,742.926 1509.12,742.778 1509.31,742.685 1509.31,742.683 1509.52,742.581 1509.63,742.531 1509.8,742.448 
  1509.9,742.397 1510.31,742.199 1510.33,742.188 1510.93,741.898 1511.07,741.828 1511.36,741.689 1511.41,741.665 1511.84,741.455 
  1512.08,741.341 1512.39,741.19 1512.41,741.18 1512.56,741.106 1512.85,740.965 1513.5,740.651 1513.83,740.491 1513.91,740.451 1514.21,740.305 1514.22,740.301 
  1514.24,740.292 1514.33,740.248 1514.42,740.203 1514.43,740.201 1514.46,740.186 1514.56,740.136 1514.77,740.032 1514.86,739.988 1515.05,739.898 1515.11,739.868 
  1515.79,739.537 1516.03,739.42 1516.05,739.411 1516.13,739.376 1516.26,739.31 1516.4,739.243 1516.43,739.227 1516.57,739.159 1516.76,739.069 1516.88,739.008 
  1516.9,739.001 1517.63,738.645 1517.67,738.625 1517.86,738.533 1517.9,738.516 1518.03,738.452 1518.04,738.449 1518.23,738.356 1518.4,738.274 1518.48,738.233 
  1518.53,738.208 1518.55,738.2 1518.56,738.193 1518.82,738.067 1518.88,738.036 1519.16,737.901 1519.28,737.843 1519.69,737.646 1519.81,737.586 1519.96,737.515 
  1520.07,737.462 1520.14,737.426 1520.84,737.088 1520.85,737.082 1520.96,737.029 1521.08,736.969 1521.32,736.854 1521.54,736.746 1521.7,736.671 1522.05,736.497 
  1522.14,736.454 1522.18,736.435 1522.2,736.427 1522.46,736.303 1522.67,736.198 1523.01,736.032 1523.42,735.832 1523.46,735.814 1523.53,735.78 1523.64,735.73 
  1523.86,735.62 1523.87,735.614 1524.28,735.417 1524.68,735.221 1524.73,735.2 1525.13,735.004 1525.42,734.862 1525.47,734.841 1525.57,734.793 1525.68,734.738 
  1525.8,734.677 1525.97,734.595 1526.11,734.53 1526.14,734.512 1526.29,734.444 1526.73,734.228 1526.88,734.153 1527.11,734.042 1527.14,734.027 1527.18,734.007 
  1527.53,733.837 1527.63,733.79 1527.66,733.778 1527.87,733.676 1527.91,733.656 1527.96,733.629 1528.05,733.585 1528.16,733.534 1528.45,733.391 1528.51,733.361 
  1528.52,733.358 1528.56,733.337 1528.92,733.163 1529.37,732.946 1529.94,732.67 1530.44,732.427 1531.26,732.028 1531.41,731.957 1531.84,731.75 1532.21,731.568 
  1532.23,731.559 1532.31,731.517 1532.37,731.49 1532.52,731.418 1533.02,731.177 1533.04,731.166 1533.08,731.144 1533.19,731.092 1533.22,731.079 1533.26,731.056 
  1533.3,731.038 1533.35,731.014 1533.6,730.892 1533.76,730.815 1533.77,730.811 1533.81,730.792 1533.87,730.763 1534.15,730.626 1534.58,730.417 1534.93,730.25 
  1535.01,730.207 1535.07,730.18 1535.08,730.176 1535.1,730.164 1535.14,730.143 1535.22,730.106 1535.42,730.007 1535.47,729.983 1535.97,729.744 1536.05,729.705 
  1536.2,729.632 1536.21,729.625 1536.31,729.578 1536.45,729.511 1536.71,729.382 1536.97,729.259 1537.07,729.21 1537.09,729.197 1537.21,729.138 1537.46,729.021 
  1537.51,728.995 1537.52,728.989 1537.91,728.802 1538.97,728.286 1538.99,728.277 1539.05,728.248 1539.08,728.233 1539.8,727.882 1539.99,727.789 1540.41,727.588 
  1540.43,727.577 1540.44,727.573 1540.47,727.558 1540.5,727.543 1540.5,727.542 1540.66,727.465 1540.97,727.314 1541,727.301 1541.29,727.161 1541.62,726.998 
  1542.25,726.692 1542.35,726.645 1542.83,726.412 1542.87,726.395 1542.92,726.366 1543.24,726.211 1543.84,725.923 1544,725.843 1544.01,725.84 1544.11,725.789 
  1544.17,725.764 1544.33,725.685 1544.34,725.68 1544.45,725.626 1544.47,725.616 1544.48,725.611 1544.63,725.537 1544.64,725.536 1544.78,725.467 1545.15,725.284 
  1545.18,725.271 1545.39,725.17 1545.77,724.986 1546.5,724.631 1547.14,724.321 1547.68,724.06 1547.85,723.975 1548.08,723.863 1548.15,723.83 1548.41,723.703 
  1548.64,723.59 1548.92,723.458 1549.04,723.398 1549.19,723.323 1549.35,723.25 1549.57,723.142 1549.86,723.002 1549.88,722.99 1549.92,722.97 1550.04,722.911 
  1550.64,722.62 1550.98,722.455 1551.12,722.388 1551.35,722.274 1551.37,722.268 1551.51,722.201 1551.85,722.035 1551.86,722.027 1552.16,721.882 1552.39,721.772 
  1552.78,721.585 1552.89,721.526 1553.07,721.443 1553.09,721.432 1553.15,721.405 1553.47,721.247 1553.68,721.146 1553.76,721.109 1553.8,721.087 1554.07,720.957 
  1554.12,720.931 1554.43,720.782 1554.78,720.612 1554.81,720.597 1554.85,720.58 1555.06,720.475 1555.16,720.427 1555.2,720.408 1555.27,720.372 1555.33,720.343 
  1555.43,720.298 1555.51,720.256 1555.56,720.231 1555.74,720.147 1556.31,719.871 1557.07,719.498 1557.08,719.495 1557.18,719.446 1557.27,719.401 1557.49,719.297 
  1557.51,719.288 1557.6,719.243 1557.71,719.189 1557.81,719.142 1557.83,719.13 1557.83,719.13 1557.85,719.121 1557.98,719.058 1558.05,719.026 1558.19,718.958 
  1558.31,718.898 1558.41,718.85 1558.41,718.847 1558.74,718.691 1558.89,718.617 1559.16,718.484 1559.23,718.452 1559.46,718.34 
  1559.47,718.333 1559.58,718.28 1559.7,718.222 1559.79,718.18 1559.81,718.17 1559.94,718.108 
  1560.17,717.995 1560.22,717.969 1560.29,717.936 1560.55,717.811 1561.02,717.585 1561.34,717.425 1561.51,717.346 1561.53,717.335 1561.87,717.171 1561.87,717.168 
  1562.11,717.054 1562.2,717.011 1562.25,716.987 1562.73,716.75 1562.77,716.735 1563.2,716.524 1563.32,716.466 1563.36,716.445 1563.39,716.433 1563.53,716.366 
  1563.59,716.336 1563.59,716.333 1563.65,716.307 1563.92,716.176 1565.37,715.469 1565.38,715.465 1565.58,715.371 1565.68,715.319 1565.87,715.229 1566.12,715.106 
  1566.4,714.969 1566.62,714.865 1566.82,714.765 1567.11,714.625 1567.38,714.496 1567.65,714.363 1567.73,714.327 1567.91,714.237 1568.34,714.028 1569.1,713.66 
  1569.16,713.632 1569.37,713.527 1569.46,713.483 1569.55,713.44 1569.6,713.419 1569.65,713.394 1570.56,712.952 1570.64,712.911 1570.75,712.861 1571.17,712.656 
  1571.33,712.579 1571.69,712.402 1571.82,712.338 1571.84,712.331 1572.03,712.238 1572.04,712.231 1572.18,712.166 1572.21,712.15 1572.55,711.986 1572.57,711.977 
  1572.85,711.84 1573.39,711.579 1573.65,711.451 1573.74,711.407 1573.8,711.378 1573.87,711.342 1573.94,711.313 1573.99,711.286 1574.08,711.24 1574.42,711.076 
  1574.95,710.818 1575.04,710.778 1575.06,710.767 1575.22,710.691 1575.31,710.647 1575.37,710.618 1575.65,710.482 1575.66,710.473 1576.16,710.233 1576.18,710.224 
  1576.22,710.204 1576.34,710.145 1576.38,710.128 1576.81,709.918 
  1576.86,709.89 1576.97,709.838 1577.02,709.817 1577.08,709.788 1577.09,709.782 1577.61,709.53 
  1577.8,709.438 1578.04,709.321 1578.07,709.304 1578.15,709.265 1578.17,709.257 1578.34,709.176 1578.76,708.97 1578.88,708.914 1578.88,708.914 1579.2,708.759 
  1579.3,708.709 1579.38,708.668 1579.45,708.637 1579.47,708.625 1579.95,708.392 1579.97,708.383 1580,708.367 1580.27,708.237 1580.29,708.228 1580.38,708.186 
  1580.63,708.061 1581.37,707.702 1581.53,707.624 1581.56,707.613 1581.81,707.488 1582.38,707.214 1582.55,707.133 1583.11,706.859 1583.25,706.789 
  1583.29,706.771 1583.36,706.74 1583.63,706.606 1583.8,706.522 1583.94,706.455 1584.01,706.421 1584.05,706.404 1584.2,706.328 1584.36,706.251 1584.48,706.192 
  1584.56,706.156 1584.63,706.12 1585.17,705.859 1585.3,705.798 1585.58,705.662 1585.65,705.624 1585.86,705.525 1585.87,705.52 1586.44,705.244 1586.52,705.205 
  1587.64,704.661 1587.92,704.526 1587.97,704.498 1588.1,704.436 1588.18,704.397 1588.47,704.257 1588.71,704.143 1589.47,703.772 1589.71,703.657 1589.82,703.601 
  1590.21,703.412 1590.23,703.401 1590.65,703.2 1590.77,703.141 1591.16,702.951 1591.5,702.785 1591.6,702.739 1591.9,702.592 1592.21,702.44 1592.28,702.407 
  1592.5,702.3 1592.67,702.22 1592.68,702.214 1593.15,701.984 1593.35,701.89 1593.51,701.809 1593.58,701.776 1593.89,701.627 1594.14,701.506 1594.27,701.442 
  1594.28,701.437 1594.28,701.436 1594.64,701.26 1594.7,701.232 1594.74,701.215 1594.76,701.204 1595.32,700.93 1595.43,700.878 1595.57,700.809 1595.64,700.778 
  1596.01,700.598 1596.06,700.573 1596.15,700.527 1596.19,700.51 1596.53,700.345 1596.82,700.202 1596.95,700.139 1597.5,699.876 1597.71,699.771 1597.75,699.754 
  1598.19,594.245 1598.24,594.215 1598.56,594.04 1598.75,593.932 1598.95,593.824 1599.05,593.765 1599.19,593.689 1599.2,593.688 1599.31,593.624 1599.44,593.555 
  1599.52,593.506 1599.57,593.479 1599.68,593.423 1599.81,593.351 1600.41,593.016 1600.61,592.909 1600.67,592.872 1600.78,592.814 1600.99,592.699 1601.08,592.648 
  1601.34,592.505 1601.52,592.402 1601.88,592.206 1601.89,592.202 1602.27,591.992 1602.41,591.912 1602.59,591.816 1602.76,591.72 1602.85,591.671 1603.29,591.43 
  1603.37,591.386 1603.45,591.343 1603.45,591.339 1603.8,591.15 1604.03,591.021 1604.06,591.001 1604.21,590.923 1604.32,590.857 1604.33,590.856 1604.41,590.812 
  1604.48,590.771 1604.79,590.601 1605.09,590.436 1605.32,590.31 1605.51,590.205 1605.64,590.132 1606.53,589.642 1606.75,589.517 1607.16,589.292 1607.77,588.958 
  1608.1,588.775 1608.17,588.738 1608.26,588.683 1608.4,588.606 1608.43,588.593 1608.53,588.535 1608.63,588.483 1609.04,588.254 1609.08,588.233 1609.36,588.078 
  1609.48,588.013 1609.83,587.818 1610.25,587.587 1610.54,587.426 1610.71,587.333 1610.74,587.316 1611.32,587 1611.54,586.876 1611.57,586.86 1611.57,586.857 
  1611.65,586.816 1611.78,586.744 1612.18,586.525 1612.49,586.354 1612.6,586.29 1612.77,586.198 1613.01,586.065 1613.21,585.954 1613.31,585.902 1613.7,585.684 
  1613.71,585.677 1613.82,585.62 1614.06,585.488 1614.32,585.343 1614.41,585.29 1614.44,585.275 1614.52,585.234 1614.53,585.225 1614.68,585.144 1614.71,585.126 
  1614.9,585.022 1614.99,584.972 1615.42,584.732 1615.46,584.711 1615.51,584.687 1616,584.415 1616.11,584.354 1616.19,584.309 1616.33,584.232 1616.4,584.197 
  1616.42,584.182 1616.46,584.163 1616.77,583.988 1616.94,583.894 1616.98,583.872 1617.04,583.84 1617.05,583.833 
  1617.24,583.728 1617.6,583.53 1617.8,583.422 1618.13,583.237 1618.54,583.011 1618.64,582.958 
  1618.85,582.845 
  1619.32,582.583 1619.71,582.368 1620.89,581.717 1620.91,581.705 1621.18,581.557 1621.28,581.499 1621.43,581.419 1621.43,581.418 1621.59,581.328 1621.64,581.305 
  1621.72,581.258 1621.99,581.111 1622.29,580.944 1622.67,580.736 1623.28,580.398 1623.71,580.162 1623.76,580.131 1624.3,579.834 1624.33,579.817 1624.6,579.667 
  1624.67,579.629 1624.79,579.563 1624.88,579.516 1624.93,579.49 1624.93,579.485 1625.76,579.03 1625.85,578.982 1625.88,578.961 1626,578.894 1626.35,578.705 
  1626.51,578.615 1626.74,578.487 1626.77,578.471 1626.87,578.415 1627.07,578.306 1627.21,578.23 1627.25,578.21 1627.41,578.118 1627.81,577.899 1627.83,577.885 
  1627.97,577.807 1628.11,577.735 1628.2,577.68 1628.28,577.64 1628.53,577.503 1628.53,577.498 1628.76,577.377 1628.77,577.367 1628.8,577.351 1628.81,577.348 
  1629.07,577.202 1629.11,577.183 1629.15,577.16 1629.18,577.142 1629.22,577.119 1629.34,577.055 1629.42,577.009 1629.62,576.897 1629.64,576.888 1629.87,576.761 
  1629.89,576.75 1630.43,576.453 1630.47,576.432 1630.51,576.409 1631.01,576.132 1631.07,576.099 1631.12,576.074 1631.53,575.844 1631.72,575.74 1631.91,575.638 
  1631.99,575.592 1631.99,575.591 1632.21,575.469 1632.33,575.404 1632.43,575.347 1632.58,575.264 1633.07,574.994 1633.32,574.855 1633.41,574.81 1633.42,574.801 
  1633.46,574.78 1633.59,574.708 1633.83,574.577 1633.93,574.522 1633.99,574.488 1634.08,574.441 1634.17,574.389 1634.38,574.275 1634.86,574.006 1635.19,573.827 
  1635.19,573.824 1635.61,573.595 1635.79,573.495 1636.01,573.375 1636.29,573.22 1636.34,573.192 1636.46,573.123 1637.05,572.802 1637.07,572.788 1637.53,572.532 
  1637.53,572.532 1637.72,572.43 1637.97,572.29 1638.58,571.957 1638.7,571.888 1638.74,571.865 1638.94,571.759 1638.98,571.732 1639,571.722 1639.17,571.632 
  1639.18,571.622 1639.5,571.445 1639.65,571.367 1639.69,571.345 1639.69,571.342 1639.73,571.318 1639.77,571.297 1640.16,571.081 1640.28,571.016 1640.46,570.92 
  1640.58,570.85 1640.65,570.814 1640.79,570.737 1640.8,570.733 1641.2,570.512 1641.44,570.378 1641.54,570.324 1641.84,570.156 1641.85,570.153 1641.87,570.141 
  1642.01,570.061 1642.02,570.059 1642.2,569.96 1642.24,569.933 1642.31,569.897 1642.53,569.776 1642.58,569.747 1642.64,569.717 1642.76,569.647 1642.85,569.601 
  1642.85,569.6 1642.89,569.576 1643.12,569.449 1643.37,569.31 1643.57,569.202 1643.72,569.121 1643.85,569.045 1643.9,569.018 1644.03,568.946 1644.04,568.941 
  1644.29,568.805 1644.36,568.767 1644.91,568.459 1644.97,568.431 1644.99,568.418 1645.16,568.322 1645.38,568.203 1645.41,568.188 1645.61,568.077 1645.73,568.008 
  1645.77,567.99 1645.77,567.989 1646.07,567.821 1646.16,567.772 1646.33,567.678 1646.42,567.63 1646.56,567.553 1646.57,567.546 1646.66,567.496 1646.87,567.382 
  1647,567.309 1647.22,567.187 1647.43,567.074 1647.71,566.916 1647.88,566.823 1648.06,566.725 1648.38,566.546 1648.39,566.54 1648.47,566.496 1648.52,566.469 
  1648.54,566.46 1648.82,566.306 1648.84,566.295 1649.07,566.168 1649.15,566.121 1649.37,566.002 1649.54,565.905 1649.71,565.813 1649.88,565.72 1650.05,565.627 
  1650.11,565.591 1650.31,565.481 1651.28,564.947 1651.49,564.829 1651.73,564.698 1652.07,564.514 1652.15,564.465 1652.32,564.374 1652.37,564.344 1652.42,564.317 
  1652.48,564.284 1652.58,564.229 1652.76,564.131 1652.76,564.128 1652.81,564.102 1652.92,564.04 1653.03,563.981 1653.03,563.98 1653.04,563.976 1653.22,563.875 
  1653.31,563.829 1653.78,563.569 1654.11,563.385 1654.21,563.333 1654.24,563.314 1654.28,563.29 1654.64,563.092 1654.72,563.05 1654.86,562.974 1654.95,562.922 
  1655.03,562.88 1655.4,562.672 1655.49,562.622 1655.77,562.467 
  1655.98,562.354 1656.21,562.229 1656.26,562.197 1657,561.79 1657.08,561.745 1657.28,561.637 1657.29,561.633 1657.6,561.458 1657.69,561.413 1657.74,561.384 
  1657.77,561.365 1658.42,561.008 1658.54,560.943 1658.68,560.863 1659.02,560.676 1659.33,560.503 1659.46,560.434 1659.76,560.267 1660,560.136 1660.66,559.772 
  1661.05,559.554 1661.41,559.358 1662.03,559.016 1662.14,558.956 1662.31,558.86 1662.42,558.8 1662.48,558.767 1662.63,558.682 1662.65,558.67 1662.86,558.559 
  1662.97,558.498 1663.35,558.289 1663.52,558.194 1663.8,558.036 1663.92,557.97 1664.18,557.829 1664.5,557.654 1664.85,557.462 1664.99,557.384 1665.1,557.323 
  1665.14,557.3 1665.22,557.256 1665.27,557.226 1665.48,557.114 1665.55,557.073 1665.8,556.934 1665.93,556.862 1666.17,556.731 1666.25,556.687 
  1666.37,556.622 1666.42,556.596 1666.71,556.434 1666.91,556.323 1666.98,556.285 1666.98,556.281 1667.52,555.986 1667.59,555.95 1667.62,555.932 
  1667.72,555.874 1668.05,555.695 1668.09,555.673 1668.24,555.586 1668.33,555.54 1668.38,555.509 1668.85,555.253 1669.14,555.093 1669.24,555.035 1669.36,554.969 
  1669.46,554.917 1669.72,554.771 1669.75,554.757 1669.76,554.75 1669.86,554.693 1669.98,554.63 1670.06,554.587 1670.22,554.498 1670.32,554.44 1670.5,554.344 
  1670.51,554.337 1670.51,554.336 1671.03,554.049 1671.21,553.95 1671.26,553.919 1671.53,553.774 1671.54,553.767 1671.89,553.574 1671.95,553.543 1671.96,553.536 
  1672.01,553.51 1672.52,553.229 1672.9,553.018 1673.49,552.691 1673.82,552.51 1673.83,552.505 1673.96,552.431 1674.16,552.322 1674.38,552.2 1674.39,552.196 
  1674.42,552.18 1674.43,552.171 1674.75,551.998 1674.95,551.887 1675.22,551.737 1675.47,551.6 1676.04,551.285 1676.11,551.246 1676.13,551.237 1676.5,551.031 
  1676.89,550.817 1676.9,550.81 1677.08,550.713 1677.19,550.653 1677.33,550.571 1677.5,550.481 1677.55,550.454 1677.65,550.399 1677.85,550.287 1678.05,550.175 
  1678.38,549.994 1678.38,549.991 1678.39,549.988 1678.42,549.973 1678.54,549.906 1678.57,549.89 1678.87,549.724 1678.96,549.674 1679.05,549.625 1679.14,549.571 
  1679.68,549.276 1679.78,549.222 1680.53,548.807 1680.78,548.668 1681.04,548.526 1681.09,548.499 1681.18,548.447 1681.23,548.423 1681.33,548.365 1681.56,548.24 
  1682.16,547.908 1682.46,547.743 1682.54,547.696 1682.59,547.672 1682.62,547.654 1683.04,547.422 1683.1,547.391 1683.12,547.378 1683.29,547.285 1683.36,547.246 
  1683.93,546.932 1684.06,546.858 1684.32,546.718 1684.34,546.703 1684.87,546.41 1684.93,546.379 1684.98,546.351 1685.17,546.249 
  
  
  1685.25,546.201 1685.3,546.172 1685.36,546.142 1685.69,545.958 1686.15,545.703 1686.18,545.692 1686.36,545.591 1686.39,545.574 
  1686.48,545.521 1686.54,545.488 1687.54,544.939 1687.75,544.824 1688.13,544.613 1688.68,544.311 1688.71,544.291 1689.03,544.118 1689.18,544.036 1689.27,543.981 
  1689.3,543.969 1689.47,543.873 1689.53,543.84 1690.51,543.3 1690.52,543.294 1690.56,543.27 1690.75,543.168 1690.8,543.142 1690.88,543.093 1691.08,542.986 
  1691.1,542.972 1691.44,542.785 1691.59,542.702 1691.82,542.575 1692.11,542.417 1692.13,542.406 1692.29,542.319 1692.37,542.275 1692.37,542.273 1692.5,542.201 
  1692.58,542.157 1692.81,542.031 1693.02,541.915 1693.09,541.878 1693.19,541.822 1693.46,541.669 1693.53,541.631 1694.41,541.146 1694.45,541.125 1694.65,541.016 
  1694.81,540.927 1695,540.821 1695.2,540.714 1695.4,540.603 1695.96,540.291 1696.39,540.053 1696.42,540.04 1696.49,540.001 1696.57,539.953 1696.74,539.863 
  1696.79,539.834 1696.87,539.788 1697.06,539.686 1697.4,539.497 1697.46,539.464 1698.23,539.04 1698.26,539.024 1698.32,538.988 
  1698.46,538.914 1698.77,538.742 1698.88,538.683 1699.09,538.566 1699.21,538.497 1699.48,538.348 1699.73,538.212 1699.93,538.104 1699.96,538.088 1700.05,538.036 
  1700.13,537.994 1700.2,537.951 1700.22,537.943 1700.54,537.765 1700.73,537.659 1700.96,537.532 1700.96,537.531 1700.98,537.52 1701.14,537.437 1702.45,536.711 
  1702.55,536.654 1702.83,536.501 1703.26,536.263 1703.35,536.215 1703.38,536.197 1703.55,536.106 1703.87,535.925 1703.88,535.921 1704.49,535.586 1704.68,535.478 
  1704.79,535.421 1704.79,535.419 1704.83,535.398 1704.85,535.384 1705.54,535.008 1705.56,534.993 1705.92,534.797 1706.6,534.421 1706.67,534.382 1706.67,534.381 
  1707.46,533.944 1707.93,533.685 1708.05,533.619 1708.11,533.59 1708.17,533.552 1708.43,533.412 1708.58,533.33 1708.64,533.295 1708.84,533.186 1709.13,533.027 
  1709.44,532.856 1709.44,532.853 1709.47,532.84 1709.62,532.757 1710.23,532.415 1710.34,532.358 1710.39,532.331 1710.53,532.254 1710.64,532.191 1710.77,532.118 
  1711.22,531.871 1711.23,531.867 1711.29,531.833 1711.4,531.771 1711.45,531.745 1712.19,531.338 1712.42,531.212 1714.3,530.172 1714.6,530.006 1714.99,529.79 
  1715.21,529.668 1715.29,529.627 1715.4,529.568 1715.58,529.467 1715.86,529.311 1716.39,529.021 1716.39,529.02 1716.5,528.959 1716.61,528.899 1716.75,528.821 
  1716.86,528.76 1717.4,528.463 1717.62,528.338 1717.67,528.314 1717.67,528.312 1717.84,528.22 1717.98,528.143 1718.32,527.956 1718.46,527.876 1718.48,527.867 
  1718.63,527.781 1718.77,527.706 1718.78,527.7 1718.81,527.682 1718.98,527.589 1719,527.58 1719.01,527.576 1719.08,527.537 1719.34,527.393 1719.4,527.36 
  1719.4,527.358 1719.45,527.333 1719.6,527.248 1719.68,527.205 1719.99,527.032 1720.93,526.513 1720.96,526.499 
  1720.97,526.49 1721.93,525.962 1722.14,525.844 1722.15,525.84 1722.17,525.832 1722.19,525.818 1722.29,525.765 1723.17,525.275 1723.34,525.182 1724.46,524.569 
  1724.58,524.501 1725.04,524.249 1725.43,524.029 1726.27,523.567 1726.39,523.503 1726.42,523.487 1726.77,523.291 1727.12,523.1 1727.56,522.855 1727.92,522.654 
  1728.14,522.538 1728.2,522.505 1728.36,522.415 1728.45,522.364 1728.63,522.264 1728.83,522.154 1728.88,522.129 1729.02,522.049 1729.4,521.839 1729.68,521.683 
  1729.71,521.667 1729.81,521.616 1729.83,521.603 1729.99,521.517 
  1730.19,521.405 1730.29,521.347 1730.39,521.295 1730.43,521.272 1730.6,521.18 1730.6,521.179 1730.68,521.136 1730.95,520.983 1731.26,520.815 1731.57,520.641 
  1731.68,520.583 1731.8,520.513 1732.26,520.262 1732.56,520.097 1732.71,520.013 1732.85,519.937 1732.95,519.88 1733.1,519.799 1733.32,519.678 1733.34,519.666 
  1733.51,519.574 1733.58,519.533 1734.11,519.242 1734.35,519.11 1734.76,518.885 1735.19,518.646 1735.19,518.645 1735.21,518.635 1735.37,518.548 1735.41,518.523 
  1735.52,518.463 1735.72,518.35 1736.11,518.137 1736.84,517.733 1737.05,517.62 1737.2,517.535 1737.29,517.486 1737.61,517.307 1737.84,517.182 
  1737.87,517.166 1737.88,517.16 1737.89,517.154 1738.38,516.883 1739.13,516.47 1739.14,516.467 1739.3,516.38 1739.33,516.362 1739.35,516.347 1739.38,516.332 
  1739.39,516.326 1739.49,516.275 1739.58,516.221 1739.59,516.217 1739.75,516.128 1739.76,516.126 1740.08,515.945 1740.23,515.864 1740.28,515.837 1740.32,515.813 
  1740.35,515.8 1740.78,515.56 1741.18,515.34 1741.36,515.243 1741.41,515.214 1741.44,515.196 1741.54,515.14 1741.65,515.082 1741.79,515.004 1742.64,514.536 
  1743.01,514.328 1743.02,514.326 1743.03,514.32 1743.3,514.172 1743.55,514.033 1743.59,514.012 1743.96,513.808 1744.33,513.599 1744.38,513.572 1744.56,513.476 
  1745.3,513.067 1745.46,512.976 1745.48,512.967 1745.57,512.916 1745.64,512.878 1746.05,512.65 1746.06,512.646 1746.15,512.598 1746.25,512.541 1746.27,512.531 
  1746.84,512.216 1746.87,512.198 1746.9,512.184 1746.91,512.177 1747.08,512.086 1747.11,512.069 1747.31,511.959 1747.5,511.852 1749.08,510.982 
  1749.26,510.884 1749.39,510.808 1749.46,510.772 1749.56,510.714 1749.7,510.641 1749.91,510.521 1750.04,510.453 1750.13,510.401 1750.34,510.285 1750.41,510.248 
  1750.65,510.113 1751.07,509.88 1751.11,509.861 1751.91,509.42 1751.94,509.4 1752.35,509.178 1752.39,509.155 1752.75,508.958 1752.98,508.831 
  1753.07,508.78 1753.1,508.76 1753.13,508.744 1753.14,508.739 1753.19,508.713 1753.2,508.705 1753.47,508.56 1753.49,508.546 1753.97,508.284 1753.99,508.274 
  1754.13,508.196 1754.29,508.105 1754.31,508.094 1754.39,508.049 1754.78,507.836 1754.92,507.758 1755.34,507.525 1755.85,507.247 1756.03,507.146 1756.66,506.797 
  1757.6,506.278 1758.02,506.049 1758.1,506.002 1758.25,505.922 1758.33,505.877 1758.37,505.853 1759.45,505.259 1759.65,505.149 1759.92,504.997 1760.08,504.912 
  1760.15,504.875 1760.38,504.747 1760.41,504.73 1760.49,504.684 1760.5,504.676 1760.52,504.667 1760.56,504.646 1760.69,504.573 1761.03,504.389 1761.29,504.245 
  1761.44,504.161 1761.72,504.008 1762.22,503.732 1762.73,503.451 1762.95,503.326 1763.42,503.07 1763.48,503.035 1763.77,502.873 1764,502.745 1764.36,502.547 
  1764.39,502.533 1764.96,502.215 1765,502.198 1765.35,502.004 1765.38,501.986 1765.85,501.728 1765.98,501.652 1766,501.645 1766.05,501.615 1766.17,501.55 
  1766.34,501.455 1766.41,501.417 1766.43,501.408 1766.95,501.121 1767.05,501.063 1767.79,500.656 1768.12,500.477 1768.22,500.42 1768.35,500.346 1768.77,500.115 
  1769.21,499.872 1769.21,499.871 1769.25,499.852 1769.3,499.822 1769.81,499.544 1769.89,499.495 1770.25,499.301 1770.4,499.218 1770.91,498.937 1770.96,498.91 
  1770.98,498.899 1771.08,498.842 1771.17,498.793 1771.66,498.521 1771.73,498.484 1771.88,498.399 1772.06,498.298 1772.25,498.197 1772.82,497.882 
  1773.22,497.661 1773.28,497.625 1773.3,497.615 1773.79,497.344 1774.06,497.197 1774.11,497.167 1774.15,497.144 1774.28,497.073 1774.74,496.822 1775.13,496.606 
  1775.35,496.483 1775.91,496.176 1776.25,495.985 1776.39,495.911 1776.41,495.898 
  1776.63,495.777 1776.96,495.595 1776.98,495.584 1777.01,495.57 1777.42,495.34 1777.68,495.198 1777.99,495.028 1778.4,494.799 1778.47,494.765 
  1778.5,494.746 1778.88,494.537 1779.11,494.41 1779.23,494.341 1779.4,494.248 1779.45,494.222 1779.74,494.06 1780.11,493.858 1780.19,493.812 1780.38,493.71 
  1780.47,493.659 1780.54,493.621 1780.57,493.604 1780.69,493.539 1781,493.367 1781.01,493.364 1781.34,493.179 1781.39,493.153 1781.76,492.949 1781.94,492.849 
  1782.1,492.758 1782.68,492.439 1782.92,492.307 1783.1,492.208 1783.23,492.135 1783.46,492.009 1783.75,491.847 1784.01,491.707 1784.48,491.448 1784.58,491.393 
  1784.79,491.276 1784.87,491.23 1785.04,491.138 1785.16,491.074 1785.16,491.072 1785.19,491.057 1785.21,491.045 1785.9,490.665 1786.12,490.542 1786.21,490.493 
  1786.23,490.479 1786.28,490.456 1786.68,490.23 1787.17,489.961 1787.53,489.763 1787.82,489.606 1787.82,489.605 1787.88,489.572 1787.96,489.525 1788.15,489.423 
  1788.19,489.402 1788.56,489.196 1788.78,489.076 1789.32,488.774 1789.48,488.69 1789.5,488.675 1789.55,488.648 1789.55,488.648 1789.69,488.574 1789.94,488.432 
  1789.95,488.429 1790.29,488.24 1790.3,488.235 1790.34,488.214 1790.45,488.155 1790.47,488.14 1790.77,487.978 1790.88,487.915 1790.98,487.862 
  1791.07,487.808 1791.5,487.575 1791.94,487.333 1792.08,487.253 1792.45,487.048 1792.84,486.835 1793.36,486.546 1793.39,486.533 1793.44,486.503 1793.45,486.499 
  1793.8,486.307 1794.03,486.177 1794.1,486.139 1794.54,485.897 1794.79,485.759 1795.12,485.573 1795.14,485.565 1795.31,485.471 1795.36,485.445 1795.69,485.262 
  1796.06,485.059 1796.13,485.017 1796.19,484.982 1796.22,484.969 1796.49,484.822 1796.66,484.727 1796.73,484.689 1796.9,484.593 1797.18,484.441 1797.2,484.429 
  1797.74,484.128 1798.23,483.857 1798.25,483.847 1798.39,483.769 1798.41,483.758 1798.64,483.635 1798.81,483.54 1798.85,483.515 1799.97,482.898 1800.32,482.707 
  1800.39,482.669 1800.67,482.511 1800.75,482.468 1800.79,482.444 1800.85,482.411 1801.13,482.259 1801.13,482.259 1801.16,482.242 1801.72,481.935 1801.91,481.826 
  1802.45,481.532 1802.78,481.35 1802.78,481.347 1802.93,481.266 1803.46,480.973 1803.5,480.951 1803.91,480.725 1804.14,480.599 1804.2,480.564 1804.66,480.311 
  1805.09,480.075 1805.12,480.055 1805.18,480.025 1805.29,479.961 1805.6,479.794 1805.63,479.774 1805.98,479.584 1806.1,479.518 1806.1,479.515 1806.15,479.488 
  1806.44,479.329 1807.12,478.956 1808.09,478.416 1808.17,478.375 1808.44,478.224 1808.62,478.125 1808.84,478.003 1808.92,477.961 1808.92,477.959 1809.54,477.617 
  1809.65,477.559 1809.78,477.487 1809.88,477.429 1810.06,477.331 1810.08,477.319 1810.1,477.307 1810.5,477.086 1810.87,476.885 1811.34,476.627 1811.61,476.476 
  1811.66,476.45 1811.66,476.449 1812.72,475.863 1812.94,475.744 1813.29,475.546 1813.5,475.433 1813.65,475.352 1813.69,475.327 1813.98,475.171 1814.45,474.909 
  1814.45,474.908 1814.51,474.874 1814.57,474.843 1814.72,474.763 1814.93,474.644 1815.06,474.571 1815.22,474.483 1815.33,474.423 1815.36,474.406 1815.83,474.149 
  1816.03,474.036 1816.05,474.027 1816.71,473.663 1817.29,473.342 1817.49,473.234 1817.5,473.224 
  1817.72,473.103 1817.78,473.072 1818.26,472.806 1818.35,472.76 1818.5,472.673 1818.73,472.545 1818.74,472.542 1819,472.396 1819.12,472.33 1819.52,472.113 
  1819.55,472.095 1819.81,471.953 1820.06,471.813 1820.22,471.727 1820.22,471.723 1820.4,471.624 1821,471.295 1821.21,471.178 1821.33,471.114 1821.82,470.842 
  1821.89,470.806 1821.95,470.771 1822.31,470.572 1822.55,470.438 1822.7,470.359 1823.07,470.153 1823.41,469.966 1823.47,469.93 1823.62,469.847 1823.82,469.74 
  1824.41,469.411 1824.99,469.095 1825.16,469 1825.26,468.947 1825.45,468.837 1825.59,468.76 1825.65,468.73 1826.44,468.29 1826.64,468.184 1826.91,468.034 
  1827.2,467.873 1827.51,467.704 1827.52,467.694 1827.57,467.67 1827.65,467.627 1827.91,467.482 1828.03,467.413 1828.2,467.319 1828.47,467.17 1828.66,467.068 
  1829.24,466.749 1829.43,466.642 1829.76,466.463 1829.86,466.404 1829.9,466.386 1829.95,466.354 1829.99,466.332 1830.07,466.289 1830.79,465.892 1830.8,465.888 
  1830.93,465.817 1831.45,465.531 1831.66,465.414 1831.9,465.282 1832.15,465.143 1832.15,465.14 1832.64,464.871 1832.65,464.865 1832.82,464.77 1832.98,464.682 
  1833.19,464.566 1833.48,464.406 1833.62,464.331 1833.63,464.327 1833.63,464.325 1833.73,464.271 1833.73,464.269 1834.14,464.043 1834.36,463.924 1834.79,463.684 
  1834.86,463.644 1834.89,463.629 1835.44,463.327 1835.8,463.129 1835.95,463.044 1836.32,462.841 1836.36,462.82 1836.83,462.559 1837.15,462.381 1837.19,462.359 
  1837.24,462.332 1837.34,462.279 1837.36,462.268 1837.63,462.12 1838.18,461.816 1838.86,461.439 1838.86,461.438 1838.86,461.437 1839.13,461.292 1839.14,461.287 
  1839.23,461.233 1839.47,461.101 1839.5,461.086 1839.64,461.009 1839.8,460.923 1840.02,460.8 
  "/>
<path clip-path="url(#clip760)" d="
M1876.02 1197.11 L2644.91 1197.11 L2644.91 888.66 L1876.02 888.66  Z
  " fill="#000000" fill-rule="evenodd" fill-opacity="0"/>
<polyline clip-path="url(#clip760)" style="stroke:#000000; stroke-width:6.8; stroke-opacity:0; fill:none" points="
  1876.02,1197.11 2644.91,1197.11 2644.91,888.66 1876.02,888.66 1876.02,1197.11 
  "/>
<polyline clip-path="url(#clip760)" style="stroke:#808080; stroke-width:6.8; stroke-opacity:1; fill:none" points="
  1900.95,991.476 2050.5,991.476 
  "/>
<path clip-path="url(#clip760)" d="M 0 0 M2103.28 993.306 Q2105.84 994.171 2108.24 997.005 Q2110.68 999.838 2113.12 1004.8 L2121.19 1020.85 L2112.65 1020.85 L2105.13 1005.78 Q2102.22 999.877 2099.47 997.949 Q2096.75 996.021 2092.03 996.021 L2083.37 996.021 L2083.37 1020.85 L2075.42 1020.85 L2075.42 962.1 L2093.37 962.1 Q2103.44 962.1 2108.4 966.31 Q2113.36 970.521 2113.36 979.021 Q2113.36 984.57 2110.76 988.229 Q2108.2 991.889 2103.28 993.306 M2083.37 968.632 L2083.37 989.488 L2093.37 989.488 Q2099.11 989.488 2102.02 986.852 Q2104.98 984.176 2104.98 979.021 Q2104.98 973.866 2102.02 971.269 Q2099.11 968.632 2093.37 968.632 L2083.37 968.632 Z" fill="#000000" fill-rule="evenodd" fill-opacity="1" /><path clip-path="url(#clip760)" d="M 0 0 M2162.86 997.005 L2162.86 1000.55 L2129.57 1000.55 Q2130.04 1008.02 2134.06 1011.96 Q2138.11 1015.85 2145.31 1015.85 Q2149.48 1015.85 2153.38 1014.83 Q2157.31 1013.81 2161.17 1011.76 L2161.17 1018.61 Q2157.27 1020.26 2153.18 1021.13 Q2149.09 1021.99 2144.88 1021.99 Q2134.33 1021.99 2128.15 1015.85 Q2122.01 1009.72 2122.01 999.248 Q2122.01 988.426 2127.84 982.09 Q2133.7 975.715 2143.62 975.715 Q2152.51 975.715 2157.67 981.461 Q2162.86 987.167 2162.86 997.005 M2155.62 994.88 Q2155.54 988.938 2152.28 985.396 Q2149.05 981.854 2143.7 981.854 Q2137.64 981.854 2133.98 985.278 Q2130.36 988.701 2129.81 994.919 L2155.62 994.88 Z" fill="#000000" fill-rule="evenodd" fill-opacity="1" /><path clip-path="url(#clip760)" d="M 0 0 M2199.46 998.303 Q2199.46 990.433 2196.19 986.104 Q2192.97 981.776 2187.1 981.776 Q2181.28 981.776 2178.01 986.104 Q2174.79 990.433 2174.79 998.303 Q2174.79 1006.13 2178.01 1010.46 Q2181.28 1014.79 2187.1 1014.79 Q2192.97 1014.79 2196.19 1010.46 Q2199.46 1006.13 2199.46 998.303 M2206.7 1015.38 Q2206.7 1026.64 2201.7 1032.11 Q2196.7 1037.62 2186.39 1037.62 Q2182.58 1037.62 2179.19 1037.03 Q2175.81 1036.47 2172.62 1035.29 L2172.62 1028.25 Q2175.81 1029.98 2178.92 1030.81 Q2182.03 1031.63 2185.25 1031.63 Q2192.38 1031.63 2195.92 1027.9 Q2199.46 1024.2 2199.46 1016.68 L2199.46 1013.1 Q2197.22 1017 2193.71 1018.92 Q2190.21 1020.85 2185.33 1020.85 Q2177.23 1020.85 2172.27 1014.67 Q2167.31 1008.5 2167.31 998.303 Q2167.31 988.072 2172.27 981.894 Q2177.23 975.715 2185.33 975.715 Q2190.21 975.715 2193.71 977.644 Q2197.22 979.572 2199.46 983.468 L2199.46 976.778 L2206.7 976.778 L2206.7 1015.38 Z" fill="#000000" fill-rule="evenodd" fill-opacity="1" /><path clip-path="url(#clip760)" d="M 0 0 M2239.83 983.546 Q2238.61 982.838 2237.16 982.523 Q2235.74 982.169 2234.01 982.169 Q2227.87 982.169 2224.57 986.183 Q2221.3 990.157 2221.3 997.634 L2221.3 1020.85 L2214.02 1020.85 L2214.02 976.778 L2221.3 976.778 L2221.3 983.625 Q2223.58 979.611 2227.24 977.683 Q2230.9 975.715 2236.13 975.715 Q2236.88 975.715 2237.79 975.833 Q2238.69 975.912 2239.79 976.109 L2239.83 983.546 Z" fill="#000000" fill-rule="evenodd" fill-opacity="1" /><path clip-path="url(#clip760)" d="M 0 0 M2283.36 997.005 L2283.36 1000.55 L2250.07 1000.55 Q2250.54 1008.02 2254.55 1011.96 Q2258.6 1015.85 2265.81 1015.85 Q2269.98 1015.85 2273.87 1014.83 Q2277.81 1013.81 2281.66 1011.76 L2281.66 1018.61 Q2277.77 1020.26 2273.68 1021.13 Q2269.58 1021.99 2265.37 1021.99 Q2254.83 1021.99 2248.65 1015.85 Q2242.51 1009.72 2242.51 999.248 Q2242.51 988.426 2248.33 982.09 Q2254.2 975.715 2264.11 975.715 Q2273.01 975.715 2278.16 981.461 Q2283.36 987.167 2283.36 997.005 M2276.12 994.88 Q2276.04 988.938 2272.77 985.396 Q2269.54 981.854 2264.19 981.854 Q2258.13 981.854 2254.47 985.278 Q2250.85 988.701 2250.3 994.919 L2276.12 994.88 Z" fill="#000000" fill-rule="evenodd" fill-opacity="1" /><path clip-path="url(#clip760)" d="M 0 0 M2319.05 978.077 L2319.05 984.924 Q2315.98 983.35 2312.67 982.563 Q2309.37 981.776 2305.83 981.776 Q2300.44 981.776 2297.72 983.428 Q2295.04 985.081 2295.04 988.387 Q2295.04 990.905 2296.97 992.361 Q2298.9 993.778 2304.72 995.076 L2307.2 995.627 Q2314.92 997.28 2318.14 1000.31 Q2321.41 1003.3 2321.41 1008.69 Q2321.41 1014.83 2316.53 1018.41 Q2311.69 1021.99 2303.19 1021.99 Q2299.65 1021.99 2295.79 1021.28 Q2291.97 1020.62 2287.72 1019.24 L2287.72 1011.76 Q2291.74 1013.85 2295.63 1014.91 Q2299.53 1015.93 2303.35 1015.93 Q2308.46 1015.93 2311.22 1014.2 Q2313.97 1012.43 2313.97 1009.24 Q2313.97 1006.29 2311.97 1004.72 Q2310 1003.14 2303.27 1001.69 L2300.75 1001.1 Q2294.02 999.681 2291.03 996.769 Q2288.04 993.817 2288.04 988.701 Q2288.04 982.484 2292.45 979.1 Q2296.85 975.715 2304.96 975.715 Q2308.97 975.715 2312.52 976.306 Q2316.06 976.896 2319.05 978.077 Z" fill="#000000" fill-rule="evenodd" fill-opacity="1" /><path clip-path="url(#clip760)" d="M 0 0 M2357.1 978.077 L2357.1 984.924 Q2354.03 983.35 2350.73 982.563 Q2347.42 981.776 2343.88 981.776 Q2338.49 981.776 2335.77 983.428 Q2333.1 985.081 2333.1 988.387 Q2333.1 990.905 2335.03 992.361 Q2336.95 993.778 2342.78 995.076 L2345.26 995.627 Q2352.97 997.28 2356.2 1000.31 Q2359.46 1003.3 2359.46 1008.69 Q2359.46 1014.83 2354.58 1018.41 Q2349.74 1021.99 2341.24 1021.99 Q2337.7 1021.99 2333.84 1021.28 Q2330.03 1020.62 2325.78 1019.24 L2325.78 1011.76 Q2329.79 1013.85 2333.69 1014.91 Q2337.58 1015.93 2341.4 1015.93 Q2346.52 1015.93 2349.27 1014.2 Q2352.03 1012.43 2352.03 1009.24 Q2352.03 1006.29 2350.02 1004.72 Q2348.05 1003.14 2341.32 1001.69 L2338.8 1001.1 Q2332.07 999.681 2329.08 996.769 Q2326.09 993.817 2326.09 988.701 Q2326.09 982.484 2330.5 979.1 Q2334.91 975.715 2343.01 975.715 Q2347.03 975.715 2350.57 976.306 Q2354.11 976.896 2357.1 978.077 Z" fill="#000000" fill-rule="evenodd" fill-opacity="1" /><path clip-path="url(#clip760)" d="M 0 0 M2384.14 981.854 Q2378.31 981.854 2374.93 986.419 Q2371.54 990.945 2371.54 998.854 Q2371.54 1006.76 2374.89 1011.33 Q2378.27 1015.85 2384.14 1015.85 Q2389.92 1015.85 2393.31 1011.29 Q2396.69 1006.72 2396.69 998.854 Q2396.69 991.023 2393.31 986.458 Q2389.92 981.854 2384.14 981.854 M2384.14 975.715 Q2393.58 975.715 2398.97 981.854 Q2404.36 987.993 2404.36 998.854 Q2404.36 1009.68 2398.97 1015.85 Q2393.58 1021.99 2384.14 1021.99 Q2374.65 1021.99 2369.26 1015.85 Q2363.91 1009.68 2363.91 998.854 Q2363.91 987.993 2369.26 981.854 Q2374.65 975.715 2384.14 975.715 Z" fill="#000000" fill-rule="evenodd" fill-opacity="1" /><path clip-path="url(#clip760)" d="M 0 0 M2440.96 998.303 Q2440.96 990.433 2437.69 986.104 Q2434.47 981.776 2428.6 981.776 Q2422.78 981.776 2419.51 986.104 Q2416.29 990.433 2416.29 998.303 Q2416.29 1006.13 2419.51 1010.46 Q2422.78 1014.79 2428.6 1014.79 Q2434.47 1014.79 2437.69 1010.46 Q2440.96 1006.13 2440.96 998.303 M2448.2 1015.38 Q2448.2 1026.64 2443.2 1032.11 Q2438.21 1037.62 2427.9 1037.62 Q2424.08 1037.62 2420.69 1037.03 Q2417.31 1036.47 2414.12 1035.29 L2414.12 1028.25 Q2417.31 1029.98 2420.42 1030.81 Q2423.53 1031.63 2426.75 1031.63 Q2433.88 1031.63 2437.42 1027.9 Q2440.96 1024.2 2440.96 1016.68 L2440.96 1013.1 Q2438.72 1017 2435.21 1018.92 Q2431.71 1020.85 2426.83 1020.85 Q2418.73 1020.85 2413.77 1014.67 Q2408.81 1008.5 2408.81 998.303 Q2408.81 988.072 2413.77 981.894 Q2418.73 975.715 2426.83 975.715 Q2431.71 975.715 2435.21 977.644 Q2438.72 979.572 2440.96 983.468 L2440.96 976.778 L2448.2 976.778 L2448.2 1015.38 Z" fill="#000000" fill-rule="evenodd" fill-opacity="1" /><path clip-path="url(#clip760)" d="M 0 0 M2481.33 983.546 Q2480.11 982.838 2478.66 982.523 Q2477.24 982.169 2475.51 982.169 Q2469.37 982.169 2466.07 986.183 Q2462.8 990.157 2462.8 997.634 L2462.8 1020.85 L2455.52 1020.85 L2455.52 976.778 L2462.8 976.778 L2462.8 983.625 Q2465.08 979.611 2468.74 977.683 Q2472.4 975.715 2477.64 975.715 Q2478.38 975.715 2479.29 975.833 Q2480.19 975.912 2481.3 976.109 L2481.33 983.546 Z" fill="#000000" fill-rule="evenodd" fill-opacity="1" /><path clip-path="url(#clip760)" d="M 0 0 M2508.96 998.697 Q2500.18 998.697 2496.8 1000.7 Q2493.42 1002.71 2493.42 1007.55 Q2493.42 1011.41 2495.93 1013.69 Q2498.49 1015.93 2502.86 1015.93 Q2508.88 1015.93 2512.5 1011.68 Q2516.16 1007.39 2516.16 1000.31 L2516.16 998.697 L2508.96 998.697 M2523.4 995.706 L2523.4 1020.85 L2516.16 1020.85 L2516.16 1014.16 Q2513.68 1018.18 2509.98 1020.1 Q2506.28 1021.99 2500.93 1021.99 Q2494.16 1021.99 2490.15 1018.22 Q2486.17 1014.4 2486.17 1008.02 Q2486.17 1000.59 2491.13 996.808 Q2496.13 993.03 2506.01 993.03 L2516.16 993.03 L2516.16 992.322 Q2516.16 987.324 2512.86 984.609 Q2509.59 981.854 2503.65 981.854 Q2499.87 981.854 2496.29 982.759 Q2492.71 983.664 2489.4 985.475 L2489.4 978.785 Q2493.38 977.25 2497.11 976.502 Q2500.85 975.715 2504.39 975.715 Q2513.96 975.715 2518.68 980.674 Q2523.4 985.632 2523.4 995.706 Z" fill="#000000" fill-rule="evenodd" fill-opacity="1" /><path clip-path="url(#clip760)" d="M 0 0 M2565.31 985.239 Q2568.03 980.359 2571.8 978.037 Q2575.58 975.715 2580.7 975.715 Q2587.58 975.715 2591.32 980.556 Q2595.06 985.357 2595.06 994.25 L2595.06 1020.85 L2587.78 1020.85 L2587.78 994.486 Q2587.78 988.151 2585.54 985.081 Q2583.29 982.012 2578.69 982.012 Q2573.06 982.012 2569.8 985.75 Q2566.53 989.488 2566.53 995.942 L2566.53 1020.85 L2559.25 1020.85 L2559.25 994.486 Q2559.25 988.111 2557.01 985.081 Q2554.76 982.012 2550.08 982.012 Q2544.53 982.012 2541.27 985.789 Q2538 989.528 2538 995.942 L2538 1020.85 L2530.72 1020.85 L2530.72 976.778 L2538 976.778 L2538 983.625 Q2540.48 979.572 2543.94 977.644 Q2547.41 975.715 2552.17 975.715 Q2556.97 975.715 2560.31 978.155 Q2563.7 980.595 2565.31 985.239 Z" fill="#000000" fill-rule="evenodd" fill-opacity="1" /><polyline clip-path="url(#clip760)" style="stroke:#add8e6; stroke-width:6.8; stroke-opacity:1; fill:none" points="
  1900.95,1094.29 2050.5,1094.29 
  "/>
<path clip-path="url(#clip760)" d="M 0 0 M2075.42 1064.92 L2083.37 1064.92 L2083.37 1116.98 L2111.98 1116.98 L2111.98 1123.67 L2075.42 1123.67 L2075.42 1064.92 Z" fill="#000000" fill-rule="evenodd" fill-opacity="1" /><path clip-path="url(#clip760)" d="M 0 0 M2135.24 1084.67 Q2129.41 1084.67 2126.03 1089.24 Q2122.64 1093.76 2122.64 1101.67 Q2122.64 1109.58 2125.99 1114.14 Q2129.37 1118.67 2135.24 1118.67 Q2141.02 1118.67 2144.41 1114.11 Q2147.79 1109.54 2147.79 1101.67 Q2147.79 1093.84 2144.41 1089.27 Q2141.02 1084.67 2135.24 1084.67 M2135.24 1078.53 Q2144.68 1078.53 2150.07 1084.67 Q2155.46 1090.81 2155.46 1101.67 Q2155.46 1112.49 2150.07 1118.67 Q2144.68 1124.81 2135.24 1124.81 Q2125.75 1124.81 2120.36 1118.67 Q2115.01 1112.49 2115.01 1101.67 Q2115.01 1090.81 2120.36 1084.67 Q2125.75 1078.53 2135.24 1078.53 Z" fill="#000000" fill-rule="evenodd" fill-opacity="1" /><path clip-path="url(#clip760)" d="M 0 0 M2194.78 1081.29 L2194.78 1088.05 Q2191.71 1086.36 2188.6 1085.54 Q2185.53 1084.67 2182.38 1084.67 Q2175.34 1084.67 2171.44 1089.16 Q2167.54 1093.6 2167.54 1101.67 Q2167.54 1109.74 2171.44 1114.22 Q2175.34 1118.67 2182.38 1118.67 Q2185.53 1118.67 2188.6 1117.84 Q2191.71 1116.98 2194.78 1115.29 L2194.78 1121.98 Q2191.75 1123.39 2188.48 1124.1 Q2185.25 1124.81 2181.59 1124.81 Q2171.64 1124.81 2165.77 1118.55 Q2159.91 1112.3 2159.91 1101.67 Q2159.91 1090.89 2165.81 1084.71 Q2171.76 1078.53 2182.07 1078.53 Q2185.41 1078.53 2188.6 1079.24 Q2191.79 1079.91 2194.78 1081.29 Z" fill="#000000" fill-rule="evenodd" fill-opacity="1" /><path clip-path="url(#clip760)" d="M 0 0 M2222.4 1101.51 Q2213.63 1101.51 2210.24 1103.52 Q2206.86 1105.53 2206.86 1110.37 Q2206.86 1114.22 2209.38 1116.51 Q2211.93 1118.75 2216.3 1118.75 Q2222.32 1118.75 2225.94 1114.5 Q2229.6 1110.21 2229.6 1103.13 L2229.6 1101.51 L2222.4 1101.51 M2236.84 1098.52 L2236.84 1123.67 L2229.6 1123.67 L2229.6 1116.98 Q2227.12 1120.99 2223.42 1122.92 Q2219.72 1124.81 2214.37 1124.81 Q2207.6 1124.81 2203.59 1121.03 Q2199.62 1117.21 2199.62 1110.84 Q2199.62 1103.4 2204.57 1099.62 Q2209.57 1095.85 2219.45 1095.85 L2229.6 1095.85 L2229.6 1095.14 Q2229.6 1090.14 2226.3 1087.42 Q2223.03 1084.67 2217.09 1084.67 Q2213.31 1084.67 2209.73 1085.58 Q2206.15 1086.48 2202.84 1088.29 L2202.84 1081.6 Q2206.82 1080.07 2210.56 1079.32 Q2214.29 1078.53 2217.84 1078.53 Q2227.4 1078.53 2232.12 1083.49 Q2236.84 1088.45 2236.84 1098.52 Z" fill="#000000" fill-rule="evenodd" fill-opacity="1" /><path clip-path="url(#clip760)" d="M 0 0 M2244.44 1062.44 L2251.68 1062.44 L2251.68 1123.67 L2244.44 1123.67 L2244.44 1062.44 Z" fill="#000000" fill-rule="evenodd" fill-opacity="1" /><path clip-path="url(#clip760)" d="M 0 0 M2284.89 1062.44 L2292.13 1062.44 L2292.13 1123.67 L2284.89 1123.67 L2284.89 1062.44 Z" fill="#000000" fill-rule="evenodd" fill-opacity="1" /><path clip-path="url(#clip760)" d="M 0 0 M2299.73 1079.59 L2306.97 1079.59 L2306.97 1123.67 L2299.73 1123.67 L2299.73 1079.59 M2299.73 1062.44 L2306.97 1062.44 L2306.97 1071.61 L2299.73 1071.61 L2299.73 1062.44 Z" fill="#000000" fill-rule="evenodd" fill-opacity="1" /><path clip-path="url(#clip760)" d="M 0 0 M2351.2 1097.07 L2351.2 1123.67 L2343.96 1123.67 L2343.96 1097.3 Q2343.96 1091.05 2341.52 1087.94 Q2339.08 1084.83 2334.2 1084.83 Q2328.34 1084.83 2324.95 1088.57 Q2321.57 1092.3 2321.57 1098.76 L2321.57 1123.67 L2314.29 1123.67 L2314.29 1079.59 L2321.57 1079.59 L2321.57 1086.44 Q2324.16 1082.47 2327.67 1080.5 Q2331.21 1078.53 2335.81 1078.53 Q2343.41 1078.53 2347.3 1083.25 Q2351.2 1087.94 2351.2 1097.07 Z" fill="#000000" fill-rule="evenodd" fill-opacity="1" /><path clip-path="url(#clip760)" d="M 0 0 M2396.49 1099.82 L2396.49 1103.36 L2363.2 1103.36 Q2363.67 1110.84 2367.69 1114.77 Q2371.74 1118.67 2378.94 1118.67 Q2383.11 1118.67 2387.01 1117.65 Q2390.94 1116.62 2394.8 1114.58 L2394.8 1121.42 Q2390.9 1123.08 2386.81 1123.94 Q2382.72 1124.81 2378.51 1124.81 Q2367.96 1124.81 2361.78 1118.67 Q2355.65 1112.53 2355.65 1102.06 Q2355.65 1091.24 2361.47 1084.91 Q2367.33 1078.53 2377.25 1078.53 Q2386.14 1078.53 2391.3 1084.28 Q2396.49 1089.98 2396.49 1099.82 M2389.25 1097.7 Q2389.17 1091.75 2385.91 1088.21 Q2382.68 1084.67 2377.33 1084.67 Q2371.27 1084.67 2367.61 1088.09 Q2363.99 1091.52 2363.44 1097.74 L2389.25 1097.7 Z" fill="#000000" fill-rule="evenodd" fill-opacity="1" /><path clip-path="url(#clip760)" d="M 0 0 M2424.12 1101.51 Q2415.34 1101.51 2411.96 1103.52 Q2408.57 1105.53 2408.57 1110.37 Q2408.57 1114.22 2411.09 1116.51 Q2413.65 1118.75 2418.02 1118.75 Q2424.04 1118.75 2427.66 1114.5 Q2431.32 1110.21 2431.32 1103.13 L2431.32 1101.51 L2424.12 1101.51 M2438.56 1098.52 L2438.56 1123.67 L2431.32 1123.67 L2431.32 1116.98 Q2428.84 1120.99 2425.14 1122.92 Q2421.44 1124.81 2416.09 1124.81 Q2409.32 1124.81 2405.31 1121.03 Q2401.33 1117.21 2401.33 1110.84 Q2401.33 1103.4 2406.29 1099.62 Q2411.29 1095.85 2421.17 1095.85 L2431.32 1095.85 L2431.32 1095.14 Q2431.32 1090.14 2428.01 1087.42 Q2424.75 1084.67 2418.8 1084.67 Q2415.03 1084.67 2411.45 1085.58 Q2407.87 1086.48 2404.56 1088.29 L2404.56 1081.6 Q2408.53 1080.07 2412.27 1079.32 Q2416.01 1078.53 2419.55 1078.53 Q2429.12 1078.53 2433.84 1083.49 Q2438.56 1088.45 2438.56 1098.52 Z" fill="#000000" fill-rule="evenodd" fill-opacity="1" /><path clip-path="url(#clip760)" d="M 0 0 M2471.69 1086.36 Q2470.47 1085.65 2469.02 1085.34 Q2467.6 1084.99 2465.87 1084.99 Q2459.73 1084.99 2456.43 1089 Q2453.16 1092.97 2453.16 1100.45 L2453.16 1123.67 L2445.88 1123.67 L2445.88 1079.59 L2453.16 1079.59 L2453.16 1086.44 Q2455.44 1082.43 2459.1 1080.5 Q2462.76 1078.53 2467.99 1078.53 Q2468.74 1078.53 2469.65 1078.65 Q2470.55 1078.73 2471.65 1078.92 L2471.69 1086.36 Z" fill="#000000" fill-rule="evenodd" fill-opacity="1" /><path clip-path="url(#clip760)" d="M 0 0 M2527.22 1062.44 L2527.22 1068.46 L2520.29 1068.46 Q2516.4 1068.46 2514.86 1070.03 Q2513.37 1071.61 2513.37 1075.7 L2513.37 1079.59 L2525.29 1079.59 L2525.29 1085.22 L2513.37 1085.22 L2513.37 1123.67 L2506.09 1123.67 L2506.09 1085.22 L2499.16 1085.22 L2499.16 1079.59 L2506.09 1079.59 L2506.09 1076.52 Q2506.09 1069.17 2509.51 1065.82 Q2512.93 1062.44 2520.37 1062.44 L2527.22 1062.44 Z" fill="#000000" fill-rule="evenodd" fill-opacity="1" /><path clip-path="url(#clip760)" d="M 0 0 M2534.81 1079.59 L2542.05 1079.59 L2542.05 1123.67 L2534.81 1123.67 L2534.81 1079.59 M2534.81 1062.44 L2542.05 1062.44 L2542.05 1071.61 L2534.81 1071.61 L2534.81 1062.44 Z" fill="#000000" fill-rule="evenodd" fill-opacity="1" /><path clip-path="url(#clip760)" d="M 0 0 M2556.81 1067.08 L2556.81 1079.59 L2571.73 1079.59 L2571.73 1085.22 L2556.81 1085.22 L2556.81 1109.15 Q2556.81 1114.54 2558.27 1116.07 Q2559.76 1117.61 2564.29 1117.61 L2571.73 1117.61 L2571.73 1123.67 L2564.29 1123.67 Q2555.91 1123.67 2552.72 1120.56 Q2549.53 1117.41 2549.53 1109.15 L2549.53 1085.22 L2544.22 1085.22 L2544.22 1079.59 L2549.53 1079.59 L2549.53 1067.08 L2556.81 1067.08 Z" fill="#000000" fill-rule="evenodd" fill-opacity="1" /></svg>
